<svg xmlns="http://www.w3.org/2000/svg" width="1280" height="960" viewBox="0 0 1280 960" font-family="-apple-system, system-ui, sans-serif" fill="#fff" stroke="#000" stroke-width="1.5">
  <rect x="0" y="0" width="1280" height="960" />
  <rect x="0" y="0" width="1280" height="56" rx="0" fill="#fff" stroke="#000" stroke-width="1.5" />
  <line x1="0" y1="56" x2="1280" y2="56" stroke="#000" stroke-width="1.5" />
  <text x="32" y="35" font-size="14" stroke="none" fill="#000" text-anchor="start" font-weight="bold">Paperclip</text>
  <text x="1248" y="35" font-size="12" stroke="none" fill="#666" text-anchor="end">Dotta</text>
  <rect x="0" y="56" width="200" height="904" rx="0" fill="#f4f4f1" stroke="#000" stroke-width="1.5" />
  <line x1="200" y1="56" x2="200" y2="960" stroke="#000" stroke-width="1.5" />
  <text x="28" y="96" font-size="14" stroke="none" fill="#666" text-anchor="start">Inbox</text>
  <text x="28" y="132" font-size="14" stroke="none" fill="#666" text-anchor="start">Tasks</text>
  <text x="28" y="168" font-size="14" stroke="none" fill="#666" text-anchor="start">Documents</text>
  <rect x="12" y="186" width="176" height="32" rx="6" fill="#fff" stroke="#000" stroke-width="1.5" />
  <text x="28" y="204" font-size="14" stroke="none" fill="#000" text-anchor="start" font-weight="bold">Apps</text>
  <text x="28" y="240" font-size="14" stroke="none" fill="#666" text-anchor="start">Settings</text>
  <text x="232" y="92" font-size="12" stroke="none" fill="#666" text-anchor="start">Apps</text>
  <text x="232" y="124" font-size="26" stroke="none" fill="#000" text-anchor="start" font-weight="bold">Apps</text>
  <text x="232" y="150" font-size="13" stroke="none" fill="#666" text-anchor="start">Connect tools your agents can use. Group them into named Gateways for clients you trust.</text>
  <line x1="232" y1="208" x2="324.5" y2="208" stroke="#000" stroke-width="2.5" />
  <text x="278.25" y="192" font-size="14" stroke="none" fill="#000" text-anchor="middle" font-weight="bold">Connected</text>
  <text x="386.25" y="192" font-size="14" stroke="none" fill="#666" text-anchor="middle">Gallery</text>
  <text x="490.0" y="192" font-size="14" stroke="none" fill="#666" text-anchor="middle">Gateways</text>
  <text x="598.0" y="192" font-size="14" stroke="none" fill="#666" text-anchor="middle">Activity</text>
  <line x1="232" y1="208" x2="1248" y2="208" stroke="#ccc" stroke-width="1" />
  <rect x="1086" y="226" width="162" height="34" rx="6" fill="#000" stroke="#000" stroke-width="1.5" />
  <text x="1167.0" y="248.0" font-size="13" stroke="none" fill="#fff" text-anchor="middle">+ Connect an app</text>
  <rect x="936" y="226" width="138" height="34" rx="6" fill="#fff" stroke="#000" stroke-width="1.5" />
  <text x="1005.0" y="248.0" font-size="13" stroke="none" fill="#000" text-anchor="middle">Paste config</text>
  <rect x="232" y="282" width="1016" height="64" rx="10" fill="#f4f4f1" stroke="#ccc" stroke-width="1.5" />
  <text x="264" y="310" font-size="22" stroke="none" fill="#000" text-anchor="start" font-weight="bold">5</text>
  <text x="264" y="332" font-size="12" stroke="none" fill="#666" text-anchor="start">Connected</text>
  <text x="484" y="310" font-size="22" stroke="none" fill="#000" text-anchor="start" font-weight="bold">1</text>
  <text x="484" y="332" font-size="12" stroke="none" fill="#666" text-anchor="start">Needs attention</text>
  <text x="704" y="310" font-size="22" stroke="none" fill="#000" text-anchor="start" font-weight="bold">3</text>
  <text x="704" y="332" font-size="12" stroke="none" fill="#666" text-anchor="start">Gateways</text>
  <text x="924" y="310" font-size="22" stroke="none" fill="#000" text-anchor="start" font-weight="bold">12</text>
  <text x="924" y="332" font-size="12" stroke="none" fill="#666" text-anchor="start">Approvals today</text>
  <text x="248" y="376" font-size="12" stroke="none" fill="#666" text-anchor="start" font-weight="bold">App</text>
  <text x="592" y="376" font-size="12" stroke="none" fill="#666" text-anchor="start" font-weight="bold">Where it runs</text>
  <text x="792" y="376" font-size="12" stroke="none" fill="#666" text-anchor="start" font-weight="bold">In gateways</text>
  <text x="992" y="376" font-size="12" stroke="none" fill="#666" text-anchor="start" font-weight="bold">Last used</text>
  <text x="1148" y="376" font-size="12" stroke="none" fill="#666" text-anchor="start" font-weight="bold">Status</text>
  <line x1="232" y1="388" x2="1248" y2="388" stroke="#000" stroke-width="1.5" />
  <line x1="232" y1="464" x2="1248" y2="464" stroke="#e6e6e6" stroke-width="1" />
  <rect x="248" y="420" width="32" height="32" rx="6" fill="#e6e6e6" stroke="#ccc" stroke-width="1" />
  <text x="292" y="432" font-size="14" stroke="none" fill="#000" text-anchor="start" font-weight="bold">GitHub</text>
  <text x="292" y="450" font-size="12" stroke="none" fill="#666" text-anchor="start">github · Allowed</text>
  <text x="592" y="440" font-size="13" stroke="none" fill="#000" text-anchor="start">Connects over the web</text>
  <text x="792" y="440" font-size="13" stroke="none" fill="#000" text-anchor="start">CTO agents, Eng team</text>
  <text x="992" y="440" font-size="13" stroke="none" fill="#666" text-anchor="start">2 min ago</text>
  <rect x="1124" y="426" width="108" height="22" rx="11" fill="#fff" stroke="#000" stroke-width="1.2" />
  <text x="1178.0" y="441.0" font-size="11" stroke="none" fill="#000" text-anchor="middle">Healthy</text>
  <line x1="232" y1="520" x2="1248" y2="520" stroke="#e6e6e6" stroke-width="1" />
  <rect x="248" y="476" width="32" height="32" rx="6" fill="#e6e6e6" stroke="#ccc" stroke-width="1" />
  <text x="292" y="488" font-size="14" stroke="none" fill="#000" text-anchor="start" font-weight="bold">Sheets</text>
  <text x="292" y="506" font-size="12" stroke="none" fill="#666" text-anchor="start">sheets · Allowed</text>
  <text x="592" y="496" font-size="13" stroke="none" fill="#000" text-anchor="start">Connects over the web</text>
  <text x="792" y="496" font-size="13" stroke="none" fill="#000" text-anchor="start">CTO agents</text>
  <text x="992" y="496" font-size="13" stroke="none" fill="#666" text-anchor="start">12 min ago</text>
  <rect x="1124" y="482" width="108" height="22" rx="11" fill="#fff" stroke="#000" stroke-width="1.2" />
  <text x="1178.0" y="497.0" font-size="11" stroke="none" fill="#000" text-anchor="middle">Healthy</text>
  <line x1="232" y1="576" x2="1248" y2="576" stroke="#e6e6e6" stroke-width="1" />
  <rect x="248" y="532" width="32" height="32" rx="6" fill="#e6e6e6" stroke="#ccc" stroke-width="1" />
  <text x="292" y="544" font-size="14" stroke="none" fill="#000" text-anchor="start" font-weight="bold">Linear</text>
  <text x="292" y="562" font-size="12" stroke="none" fill="#666" text-anchor="start">linear · Ask first</text>
  <text x="592" y="552" font-size="13" stroke="none" fill="#000" text-anchor="start">Connects over the web</text>
  <text x="792" y="552" font-size="13" stroke="none" fill="#000" text-anchor="start">CTO agents</text>
  <text x="992" y="552" font-size="13" stroke="none" fill="#666" text-anchor="start">1 hr ago</text>
  <rect x="1124" y="538" width="108" height="22" rx="11" fill="#fff" stroke="#000" stroke-width="1.2" />
  <text x="1178.0" y="553.0" font-size="11" stroke="none" fill="#000" text-anchor="middle">Healthy</text>
  <line x1="232" y1="632" x2="1248" y2="632" stroke="#e6e6e6" stroke-width="1" />
  <rect x="248" y="588" width="32" height="32" rx="6" fill="#e6e6e6" stroke="#ccc" stroke-width="1" />
  <text x="292" y="600" font-size="14" stroke="none" fill="#000" text-anchor="start" font-weight="bold">KV demo</text>
  <text x="292" y="618" font-size="12" stroke="none" fill="#666" text-anchor="start">kv-demo · Allowed</text>
  <text x="592" y="608" font-size="13" stroke="none" fill="#000" text-anchor="start">Runs in your workspace</text>
  <text x="792" y="608" font-size="13" stroke="none" fill="#000" text-anchor="start">—</text>
  <text x="992" y="608" font-size="13" stroke="none" fill="#666" text-anchor="start">3 hr ago</text>
  <rect x="1124" y="594" width="108" height="22" rx="11" fill="#000" stroke="#000" stroke-width="1.2" />
  <text x="1178.0" y="609.0" font-size="11" stroke="none" fill="#fff" text-anchor="middle">Needs attention</text>
  <line x1="232" y1="688" x2="1248" y2="688" stroke="#e6e6e6" stroke-width="1" />
  <rect x="248" y="644" width="32" height="32" rx="6" fill="#e6e6e6" stroke="#ccc" stroke-width="1" />
  <text x="292" y="656" font-size="14" stroke="none" fill="#000" text-anchor="start" font-weight="bold">Slack</text>
  <text x="292" y="674" font-size="12" stroke="none" fill="#666" text-anchor="start">slack · Allowed</text>
  <text x="592" y="664" font-size="13" stroke="none" fill="#000" text-anchor="start">Connects over the web</text>
  <text x="792" y="664" font-size="13" stroke="none" fill="#000" text-anchor="start">Eng team</text>
  <text x="992" y="664" font-size="13" stroke="none" fill="#666" text-anchor="start">Never</text>
  <rect x="1124" y="650" width="108" height="22" rx="11" fill="#fff" stroke="#000" stroke-width="1.2" />
  <text x="1178.0" y="665.0" font-size="11" stroke="none" fill="#000" text-anchor="middle">Healthy</text>
  <text x="232" y="932" font-size="12" stroke="none" fill="#666" text-anchor="start">Advanced  ·  Profiles, Rules, Runtime, Audit</text>
</svg>