<svg xmlns="http://www.w3.org/2000/svg" width="1280" height="1020" viewBox="0 0 1280 1020" font-family="-apple-system, system-ui, sans-serif" fill="#fff" stroke="#000" stroke-width="1.5">
  <rect x="0" y="0" width="1280" height="1020" />
  <rect x="0" y="0" width="1280" height="56" rx="0" fill="#fff" stroke="#000" stroke-width="1.5" />
  <line x1="0" y1="56" x2="1280" y2="56" stroke="#000" stroke-width="1.5" />
  <text x="32" y="35" font-size="14" stroke="none" fill="#000" text-anchor="start" font-weight="bold">Paperclip</text>
  <text x="1248" y="35" font-size="12" stroke="none" fill="#666" text-anchor="end">Dotta</text>
  <rect x="0" y="56" width="200" height="964" rx="0" fill="#f4f4f1" stroke="#000" stroke-width="1.5" />
  <line x1="200" y1="56" x2="200" y2="1020" stroke="#000" stroke-width="1.5" />
  <text x="28" y="96" font-size="14" stroke="none" fill="#666" text-anchor="start">Inbox</text>
  <text x="28" y="132" font-size="14" stroke="none" fill="#666" text-anchor="start">Tasks</text>
  <text x="28" y="168" font-size="14" stroke="none" fill="#666" text-anchor="start">Documents</text>
  <rect x="12" y="186" width="176" height="32" rx="6" fill="#fff" stroke="#000" stroke-width="1.5" />
  <text x="28" y="204" font-size="14" stroke="none" fill="#000" text-anchor="start" font-weight="bold">Apps</text>
  <text x="28" y="240" font-size="14" stroke="none" fill="#666" text-anchor="start">Settings</text>
  <text x="232" y="92" font-size="12" stroke="none" fill="#666" text-anchor="start">Apps · Activity</text>
  <text x="232" y="124" font-size="26" stroke="none" fill="#000" text-anchor="start" font-weight="bold">Activity</text>
  <text x="232" y="150" font-size="13" stroke="none" fill="#666" text-anchor="start">Every call through your gateways and apps, with why it was allowed, blocked, or paused.</text>
  <text x="278.25" y="192" font-size="14" stroke="none" fill="#666" text-anchor="middle">Connected</text>
  <text x="386.25" y="192" font-size="14" stroke="none" fill="#666" text-anchor="middle">Gallery</text>
  <text x="490.0" y="192" font-size="14" stroke="none" fill="#666" text-anchor="middle">Gateways</text>
  <line x1="556.0" y1="208" x2="640.0" y2="208" stroke="#000" stroke-width="2.5" />
  <text x="598.0" y="192" font-size="14" stroke="none" fill="#000" text-anchor="middle" font-weight="bold">Activity</text>
  <line x1="232" y1="208" x2="1248" y2="208" stroke="#ccc" stroke-width="1" />
  <rect x="232" y="220" width="1016" height="44" rx="8" fill="#fff" stroke="#ccc" stroke-width="1" />
  <rect x="248" y="228" width="66.8" height="22" rx="11" fill="#000" stroke="#000" stroke-width="1.2" />
  <text x="281.4" y="243.0" font-size="11" stroke="none" fill="#fff" text-anchor="middle">Last 24h</text>
  <rect x="328" y="228" width="93.19999999999999" height="22" rx="11" fill="#fff" stroke="#000" stroke-width="1.2" />
  <text x="374.6" y="243.0" font-size="11" stroke="none" fill="#000" text-anchor="middle">All gateways</text>
  <rect x="436" y="228" width="66.8" height="22" rx="11" fill="#fff" stroke="#000" stroke-width="1.2" />
  <text x="469.4" y="243.0" font-size="11" stroke="none" fill="#000" text-anchor="middle">All apps</text>
  <rect x="516" y="228" width="93.19999999999999" height="22" rx="11" fill="#fff" stroke="#000" stroke-width="1.2" />
  <text x="562.6" y="243.0" font-size="11" stroke="none" fill="#000" text-anchor="middle">All outcomes</text>
  <rect x="624" y="228" width="119.6" height="22" rx="11" fill="#fff" stroke="#000" stroke-width="1.2" />
  <text x="683.8" y="243.0" font-size="11" stroke="none" fill="#000" text-anchor="middle">Destructive only</text>
  <rect x="1122" y="226" width="110" height="26" rx="4" fill="#fff" stroke="#000" stroke-width="1.2" />
  <text x="1177.0" y="243.0" font-size="12" stroke="none" fill="#000" text-anchor="middle">Export</text>
  <rect x="232" y="286" width="540" height="694" rx="10" fill="#fff" stroke="#000" stroke-width="1.5" />
  <text x="248" y="314" font-size="13" stroke="none" fill="#000" text-anchor="start" font-weight="bold">127 events</text>
  <line x1="232" y1="330" x2="772" y2="330" stroke="#eee" stroke-width="1" />
  <text x="248" y="360" font-size="11" stroke="none" fill="#666" text-anchor="start" font-weight="bold">11:12:08</text>
  <text x="312" y="360" font-size="13" stroke="none" fill="#000" text-anchor="start" font-weight="bold">Fable</text>
  <text x="312" y="378" font-size="12" stroke="none" fill="#666" text-anchor="start">Linear · create_issue</text>
  <rect x="656" y="354" width="92" height="22" rx="11" fill="#000" stroke="#000" stroke-width="1.2" />
  <text x="702.0" y="369.0" font-size="11" stroke="none" fill="#fff" text-anchor="middle">Ask first</text>
  <text x="248" y="420" font-size="11" stroke="none" fill="#666" text-anchor="start" font-weight="bold">11:11:53</text>
  <text x="312" y="420" font-size="13" stroke="none" fill="#000" text-anchor="start" font-weight="bold">Cursor · client-x</text>
  <text x="312" y="438" font-size="12" stroke="none" fill="#666" text-anchor="start">Sheets · read_range</text>
  <rect x="656" y="414" width="92" height="22" rx="11" fill="#fff" stroke="#000" stroke-width="1.2" />
  <text x="702.0" y="429.0" font-size="11" stroke="none" fill="#000" text-anchor="middle">Allowed</text>
  <rect x="236" y="458" width="532" height="56" rx="8" fill="#f4f4f1" stroke="#000" stroke-width="1.2" />
  <text x="248" y="480" font-size="11" stroke="none" fill="#666" text-anchor="start" font-weight="bold">11:10:21</text>
  <text x="312" y="480" font-size="13" stroke="none" fill="#000" text-anchor="start" font-weight="bold">Claude Desktop · Dotta</text>
  <text x="312" y="498" font-size="12" stroke="none" fill="#666" text-anchor="start">Sheets · clear_range</text>
  <rect x="656" y="474" width="92" height="22" rx="11" fill="#000" stroke="#000" stroke-width="1.2" />
  <text x="702.0" y="489.0" font-size="11" stroke="none" fill="#fff" text-anchor="middle">Blocked</text>
  <text x="248" y="540" font-size="11" stroke="none" fill="#666" text-anchor="start" font-weight="bold">11:09:44</text>
  <text x="312" y="540" font-size="13" stroke="none" fill="#000" text-anchor="start" font-weight="bold">Fable</text>
  <text x="312" y="558" font-size="12" stroke="none" fill="#666" text-anchor="start">GitHub · merge_pr</text>
  <rect x="656" y="534" width="92" height="22" rx="11" fill="#fff" stroke="#000" stroke-width="1.2" />
  <text x="702.0" y="549.0" font-size="11" stroke="none" fill="#000" text-anchor="middle">Approved</text>
  <text x="248" y="600" font-size="11" stroke="none" fill="#666" text-anchor="start" font-weight="bold">11:08:00</text>
  <text x="312" y="600" font-size="13" stroke="none" fill="#000" text-anchor="start" font-weight="bold">CodexCoder</text>
  <text x="312" y="618" font-size="12" stroke="none" fill="#666" text-anchor="start">Slack · post_message</text>
  <rect x="656" y="594" width="92" height="22" rx="11" fill="#fff" stroke="#000" stroke-width="1.2" />
  <text x="702.0" y="609.0" font-size="11" stroke="none" fill="#000" text-anchor="middle">Allowed</text>
  <text x="248" y="660" font-size="11" stroke="none" fill="#666" text-anchor="start" font-weight="bold">11:06:31</text>
  <text x="312" y="660" font-size="13" stroke="none" fill="#000" text-anchor="start" font-weight="bold">Fable</text>
  <text x="312" y="678" font-size="12" stroke="none" fill="#666" text-anchor="start">KV demo · set</text>
  <rect x="656" y="654" width="92" height="22" rx="11" fill="#000" stroke="#000" stroke-width="1.2" />
  <text x="702.0" y="669.0" font-size="11" stroke="none" fill="#fff" text-anchor="middle">Rate-limited</text>
  <rect x="788" y="286" width="460" height="694" rx="10" fill="#fff" stroke="#000" stroke-width="1.5" />
  <text x="808" y="318" font-size="16" stroke="none" fill="#000" text-anchor="start" font-weight="bold">Sheets · clear_range — Blocked</text>
  <text x="808" y="340" font-size="12" stroke="none" fill="#666" text-anchor="start">11:10:21 · Claude Desktop · Dotta · via gateway CTO agents</text>
  <line x1="788" y1="366" x2="1248" y2="366" stroke="#eee" stroke-width="1" />
  <rect x="808" y="382" width="420" height="152" rx="10" fill="#f4f4f1" stroke="#000" stroke-width="1" />
  <text x="824" y="410" font-size="14" stroke="none" fill="#000" text-anchor="start" font-weight="bold">Why it was blocked</text>
  <text x="824" y="432" font-size="13" stroke="none" fill="#000" xml:space="preserve">Rule <tspan font-weight="bold">Sheets actions that change data</tspan> → Ask first.</text>
  <text x="824" y="452" font-size="13" stroke="none" fill="#000" xml:space="preserve">Then <tspan font-weight="bold">Destructive scope (&gt;50 cells)</tspan> → Off.</text>
  <text x="824" y="482" font-size="12" stroke="none" fill="#666" text-anchor="start">First match wins. The destructive scope is stricter, so it overrode Ask first.</text>
  <rect x="824" y="498" width="110" height="26" rx="4" fill="#fff" stroke="#000" stroke-width="1.2" />
  <text x="879.0" y="515.0" font-size="12" stroke="none" fill="#000" text-anchor="middle">Open rule</text>
  <rect x="942" y="498" width="140" height="26" rx="4" fill="#fff" stroke="#000" stroke-width="1.2" />
  <text x="1012.0" y="515.0" font-size="12" stroke="none" fill="#000" text-anchor="middle">Forget this rule</text>
  <text x="808" y="554" font-size="12" stroke="none" fill="#666" text-anchor="start" font-weight="bold">Arguments</text>
  <rect x="808" y="562" width="420" height="96" rx="8" fill="#fff" stroke="#ccc" stroke-width="1" />
  <text x="824" y="586" font-size="12" stroke="none" fill="#222" font-family="ui-monospace, Menlo, monospace">spreadsheet  =  Q3 OKRs</text>
  <text x="824" y="608" font-size="12" stroke="none" fill="#222" font-family="ui-monospace, Menlo, monospace">range        =  A1:Z200</text>
  <text x="824" y="630" font-size="12" stroke="none" fill="#222" font-family="ui-monospace, Menlo, monospace">count        =  10,400 cells</text>
  <text x="808" y="684" font-size="12" stroke="none" fill="#666" text-anchor="start" font-weight="bold">Follow-up</text>
  <rect x="808" y="694" width="160" height="26" rx="4" fill="#fff" stroke="#000" stroke-width="1.2" />
  <text x="888.0" y="711.0" font-size="12" stroke="none" fill="#000" text-anchor="middle">Approve this once</text>
  <rect x="976" y="694" width="160" height="26" rx="4" fill="#fff" stroke="#000" stroke-width="1.2" />
  <text x="1056.0" y="711.0" font-size="12" stroke="none" fill="#000" text-anchor="middle">Always allow this</text>
  <rect x="1144" y="694" width="140" height="26" rx="4" fill="#fff" stroke="#000" stroke-width="1.2" />
  <text x="1214.0" y="711.0" font-size="12" stroke="none" fill="#000" text-anchor="middle">Show as JSON</text>
</svg>