<svg xmlns="http://www.w3.org/2000/svg" width="1280" height="880" viewBox="0 0 1280 880" font-family="-apple-system, system-ui, sans-serif" fill="#fff" stroke="#000" stroke-width="1.5">
  <rect x="0" y="0" width="1280" height="880" />
  <rect x="0" y="0" width="1280" height="56" rx="0" fill="#fff" stroke="#000" stroke-width="1.5" />
  <line x1="0" y1="56" x2="1280" y2="56" stroke="#000" stroke-width="1.5" />
  <text x="32" y="35" font-size="14" stroke="none" fill="#000" text-anchor="start" font-weight="bold">Paperclip</text>
  <text x="1248" y="35" font-size="12" stroke="none" fill="#666" text-anchor="end">Dotta</text>
  <rect x="0" y="56" width="200" height="824" rx="0" fill="#f4f4f1" stroke="#000" stroke-width="1.5" />
  <line x1="200" y1="56" x2="200" y2="880" stroke="#000" stroke-width="1.5" />
  <text x="28" y="96" font-size="14" stroke="none" fill="#666" text-anchor="start">Inbox</text>
  <text x="28" y="132" font-size="14" stroke="none" fill="#666" text-anchor="start">Tasks</text>
  <text x="28" y="168" font-size="14" stroke="none" fill="#666" text-anchor="start">Documents</text>
  <rect x="12" y="186" width="176" height="32" rx="6" fill="#fff" stroke="#000" stroke-width="1.5" />
  <text x="28" y="204" font-size="14" stroke="none" fill="#000" text-anchor="start" font-weight="bold">Apps</text>
  <text x="28" y="240" font-size="14" stroke="none" fill="#666" text-anchor="start">Settings</text>
  <text x="232" y="92" font-size="12" stroke="none" fill="#666" text-anchor="start">Apps · GitHub</text>
  <text x="232" y="124" font-size="26" stroke="none" fill="#000" text-anchor="start" font-weight="bold">GitHub</text>
  <text x="232" y="150" font-size="13" stroke="none" fill="#666" text-anchor="start">Sign-in expired — your agents can’t use this app until it’s reconnected.</text>
  <line x1="232" y1="208" x2="316.0" y2="208" stroke="#000" stroke-width="2.5" />
  <text x="274.0" y="192" font-size="14" stroke="none" fill="#000" text-anchor="middle" font-weight="bold">Overview</text>
  <text x="369.25" y="192" font-size="14" stroke="none" fill="#666" text-anchor="middle">Tools</text>
  <text x="468.75" y="192" font-size="14" stroke="none" fill="#666" text-anchor="middle">Approvals</text>
  <text x="581.0" y="192" font-size="14" stroke="none" fill="#666" text-anchor="middle">Activity</text>
  <text x="689.0" y="192" font-size="14" stroke="none" fill="#666" text-anchor="middle">Advanced</text>
  <line x1="232" y1="208" x2="1248" y2="208" stroke="#ccc" stroke-width="1" />
  <rect x="232" y="220" width="1016" height="132" rx="12" fill="#f4f4f1" stroke="#000" stroke-width="1.5" />
  <text x="256" y="256" font-size="18" stroke="none" fill="#000" text-anchor="start" font-weight="bold">Reconnect to GitHub</text>
  <text x="256" y="280" font-size="13" stroke="none" fill="#666" text-anchor="start">The OAuth token expired at 11:02 AM. 3 agents tried to use GitHub since then; their calls were paused, not lost.</text>
  <rect x="256" y="302" width="200" height="34" rx="6" fill="#000" stroke="#000" stroke-width="1.5" />
  <text x="356.0" y="324.0" font-size="13" stroke="none" fill="#fff" text-anchor="middle">Sign in with GitHub</text>
  <rect x="464" y="302" width="180" height="34" rx="6" fill="#fff" stroke="#000" stroke-width="1.5" />
  <text x="554.0" y="324.0" font-size="13" stroke="none" fill="#000" text-anchor="middle">Use a token instead</text>
  <rect x="1100" y="232" width="132" height="26" rx="4" fill="#fff" stroke="#000" stroke-width="1.2" />
  <text x="1166.0" y="249.0" font-size="12" stroke="none" fill="#000" text-anchor="middle">Dismiss</text>
  <rect x="232" y="376" width="1016" height="256" rx="10" fill="#fff" stroke="#000" stroke-width="1.5" />
  <text x="252" y="400" font-size="14" stroke="none" fill="#000" text-anchor="start" font-weight="bold">Paused calls (3)</text>
  <text x="252" y="420" font-size="12" stroke="none" fill="#666" text-anchor="start">These resume automatically once you reconnect.</text>
  <line x1="252" y1="432" x2="1228" y2="432" stroke="#eee" stroke-width="1" />
  <text x="264" y="464" font-size="13" stroke="none" fill="#000" text-anchor="start" font-weight="bold">Fable · PAP-11178</text>
  <text x="264" y="482" font-size="12" stroke="none" fill="#666" text-anchor="start">list_pulls · 11:08</text>
  <rect x="1092" y="460" width="120" height="22" rx="11" fill="#fff" stroke="#000" stroke-width="1.2" />
  <text x="1152.0" y="475.0" font-size="11" stroke="none" fill="#000" text-anchor="middle">Will retry</text>
  <line x1="252" y1="502" x2="1228" y2="502" stroke="#f3f3f3" stroke-width="1" />
  <text x="264" y="520" font-size="13" stroke="none" fill="#000" text-anchor="start" font-weight="bold">Cursor · client-x</text>
  <text x="264" y="538" font-size="12" stroke="none" fill="#666" text-anchor="start">create_issue · 11:09</text>
  <rect x="1092" y="516" width="120" height="22" rx="11" fill="#fff" stroke="#000" stroke-width="1.2" />
  <text x="1152.0" y="531.0" font-size="11" stroke="none" fill="#000" text-anchor="middle">Will retry</text>
  <line x1="252" y1="558" x2="1228" y2="558" stroke="#f3f3f3" stroke-width="1" />
  <text x="264" y="576" font-size="13" stroke="none" fill="#000" text-anchor="start" font-weight="bold">CodexCoder</text>
  <text x="264" y="594" font-size="12" stroke="none" fill="#666" text-anchor="start">merge_pr · 11:10</text>
  <rect x="1092" y="572" width="120" height="22" rx="11" fill="#fff" stroke="#000" stroke-width="1.2" />
  <text x="1152.0" y="587.0" font-size="11" stroke="none" fill="#000" text-anchor="middle">Will ask first</text>
  <line x1="252" y1="614" x2="1228" y2="614" stroke="#f3f3f3" stroke-width="1" />
  <rect x="232" y="660" width="1016" height="84" rx="10" fill="#f4f4f1" stroke="#ccc" stroke-width="1" />
  <text x="252" y="686" font-size="14" stroke="none" fill="#000" text-anchor="start" font-weight="bold">Clients pointing here</text>
  <text x="252" y="706" font-size="12" stroke="none" fill="#666" text-anchor="start">CTO agents gateway · 2 active tokens. They’ll be told to ask first until reconnect.</text>
  <rect x="1064" y="668" width="168" height="26" rx="4" fill="#fff" stroke="#000" stroke-width="1.2" />
  <text x="1148.0" y="685.0" font-size="12" stroke="none" fill="#000" text-anchor="middle">Open gateway</text>
</svg>