<svg xmlns="http://www.w3.org/2000/svg" width="1280" height="820" viewBox="0 0 1280 820" font-family="-apple-system, system-ui, sans-serif" fill="#fff" stroke="#000" stroke-width="1.5">
  <rect x="0" y="0" width="1280" height="820" />
  <rect x="0" y="0" width="1280" height="56" rx="0" fill="#fff" stroke="#000" stroke-width="1.5" />
  <line x1="0" y1="56" x2="1280" y2="56" stroke="#000" stroke-width="1.5" />
  <text x="32" y="35" font-size="14" stroke="none" fill="#000" text-anchor="start" font-weight="bold">Paperclip</text>
  <text x="1248" y="35" font-size="12" stroke="none" fill="#666" text-anchor="end">Dotta</text>
  <rect x="0" y="56" width="200" height="764" rx="0" fill="#f4f4f1" stroke="#000" stroke-width="1.5" />
  <line x1="200" y1="56" x2="200" y2="820" stroke="#000" stroke-width="1.5" />
  <text x="28" y="96" font-size="14" stroke="none" fill="#666" text-anchor="start">Inbox</text>
  <rect x="12" y="114" width="176" height="32" rx="6" fill="#fff" stroke="#000" stroke-width="1.5" />
  <text x="28" y="132" font-size="14" stroke="none" fill="#000" text-anchor="start" font-weight="bold">Tasks</text>
  <text x="28" y="168" font-size="14" stroke="none" fill="#666" text-anchor="start">Documents</text>
  <text x="28" y="204" font-size="14" stroke="none" fill="#666" text-anchor="start">Apps</text>
  <text x="28" y="240" font-size="14" stroke="none" fill="#666" text-anchor="start">Settings</text>
  <text x="232" y="92" font-size="12" stroke="none" fill="#666" text-anchor="start">Tasks · PAP-11178</text>
  <text x="232" y="124" font-size="26" stroke="none" fill="#000" text-anchor="start" font-weight="bold">PAP-11178 · Apps/Gateways design</text>
  <text x="232" y="150" font-size="13" stroke="none" fill="#666" text-anchor="start">A tool needs one more thing before it can run.</text>
  <rect x="232" y="232" width="1016" height="80" rx="10" fill="#f4f4f1" stroke="#ccc" stroke-width="1" />
  <text x="252" y="258" font-size="13" stroke="none" fill="#000" text-anchor="start" font-weight="bold">Fable · 1 min ago</text>
  <text x="252" y="280" font-size="12" stroke="none" fill="#666" text-anchor="start">Calling Linear · create_issue with title “Rebuild settings page”…</text>
  <rect x="232" y="332" width="1016" height="380" rx="14" fill="#fff" stroke="#000" stroke-width="1.5" />
  <rect x="232" y="332" width="6" height="380" rx="3" fill="#000" stroke="none" stroke-width="1.5" />
  <text x="260" y="364" font-size="18" stroke="none" fill="#000" text-anchor="start" font-weight="bold">Linear is asking a follow-up</text>
  <text x="260" y="386" font-size="12" stroke="none" fill="#666" text-anchor="start">“Which team should this issue belong to?” · via gateway CTO agents</text>
  <rect x="1116" y="348" width="104" height="22" rx="11" fill="#fff" stroke="#000" stroke-width="1.2" />
  <text x="1168.0" y="363.0" font-size="11" stroke="none" fill="#000" text-anchor="middle">Ask user</text>
  <text x="260" y="432" font-size="12" stroke="none" fill="#666" text-anchor="start" font-weight="bold">Team</text>
  <rect x="260" y="444" width="960" height="40" rx="6" fill="#fff" stroke="#000" stroke-width="1.5" />
  <text x="276" y="470" font-size="14" stroke="none" fill="#000" text-anchor="start" font-weight="bold">Design</text>
  <text x="1216" y="470" font-size="16" stroke="none" fill="#000" text-anchor="end">▾</text>
  <text x="260" y="514" font-size="12" stroke="none" fill="#666" text-anchor="start" font-weight="bold">Why is this being asked?</text>
  <text x="260" y="532" font-size="13" stroke="none" fill="#000" text-anchor="start">Linear has no default team for this token. The tool returned an `elicitation` so Paperclip can ask you instead of guessing.</text>
  <rect x="260" y="564" width="160" height="26" rx="4" fill="#fff" stroke="#000" stroke-width="1.2" />
  <text x="340.0" y="581.0" font-size="12" stroke="none" fill="#000" text-anchor="middle">Show raw request</text>
  <rect x="428" y="564" width="140" height="26" rx="4" fill="#fff" stroke="#000" stroke-width="1.2" />
  <text x="498.0" y="581.0" font-size="12" stroke="none" fill="#000" text-anchor="middle">Open audit</text>
  <line x1="232" y1="644" x2="1248" y2="644" stroke="#eee" stroke-width="1" />
  <text x="260" y="672" font-size="12" stroke="none" fill="#666" text-anchor="start">Fable will receive your answer and continue the call.</text>
  <rect x="1092" y="660" width="132" height="34" rx="6" fill="#000" stroke="#000" stroke-width="1.5" />
  <text x="1158.0" y="682.0" font-size="13" stroke="none" fill="#fff" text-anchor="middle">Send answer</text>
  <rect x="948" y="660" width="132" height="34" rx="6" fill="#fff" stroke="#000" stroke-width="1.5" />
  <text x="1014.0" y="682.0" font-size="13" stroke="none" fill="#000" text-anchor="middle">Skip &amp; block</text>
</svg>