<svg xmlns="http://www.w3.org/2000/svg" width="1280" height="1100" viewBox="0 0 1280 1100" font-family="-apple-system, system-ui, sans-serif" fill="#fff" stroke="#000" stroke-width="1.5">
  <rect x="0" y="0" width="1280" height="1100" />
  <rect x="0" y="0" width="1280" height="56" rx="0" fill="#fff" stroke="#000" stroke-width="1.5" />
  <line x1="0" y1="56" x2="1280" y2="56" stroke="#000" stroke-width="1.5" />
  <text x="32" y="35" font-size="14" stroke="none" fill="#000" text-anchor="start" font-weight="bold">Paperclip</text>
  <text x="1248" y="35" font-size="12" stroke="none" fill="#666" text-anchor="end">Dotta</text>
  <rect x="0" y="56" width="200" height="1044" rx="0" fill="#f4f4f1" stroke="#000" stroke-width="1.5" />
  <line x1="200" y1="56" x2="200" y2="1100" stroke="#000" stroke-width="1.5" />
  <text x="28" y="96" font-size="14" stroke="none" fill="#666" text-anchor="start">Inbox</text>
  <text x="28" y="132" font-size="14" stroke="none" fill="#666" text-anchor="start">Tasks</text>
  <text x="28" y="168" font-size="14" stroke="none" fill="#666" text-anchor="start">Documents</text>
  <rect x="12" y="186" width="176" height="32" rx="6" fill="#fff" stroke="#000" stroke-width="1.5" />
  <text x="28" y="204" font-size="14" stroke="none" fill="#000" text-anchor="start" font-weight="bold">Apps</text>
  <text x="28" y="240" font-size="14" stroke="none" fill="#666" text-anchor="start">Settings</text>
  <text x="232" y="92" font-size="12" stroke="none" fill="#666" text-anchor="start">Apps · Paste config</text>
  <text x="232" y="124" font-size="26" stroke="none" fill="#000" text-anchor="start" font-weight="bold">Paste config · Preview</text>
  <text x="232" y="150" font-size="13" stroke="none" fill="#666" text-anchor="start">Fill in the keys we found. You can still pick which to import.</text>
  <text x="232" y="200" font-size="14" stroke="none" fill="#000" text-anchor="start" font-weight="bold">2 servers found</text>
  <text x="1248" y="200" font-size="12" stroke="none" fill="#666" text-anchor="end">2 selected · 3 keys missing</text>
  <rect x="232" y="224" width="1016" height="340" rx="10" fill="#fff" stroke="#000" stroke-width="1.5" />
  <rect x="248" y="240" width="28" height="28" rx="4" fill="#e6e6e6" stroke="#ccc" stroke-width="1" />
  <text x="288" y="252" font-size="15" stroke="none" fill="#000" text-anchor="start" font-weight="bold">github</text>
  <text x="288" y="270" font-size="12" stroke="none" fill="#666" text-anchor="start">Runs in your workspace · stdio template required</text>
  <rect x="1144" y="244" width="88" height="22" rx="11" fill="#fff" stroke="#000" stroke-width="1.2" />
  <text x="1188.0" y="259.0" font-size="11" stroke="none" fill="#000" text-anchor="middle">Needs review</text>
  <rect x="248" y="288" width="984" height="56" rx="8" fill="#f4f4f1" stroke="#ccc" stroke-width="1" />
  <text x="260" y="308" font-size="12" stroke="none" fill="#000" xml:space="preserve"><tspan font-weight="bold">No matching approved template. </tspan>Stdio imports must map to an approved Paperclip template before activation.</text>
  <rect x="1088" y="304" width="144" height="26" rx="4" fill="#fff" stroke="#000" stroke-width="1.2" />
  <text x="1160.0" y="321.0" font-size="12" stroke="none" fill="#000" text-anchor="middle">Request template</text>
  <text x="248" y="376" font-size="11" stroke="none" fill="#666" text-anchor="start" font-weight="bold">Command</text>
  <rect x="248" y="386" width="984" height="36" rx="6" fill="#f4f4f1" stroke="#ccc" stroke-width="1" />
  <text x="260" y="410" font-size="12" stroke="none" fill="#444" font-family="ui-monospace, Menlo, monospace">npx -y @modelcontextprotocol/server-github</text>
  <text x="248" y="448" font-size="11" stroke="none" fill="#666" text-anchor="start" font-weight="bold">Keys we need</text>
  <text x="248" y="474" font-size="13" stroke="none" fill="#000" text-anchor="start">GitHub token</text>
  <rect x="452" y="460" width="320" height="30" rx="6" fill="#f4f4f1" stroke="#ccc" stroke-width="1" />
  <text x="464" y="480" font-size="12" stroke="none" fill="#666" text-anchor="start">•••••••••••• ghp</text>
  <rect x="784" y="462" width="124" height="26" rx="4" fill="#fff" stroke="#000" stroke-width="1.2" />
  <text x="846.0" y="479.0" font-size="12" stroke="none" fill="#000" text-anchor="middle">Use existing…</text>
  <rect x="916" y="464" width="80" height="22" rx="11" fill="#fff" stroke="#000" stroke-width="1.2" />
  <text x="956.0" y="479.0" font-size="11" stroke="none" fill="#000" text-anchor="middle">Required</text>
  <rect x="232" y="584" width="1016" height="360" rx="10" fill="#fff" stroke="#000" stroke-width="1.5" />
  <rect x="248" y="600" width="28" height="28" rx="4" fill="#e6e6e6" stroke="#ccc" stroke-width="1" />
  <text x="288" y="612" font-size="15" stroke="none" fill="#000" text-anchor="start" font-weight="bold">linear</text>
  <text x="288" y="630" font-size="12" stroke="none" fill="#666" text-anchor="start">Connects over the web · https://mcp.linear.app/v1/sse</text>
  <rect x="1140" y="604" width="92" height="22" rx="11" fill="#000" stroke="#000" stroke-width="1.2" />
  <text x="1186.0" y="619.0" font-size="11" stroke="none" fill="#fff" text-anchor="middle">Ready</text>
  <text x="248" y="668" font-size="11" stroke="none" fill="#666" text-anchor="start" font-weight="bold">URL</text>
  <rect x="248" y="678" width="984" height="30" rx="6" fill="#f4f4f1" stroke="#ccc" stroke-width="1" />
  <text x="260" y="698" font-size="12" stroke="none" fill="#444" font-family="ui-monospace, Menlo, monospace">https://mcp.linear.app/v1/sse</text>
  <text x="248" y="728" font-size="11" stroke="none" fill="#666" text-anchor="start" font-weight="bold">Keys we need</text>
  <text x="248" y="756" font-size="13" stroke="none" fill="#000" text-anchor="start">Authorization header</text>
  <rect x="452" y="742" width="320" height="30" rx="6" fill="#fff" stroke="#000" stroke-width="1.5" />
  <text x="464" y="762" font-size="12" stroke="none" fill="#666" text-anchor="start">Bearer lin_api_...</text>
  <rect x="784" y="744" width="124" height="26" rx="4" fill="#fff" stroke="#000" stroke-width="1.2" />
  <text x="846.0" y="761.0" font-size="12" stroke="none" fill="#000" text-anchor="middle">Save as secret</text>
  <rect x="248" y="792" width="984" height="64" rx="8" fill="#f4f4f1" stroke="#ccc" stroke-width="1" />
  <text x="260" y="820" font-size="12" stroke="none" fill="#000" xml:space="preserve">This server supports <tspan font-weight="bold">Sign in with Linear</tspan>. Use it instead of pasting a token to let each agent connect as itself.</text>
  <rect x="1076" y="804" width="156" height="26" rx="4" fill="#fff" stroke="#000" stroke-width="1.2" />
  <text x="1154.0" y="821.0" font-size="12" stroke="none" fill="#000" text-anchor="middle">Use Sign in instead</text>
  <line x1="0" y1="1020" x2="1280" y2="1020" stroke="#e6e6e6" stroke-width="1" />
  <text x="232" y="1050" font-size="12" stroke="none" fill="#666" text-anchor="start">1 of 2 ready. After activation we’ll run a health + catalog check.</text>
  <rect x="1064" y="1040" width="184" height="34" rx="6" fill="#000" stroke="#000" stroke-width="1.5" />
  <text x="1156.0" y="1062.0" font-size="13" stroke="none" fill="#fff" text-anchor="middle">Activate ready (1)</text>
  <rect x="920" y="1040" width="132" height="34" rx="6" fill="#fff" stroke="#000" stroke-width="1.5" />
  <text x="986.0" y="1062.0" font-size="13" stroke="none" fill="#000" text-anchor="middle">Save drafts</text>
</svg>