<svg xmlns="http://www.w3.org/2000/svg" width="1280" height="960" viewBox="0 0 1280 960" font-family="-apple-system, system-ui, sans-serif" fill="#fff" stroke="#000" stroke-width="1.5">
  <rect x="0" y="0" width="1280" height="960" />
  <rect x="0" y="0" width="1280" height="56" rx="0" fill="#fff" stroke="#000" stroke-width="1.5" />
  <line x1="0" y1="56" x2="1280" y2="56" stroke="#000" stroke-width="1.5" />
  <text x="32" y="35" font-size="14" stroke="none" fill="#000" text-anchor="start" font-weight="bold">Paperclip</text>
  <text x="1248" y="35" font-size="12" stroke="none" fill="#666" text-anchor="end">Dotta</text>
  <rect x="0" y="56" width="200" height="904" rx="0" fill="#f4f4f1" stroke="#000" stroke-width="1.5" />
  <line x1="200" y1="56" x2="200" y2="960" stroke="#000" stroke-width="1.5" />
  <text x="28" y="96" font-size="14" stroke="none" fill="#666" text-anchor="start">Inbox</text>
  <text x="28" y="132" font-size="14" stroke="none" fill="#666" text-anchor="start">Tasks</text>
  <text x="28" y="168" font-size="14" stroke="none" fill="#666" text-anchor="start">Documents</text>
  <rect x="12" y="186" width="176" height="32" rx="6" fill="#fff" stroke="#000" stroke-width="1.5" />
  <text x="28" y="204" font-size="14" stroke="none" fill="#000" text-anchor="start" font-weight="bold">Apps</text>
  <text x="28" y="240" font-size="14" stroke="none" fill="#666" text-anchor="start">Settings</text>
  <text x="232" y="92" font-size="12" stroke="none" fill="#666" text-anchor="start">Apps · linear · Activation</text>
  <text x="232" y="124" font-size="26" stroke="none" fill="#000" text-anchor="start" font-weight="bold">Activating · linear</text>
  <text x="232" y="150" font-size="13" stroke="none" fill="#666" text-anchor="start">We check the server is reachable, list its tools, and flag risky ones before anything is exposed.</text>
  <circle cx="244" cy="212" r="11" fill="#000" stroke="#000" stroke-width="1.5" />
  <path d="M 238 213 L 243 218 L 252 207" stroke="#fff" stroke-width="2" fill="none" />
  <text x="264" y="216" font-size="13" stroke="none" fill="#000" text-anchor="start">Health</text>
  <line x1="284" y1="212" x2="332" y2="212" stroke="#ccc" stroke-width="1.5" />
  <circle cx="376" cy="212" r="11" fill="#000" stroke="#000" stroke-width="1.5" />
  <path d="M 370 213 L 375 218 L 384 207" stroke="#fff" stroke-width="2" fill="none" />
  <text x="396" y="216" font-size="13" stroke="none" fill="#000" text-anchor="start">Catalog</text>
  <line x1="416" y1="212" x2="464" y2="212" stroke="#ccc" stroke-width="1.5" />
  <circle cx="508" cy="212" r="11" fill="#000" stroke="#000" stroke-width="1.5" />
  <path d="M 502 213 L 507 218 L 516 207" stroke="#fff" stroke-width="2" fill="none" />
  <text x="528" y="216" font-size="13" stroke="none" fill="#000" text-anchor="start" font-weight="bold">Review tools</text>
  <line x1="548" y1="212" x2="596" y2="212" stroke="#ccc" stroke-width="1.5" />
  <circle cx="640" cy="212" r="11" fill="#fff" stroke="#000" stroke-width="1.5" />
  <text x="640" y="216" font-size="11" stroke="none" fill="#000" text-anchor="middle">4</text>
  <text x="660" y="216" font-size="13" stroke="none" fill="#000" text-anchor="start">Activate</text>
  <rect x="232" y="252" width="1016" height="84" rx="10" fill="#f4f4f1" stroke="#ccc" stroke-width="1" />
  <text x="252" y="282" font-size="14" stroke="none" fill="#000" text-anchor="start" font-weight="bold">Reachable · Sign in with Linear required</text>
  <text x="252" y="304" font-size="12" stroke="none" fill="#666" text-anchor="start">11 tools discovered · 2 flagged as destructive · 0 unsupported</text>
  <text x="252" y="322" font-size="12" stroke="none" fill="#666" text-anchor="start">Response time 184 ms · last checked 4s ago</text>
  <rect x="1100" y="280" width="132" height="26" rx="4" fill="#fff" stroke="#000" stroke-width="1.2" />
  <text x="1166.0" y="297.0" font-size="12" stroke="none" fill="#000" text-anchor="middle">Re-run checks</text>
  <text x="232" y="372" font-size="14" stroke="none" fill="#000" text-anchor="start" font-weight="bold">11 tools discovered</text>
  <text x="232" y="392" font-size="12" stroke="none" fill="#666" text-anchor="start">Pick what your agents can use. Risky ones default to Ask first.</text>
  <text x="248" y="432" font-size="12" stroke="none" fill="#666" text-anchor="start" font-weight="bold">Tool</text>
  <text x="592" y="432" font-size="12" stroke="none" fill="#666" text-anchor="start" font-weight="bold">What it does</text>
  <text x="952" y="432" font-size="12" stroke="none" fill="#666" text-anchor="start" font-weight="bold">Risk</text>
  <text x="1068" y="432" font-size="12" stroke="none" fill="#666" text-anchor="start" font-weight="bold">Default access</text>
  <line x1="232" y1="442" x2="1248" y2="442" stroke="#000" stroke-width="1.5" />
  <line x1="232" y1="502" x2="1248" y2="502" stroke="#eee" stroke-width="1" />
  <text x="248" y="486" font-size="13" stroke="none" fill="#000" text-anchor="start" font-weight="bold">list_issues</text>
  <text x="592" y="486" font-size="12" stroke="none" fill="#666" text-anchor="start">read</text>
  <rect x="952" y="474" width="92" height="22" rx="11" fill="#fff" stroke="#000" stroke-width="1.2" />
  <text x="998.0" y="489.0" font-size="11" stroke="none" fill="#000" text-anchor="middle">Read</text>
  <text x="1068" y="486" font-size="12" stroke="none" fill="#000" text-anchor="start">Allowed</text>
  <rect x="1188" y="474" width="24" height="22" rx="11" fill="#fff" stroke="#000" stroke-width="1.2" />
  <text x="1200.0" y="489.0" font-size="11" stroke="none" fill="#000" text-anchor="middle">▾</text>
  <line x1="232" y1="542" x2="1248" y2="542" stroke="#eee" stroke-width="1" />
  <text x="248" y="526" font-size="13" stroke="none" fill="#000" text-anchor="start" font-weight="bold">get_issue</text>
  <text x="592" y="526" font-size="12" stroke="none" fill="#666" text-anchor="start">read</text>
  <rect x="952" y="514" width="92" height="22" rx="11" fill="#fff" stroke="#000" stroke-width="1.2" />
  <text x="998.0" y="529.0" font-size="11" stroke="none" fill="#000" text-anchor="middle">Read</text>
  <text x="1068" y="526" font-size="12" stroke="none" fill="#000" text-anchor="start">Allowed</text>
  <rect x="1188" y="514" width="24" height="22" rx="11" fill="#fff" stroke="#000" stroke-width="1.2" />
  <text x="1200.0" y="529.0" font-size="11" stroke="none" fill="#000" text-anchor="middle">▾</text>
  <line x1="232" y1="582" x2="1248" y2="582" stroke="#eee" stroke-width="1" />
  <text x="248" y="566" font-size="13" stroke="none" fill="#000" text-anchor="start" font-weight="bold">search_issues</text>
  <text x="592" y="566" font-size="12" stroke="none" fill="#666" text-anchor="start">read</text>
  <rect x="952" y="554" width="92" height="22" rx="11" fill="#fff" stroke="#000" stroke-width="1.2" />
  <text x="998.0" y="569.0" font-size="11" stroke="none" fill="#000" text-anchor="middle">Read</text>
  <text x="1068" y="566" font-size="12" stroke="none" fill="#000" text-anchor="start">Allowed</text>
  <rect x="1188" y="554" width="24" height="22" rx="11" fill="#fff" stroke="#000" stroke-width="1.2" />
  <text x="1200.0" y="569.0" font-size="11" stroke="none" fill="#000" text-anchor="middle">▾</text>
  <line x1="232" y1="622" x2="1248" y2="622" stroke="#eee" stroke-width="1" />
  <text x="248" y="606" font-size="13" stroke="none" fill="#000" text-anchor="start" font-weight="bold">create_issue</text>
  <text x="592" y="606" font-size="12" stroke="none" fill="#666" text-anchor="start">write</text>
  <rect x="952" y="594" width="92" height="22" rx="11" fill="#000" stroke="#000" stroke-width="1.2" />
  <text x="998.0" y="609.0" font-size="11" stroke="none" fill="#fff" text-anchor="middle">Write</text>
  <text x="1068" y="606" font-size="12" stroke="none" fill="#000" text-anchor="start">Ask first</text>
  <rect x="1188" y="594" width="24" height="22" rx="11" fill="#fff" stroke="#000" stroke-width="1.2" />
  <text x="1200.0" y="609.0" font-size="11" stroke="none" fill="#000" text-anchor="middle">▾</text>
  <line x1="232" y1="662" x2="1248" y2="662" stroke="#eee" stroke-width="1" />
  <text x="248" y="646" font-size="13" stroke="none" fill="#000" text-anchor="start" font-weight="bold">update_issue</text>
  <text x="592" y="646" font-size="12" stroke="none" fill="#666" text-anchor="start">write</text>
  <rect x="952" y="634" width="92" height="22" rx="11" fill="#000" stroke="#000" stroke-width="1.2" />
  <text x="998.0" y="649.0" font-size="11" stroke="none" fill="#fff" text-anchor="middle">Write</text>
  <text x="1068" y="646" font-size="12" stroke="none" fill="#000" text-anchor="start">Ask first</text>
  <rect x="1188" y="634" width="24" height="22" rx="11" fill="#fff" stroke="#000" stroke-width="1.2" />
  <text x="1200.0" y="649.0" font-size="11" stroke="none" fill="#000" text-anchor="middle">▾</text>
  <line x1="232" y1="702" x2="1248" y2="702" stroke="#eee" stroke-width="1" />
  <text x="248" y="686" font-size="13" stroke="none" fill="#000" text-anchor="start" font-weight="bold">delete_issue</text>
  <text x="592" y="686" font-size="12" stroke="none" fill="#666" text-anchor="start">destructive</text>
  <rect x="952" y="674" width="92" height="22" rx="11" fill="#000" stroke="#000" stroke-width="1.2" />
  <text x="998.0" y="689.0" font-size="11" stroke="none" fill="#fff" text-anchor="middle">Destructive</text>
  <text x="1068" y="686" font-size="12" stroke="none" fill="#000" text-anchor="start">Off</text>
  <rect x="1188" y="674" width="24" height="22" rx="11" fill="#fff" stroke="#000" stroke-width="1.2" />
  <text x="1200.0" y="689.0" font-size="11" stroke="none" fill="#000" text-anchor="middle">▾</text>
  <line x1="232" y1="742" x2="1248" y2="742" stroke="#eee" stroke-width="1" />
  <text x="248" y="726" font-size="13" stroke="none" fill="#000" text-anchor="start" font-weight="bold">add_comment</text>
  <text x="592" y="726" font-size="12" stroke="none" fill="#666" text-anchor="start">write</text>
  <rect x="952" y="714" width="92" height="22" rx="11" fill="#fff" stroke="#000" stroke-width="1.2" />
  <text x="998.0" y="729.0" font-size="11" stroke="none" fill="#000" text-anchor="middle">Write</text>
  <text x="1068" y="726" font-size="12" stroke="none" fill="#000" text-anchor="start">Ask first</text>
  <rect x="1188" y="714" width="24" height="22" rx="11" fill="#fff" stroke="#000" stroke-width="1.2" />
  <text x="1200.0" y="729.0" font-size="11" stroke="none" fill="#000" text-anchor="middle">▾</text>
  <rect x="232" y="828" width="1016" height="44" rx="8" fill="#f4f4f1" stroke="#ccc" stroke-width="1" />
  <text x="248" y="856" font-size="12" stroke="none" fill="#666" text-anchor="start">4 more · Show all</text>
  <line x1="0" y1="880" x2="1280" y2="880" stroke="#e6e6e6" stroke-width="1" />
  <rect x="1074" y="900" width="174" height="34" rx="6" fill="#000" stroke="#000" stroke-width="1.5" />
  <text x="1161.0" y="922.0" font-size="13" stroke="none" fill="#fff" text-anchor="middle">Activate connection</text>
  <rect x="942" y="900" width="120" height="34" rx="6" fill="#fff" stroke="#000" stroke-width="1.5" />
  <text x="1002.0" y="922.0" font-size="13" stroke="none" fill="#000" text-anchor="middle">Back</text>
</svg>