<svg xmlns="http://www.w3.org/2000/svg" width="1280" height="880" viewBox="0 0 1280 880" font-family="-apple-system, system-ui, sans-serif" fill="#fff" stroke="#000" stroke-width="1.5">
  <rect x="0" y="0" width="1280" height="880" />
  <rect x="0" y="0" width="1280" height="56" rx="0" fill="#fff" stroke="#000" stroke-width="1.5" />
  <line x1="0" y1="56" x2="1280" y2="56" stroke="#000" stroke-width="1.5" />
  <text x="32" y="35" font-size="14" stroke="none" fill="#000" text-anchor="start" font-weight="bold">Paperclip</text>
  <text x="1248" y="35" font-size="12" stroke="none" fill="#666" text-anchor="end">Dotta</text>
  <rect x="0" y="56" width="200" height="824" rx="0" fill="#f4f4f1" stroke="#000" stroke-width="1.5" />
  <line x1="200" y1="56" x2="200" y2="880" stroke="#000" stroke-width="1.5" />
  <text x="28" y="96" font-size="14" stroke="none" fill="#666" text-anchor="start">Inbox</text>
  <text x="28" y="132" font-size="14" stroke="none" fill="#666" text-anchor="start">Tasks</text>
  <text x="28" y="168" font-size="14" stroke="none" fill="#666" text-anchor="start">Documents</text>
  <rect x="12" y="186" width="176" height="32" rx="6" fill="#fff" stroke="#000" stroke-width="1.5" />
  <text x="28" y="204" font-size="14" stroke="none" fill="#000" text-anchor="start" font-weight="bold">Apps</text>
  <text x="28" y="240" font-size="14" stroke="none" fill="#666" text-anchor="start">Settings</text>
  <text x="232" y="92" font-size="12" stroke="none" fill="#666" text-anchor="start">Apps · github · Catalog</text>
  <text x="232" y="124" font-size="26" stroke="none" fill="#000" text-anchor="start" font-weight="bold">New tools to review</text>
  <text x="232" y="150" font-size="13" stroke="none" fill="#666" text-anchor="start">github added 4 tools since your last review. Approve what your agents can use.</text>
  <rect x="232" y="200" width="1016" height="60" rx="10" fill="#f4f4f1" stroke="#ccc" stroke-width="1" />
  <text x="248" y="222" font-size="14" stroke="none" fill="#000" text-anchor="start" font-weight="bold">4 new tools · added Jun 16, 10:21 AM</text>
  <text x="248" y="240" font-size="12" stroke="none" fill="#666" text-anchor="start">Changes detected: schema hash differs from last activation.</text>
  <rect x="1076" y="216" width="156" height="26" rx="4" fill="#fff" stroke="#000" stroke-width="1.2" />
  <text x="1154.0" y="233.0" font-size="12" stroke="none" fill="#000" text-anchor="middle">Approve all (4)</text>
  <rect x="936" y="216" width="132" height="26" rx="4" fill="#fff" stroke="#000" stroke-width="1.2" />
  <text x="1002.0" y="233.0" font-size="12" stroke="none" fill="#000" text-anchor="middle">Mark as read</text>
  <text x="248" y="296" font-size="12" stroke="none" fill="#666" text-anchor="start" font-weight="bold">Tool</text>
  <text x="592" y="296" font-size="12" stroke="none" fill="#666" text-anchor="start" font-weight="bold">Schema</text>
  <text x="772" y="296" font-size="12" stroke="none" fill="#666" text-anchor="start" font-weight="bold">Detected risk</text>
  <text x="952" y="296" font-size="12" stroke="none" fill="#666" text-anchor="start" font-weight="bold">Status</text>
  <text x="1028" y="296" font-size="12" stroke="none" fill="#666" text-anchor="start" font-weight="bold">Default access</text>
  <line x1="232" y1="308" x2="1248" y2="308" stroke="#000" stroke-width="1.5" />
  <line x1="232" y1="370" x2="1248" y2="370" stroke="#eee" stroke-width="1" />
  <rect x="248" y="338" width="18" height="18" rx="3" fill="#fff" stroke="#000" stroke-width="1.2" />
  <path d="M 251 347 L 255 351 L 263 342" stroke="#000" stroke-width="2" fill="none" />
  <text x="288" y="350" font-size="13" stroke="none" fill="#000" text-anchor="start" font-weight="bold">create_branch</text>
  <text x="592" y="350" font-size="12" stroke="none" fill="#666" text-anchor="start">5 fields</text>
  <rect x="772" y="338" width="92" height="22" rx="11" fill="#000" stroke="#000" stroke-width="1.2" />
  <text x="818.0" y="353.0" font-size="11" stroke="none" fill="#fff" text-anchor="middle">Write</text>
  <rect x="952" y="338" width="110" height="22" rx="11" fill="#fff" stroke="#000" stroke-width="1.2" />
  <text x="1007.0" y="353.0" font-size="11" stroke="none" fill="#000" text-anchor="middle">Quarantined</text>
  <text x="1028" y="350" font-size="12" stroke="none" fill="#000" text-anchor="start">Off</text>
  <rect x="1188" y="338" width="24" height="22" rx="11" fill="#fff" stroke="#000" stroke-width="1.2" />
  <text x="1200.0" y="353.0" font-size="11" stroke="none" fill="#000" text-anchor="middle">▾</text>
  <line x1="232" y1="420" x2="1248" y2="420" stroke="#eee" stroke-width="1" />
  <rect x="248" y="388" width="18" height="18" rx="3" fill="#fff" stroke="#000" stroke-width="1.2" />
  <path d="M 251 397 L 255 401 L 263 392" stroke="#000" stroke-width="2" fill="none" />
  <text x="288" y="400" font-size="13" stroke="none" fill="#000" text-anchor="start" font-weight="bold">merge_pull_request</text>
  <text x="592" y="400" font-size="12" stroke="none" fill="#666" text-anchor="start">3 fields</text>
  <rect x="772" y="388" width="92" height="22" rx="11" fill="#000" stroke="#000" stroke-width="1.2" />
  <text x="818.0" y="403.0" font-size="11" stroke="none" fill="#fff" text-anchor="middle">Destructive</text>
  <rect x="952" y="388" width="110" height="22" rx="11" fill="#fff" stroke="#000" stroke-width="1.2" />
  <text x="1007.0" y="403.0" font-size="11" stroke="none" fill="#000" text-anchor="middle">Quarantined</text>
  <text x="1028" y="400" font-size="12" stroke="none" fill="#000" text-anchor="start">Off</text>
  <rect x="1188" y="388" width="24" height="22" rx="11" fill="#fff" stroke="#000" stroke-width="1.2" />
  <text x="1200.0" y="403.0" font-size="11" stroke="none" fill="#000" text-anchor="middle">▾</text>
  <line x1="232" y1="470" x2="1248" y2="470" stroke="#eee" stroke-width="1" />
  <rect x="248" y="438" width="18" height="18" rx="3" fill="#fff" stroke="#000" stroke-width="1.2" />
  <text x="288" y="450" font-size="13" stroke="none" fill="#000" text-anchor="start" font-weight="bold">add_label</text>
  <text x="592" y="450" font-size="12" stroke="none" fill="#666" text-anchor="start">2 fields</text>
  <rect x="772" y="438" width="92" height="22" rx="11" fill="#fff" stroke="#000" stroke-width="1.2" />
  <text x="818.0" y="453.0" font-size="11" stroke="none" fill="#000" text-anchor="middle">Write</text>
  <rect x="952" y="438" width="110" height="22" rx="11" fill="#fff" stroke="#000" stroke-width="1.2" />
  <text x="1007.0" y="453.0" font-size="11" stroke="none" fill="#000" text-anchor="middle">New</text>
  <text x="1028" y="450" font-size="12" stroke="none" fill="#000" text-anchor="start">Ask first</text>
  <rect x="1188" y="438" width="24" height="22" rx="11" fill="#fff" stroke="#000" stroke-width="1.2" />
  <text x="1200.0" y="453.0" font-size="11" stroke="none" fill="#000" text-anchor="middle">▾</text>
  <line x1="232" y1="520" x2="1248" y2="520" stroke="#eee" stroke-width="1" />
  <rect x="248" y="488" width="18" height="18" rx="3" fill="#fff" stroke="#000" stroke-width="1.2" />
  <text x="288" y="500" font-size="13" stroke="none" fill="#000" text-anchor="start" font-weight="bold">list_releases</text>
  <text x="592" y="500" font-size="12" stroke="none" fill="#666" text-anchor="start">0 fields</text>
  <rect x="772" y="488" width="92" height="22" rx="11" fill="#fff" stroke="#000" stroke-width="1.2" />
  <text x="818.0" y="503.0" font-size="11" stroke="none" fill="#000" text-anchor="middle">Read</text>
  <rect x="952" y="488" width="110" height="22" rx="11" fill="#fff" stroke="#000" stroke-width="1.2" />
  <text x="1007.0" y="503.0" font-size="11" stroke="none" fill="#000" text-anchor="middle">New</text>
  <text x="1028" y="500" font-size="12" stroke="none" fill="#000" text-anchor="start">Allowed</text>
  <rect x="1188" y="488" width="24" height="22" rx="11" fill="#fff" stroke="#000" stroke-width="1.2" />
  <text x="1200.0" y="503.0" font-size="11" stroke="none" fill="#000" text-anchor="middle">▾</text>
  <text x="232" y="780" font-size="12" stroke="none" fill="#666" text-anchor="start" font-weight="bold">Tip: </text>
  <text x="262" y="780" font-size="12" stroke="none" fill="#666" text-anchor="start">Quarantined tools cannot run until you decide. They are not exposed to agents in the meantime.</text>
  <line x1="0" y1="800" x2="1280" y2="800" stroke="#e6e6e6" stroke-width="1" />
  <rect x="1074" y="820" width="174" height="34" rx="6" fill="#000" stroke="#000" stroke-width="1.5" />
  <text x="1161.0" y="842.0" font-size="13" stroke="none" fill="#fff" text-anchor="middle">Approve selected</text>
  <rect x="942" y="820" width="120" height="34" rx="6" fill="#fff" stroke="#000" stroke-width="1.5" />
  <text x="1002.0" y="842.0" font-size="13" stroke="none" fill="#000" text-anchor="middle">Cancel</text>
</svg>