<svg xmlns="http://www.w3.org/2000/svg" width="1280" height="880" viewBox="0 0 1280 880" font-family="-apple-system, system-ui, sans-serif" fill="#fff" stroke="#000" stroke-width="1.5">
  <rect x="0" y="0" width="1280" height="880" />
  <rect x="0" y="0" width="1280" height="56" rx="0" fill="#fff" stroke="#000" stroke-width="1.5" />
  <line x1="0" y1="56" x2="1280" y2="56" stroke="#000" stroke-width="1.5" />
  <text x="32" y="35" font-size="14" stroke="none" fill="#000" text-anchor="start" font-weight="bold">Paperclip</text>
  <text x="1248" y="35" font-size="12" stroke="none" fill="#666" text-anchor="end">Dotta</text>
  <rect x="0" y="56" width="200" height="824" rx="0" fill="#f4f4f1" stroke="#000" stroke-width="1.5" />
  <line x1="200" y1="56" x2="200" y2="880" stroke="#000" stroke-width="1.5" />
  <text x="28" y="96" font-size="14" stroke="none" fill="#666" text-anchor="start">Inbox</text>
  <text x="28" y="132" font-size="14" stroke="none" fill="#666" text-anchor="start">Tasks</text>
  <text x="28" y="168" font-size="14" stroke="none" fill="#666" text-anchor="start">Documents</text>
  <rect x="12" y="186" width="176" height="32" rx="6" fill="#fff" stroke="#000" stroke-width="1.5" />
  <text x="28" y="204" font-size="14" stroke="none" fill="#000" text-anchor="start" font-weight="bold">Apps</text>
  <text x="28" y="240" font-size="14" stroke="none" fill="#666" text-anchor="start">Settings</text>
  <text x="232" y="92" font-size="12" stroke="none" fill="#666" text-anchor="start">Apps</text>
  <text x="232" y="124" font-size="26" stroke="none" fill="#000" text-anchor="start" font-weight="bold">Apps</text>
  <text x="232" y="150" font-size="13" stroke="none" fill="#666" text-anchor="start">A gateway is one safe MCP endpoint that exposes only the apps you assign. Hand it to a client like Cursor or Claude Desktop.</text>
  <text x="278.25" y="192" font-size="14" stroke="none" fill="#666" text-anchor="middle">Connected</text>
  <text x="386.25" y="192" font-size="14" stroke="none" fill="#666" text-anchor="middle">Gallery</text>
  <line x1="448.0" y1="208" x2="532.0" y2="208" stroke="#000" stroke-width="2.5" />
  <text x="490.0" y="192" font-size="14" stroke="none" fill="#000" text-anchor="middle" font-weight="bold">Gateways</text>
  <text x="598.0" y="192" font-size="14" stroke="none" fill="#666" text-anchor="middle">Activity</text>
  <line x1="232" y1="208" x2="1248" y2="208" stroke="#ccc" stroke-width="1" />
  <rect x="1088" y="226" width="160" height="34" rx="6" fill="#000" stroke="#000" stroke-width="1.5" />
  <text x="1168.0" y="248.0" font-size="13" stroke="none" fill="#fff" text-anchor="middle">+ New gateway</text>
  <rect x="952" y="226" width="124" height="34" rx="6" fill="#fff" stroke="#000" stroke-width="1.5" />
  <text x="1014.0" y="248.0" font-size="13" stroke="none" fill="#000" text-anchor="middle">Test gateway</text>
  <rect x="232" y="230" width="320" height="32" rx="6" fill="#f4f4f1" stroke="#ccc" stroke-width="1" />
  <text x="248" y="252" font-size="12" stroke="none" fill="#666" text-anchor="start">⌕  Search by name, app, or owner</text>
  <text x="248" y="304" font-size="12" stroke="none" fill="#666" text-anchor="start" font-weight="bold">Gateway</text>
  <text x="592" y="304" font-size="12" stroke="none" fill="#666" text-anchor="start" font-weight="bold">Scope</text>
  <text x="792" y="304" font-size="12" stroke="none" fill="#666" text-anchor="start" font-weight="bold">Apps</text>
  <text x="952" y="304" font-size="12" stroke="none" fill="#666" text-anchor="start" font-weight="bold">Tokens</text>
  <text x="1072" y="304" font-size="12" stroke="none" fill="#666" text-anchor="start" font-weight="bold">Last used</text>
  <text x="1168" y="304" font-size="12" stroke="none" fill="#666" text-anchor="start" font-weight="bold">On</text>
  <line x1="232" y1="316" x2="1248" y2="316" stroke="#000" stroke-width="1.5" />
  <line x1="232" y1="396" x2="1248" y2="396" stroke="#eee" stroke-width="1" />
  <text x="248" y="356" font-size="14" stroke="none" fill="#000" text-anchor="start" font-weight="bold">CTO agents</text>
  <text x="248" y="376" font-size="12" stroke="none" fill="#666" text-anchor="start">mcp.paperclip.dev/g/cto-agents</text>
  <text x="592" y="364" font-size="13" stroke="none" fill="#000" text-anchor="start">Company · CTO agents</text>
  <text x="792" y="364" font-size="13" stroke="none" fill="#000" text-anchor="start">6 apps · 23 tools</text>
  <text x="952" y="364" font-size="13" stroke="none" fill="#000" text-anchor="start">2 active · 1 expiring</text>
  <text x="1072" y="364" font-size="13" stroke="none" fill="#666" text-anchor="start">12s ago</text>
  <rect x="1168" y="356" width="36" height="18" rx="9" fill="#000" stroke="#000" stroke-width="1.5" />
  <circle cx="1195" cy="365" r="5.5" fill="#fff" stroke="none" />
  <line x1="232" y1="460" x2="1248" y2="460" stroke="#eee" stroke-width="1" />
  <text x="248" y="420" font-size="14" stroke="none" fill="#000" text-anchor="start" font-weight="bold">Customer triage</text>
  <text x="248" y="440" font-size="12" stroke="none" fill="#666" text-anchor="start">mcp.paperclip.dev/g/triage</text>
  <text x="592" y="428" font-size="13" stroke="none" fill="#000" text-anchor="start">Project · Support</text>
  <text x="792" y="428" font-size="13" stroke="none" fill="#000" text-anchor="start">3 apps · 9 tools</text>
  <text x="952" y="428" font-size="13" stroke="none" fill="#000" text-anchor="start">1 active</text>
  <text x="1072" y="428" font-size="13" stroke="none" fill="#666" text-anchor="start">4h ago</text>
  <rect x="1168" y="420" width="36" height="18" rx="9" fill="#000" stroke="#000" stroke-width="1.5" />
  <circle cx="1195" cy="429" r="5.5" fill="#fff" stroke="none" />
  <line x1="232" y1="524" x2="1248" y2="524" stroke="#eee" stroke-width="1" />
  <text x="248" y="484" font-size="14" stroke="none" fill="#000" text-anchor="start" font-weight="bold">External · client-x sandbox</text>
  <text x="248" y="504" font-size="12" stroke="none" fill="#666" text-anchor="start">mcp.paperclip.dev/g/client-x</text>
  <text x="592" y="492" font-size="13" stroke="none" fill="#000" text-anchor="start">External · scoped</text>
  <text x="792" y="492" font-size="13" stroke="none" fill="#000" text-anchor="start">2 apps · 4 tools</text>
  <text x="952" y="492" font-size="13" stroke="none" fill="#000" text-anchor="start">1 active · 1 revoked</text>
  <text x="1072" y="492" font-size="13" stroke="none" fill="#666" text-anchor="start">2d ago</text>
  <rect x="1168" y="484" width="36" height="18" rx="9" fill="#fff" stroke="#000" stroke-width="1.5" />
  <circle cx="1177" cy="493" r="5.5" fill="#000" stroke="none" />
  <rect x="232" y="620" width="1016" height="76" rx="10" fill="#f4f4f1" stroke="#ccc" stroke-width="1" />
  <text x="252" y="648" font-size="14" stroke="none" fill="#000" text-anchor="start" font-weight="bold">Why a gateway?</text>
  <text x="252" y="670" font-size="12" stroke="none" fill="#666" text-anchor="start">You pick which apps go through it, who can use it, and how. Revoke the token, the whole gateway goes silent — no app-by-app cleanup.</text>
</svg>