<svg xmlns="http://www.w3.org/2000/svg" width="1280" height="800" viewBox="0 0 1280 800" font-family="-apple-system, BlinkMacSystemFont, 'Segoe UI', system-ui, sans-serif" fill="#fff" stroke="#000" stroke-width="1.5"><rect width="1280" height="800"/><g data-region="global-navigation"><text x="24" y="38" font-size="20" fill="#000" stroke="none" font-weight="700">Paperclip</text><circle cx="32" cy="68" r="6" fill="#e6e6e6"/><text x="52" y="73" font-size="14" fill="#666" stroke="none" >New Task</text>
<circle cx="32" cy="114" r="6" fill="#e6e6e6"/><text x="52" y="119" font-size="14" fill="#666" stroke="none" >Search</text>
<circle cx="32" cy="160" r="6" fill="#e6e6e6"/><text x="52" y="165" font-size="14" fill="#666" stroke="none" >Dashboard</text>
<circle cx="32" cy="206" r="6" fill="#e6e6e6"/><text x="52" y="211" font-size="14" fill="#666" stroke="none" >Inbox</text>
<circle cx="32" cy="252" r="6" fill="#e6e6e6"/><text x="52" y="257" font-size="14" fill="#666" stroke="none" >Tasks</text>
<circle cx="32" cy="298" r="6" fill="#e6e6e6"/><text x="52" y="303" font-size="14" fill="#666" stroke="none" >Projects</text>
<circle cx="32" cy="344" r="6" fill="#e6e6e6"/><text x="52" y="349" font-size="14" fill="#666" stroke="none" >Routines</text>
<circle cx="32" cy="390" r="6" fill="#e6e6e6"/><text x="52" y="395" font-size="14" fill="#666" stroke="none" >Artifacts</text>
<circle cx="32" cy="436" r="6" fill="#e6e6e6"/><text x="52" y="441" font-size="14" fill="#666" stroke="none" >Agents</text>
<circle cx="32" cy="482" r="6" fill="#e6e6e6"/><text x="52" y="487" font-size="14" fill="#666" stroke="none" >Skills</text>
<rect x="12" y="510" width="216" height="38" rx="6" fill="#e6e6e6"/><circle cx="32" cy="528" r="6" fill="#e6e6e6"/><text x="52" y="533" font-size="14" fill="#000" stroke="none" font-weight="600">Connectors</text>
<circle cx="32" cy="574" r="6" fill="#e6e6e6"/><text x="52" y="579" font-size="14" fill="#666" stroke="none" >Audit</text><text x="24" y="744" font-size="14" fill="#000" stroke="none" font-weight="600">Acme Company</text><text x="24" y="772" font-size="12" fill="#666" stroke="none" >Dana · Admin</text><line x1="240" y1="0" x2="240" y2="800" /></g><g data-region="topbar"><line x1="240" y1="60" x2="1280" y2="60" /><text x="264" y="36" font-size="14" fill="#666" stroke="none" >CONNECTORS  ›  Maya on Slack  ›  Access</text><circle cx="1240" cy="30" r="16" fill="#e6e6e6"/></g><g data-region="connector-navigation"><text x="264" y="94" font-size="12" fill="#666" stroke="none" >‹  All connectors</text><circle cx="280" cy="132" r="18" fill="#e6e6e6"/><text x="308" y="138" font-size="14" fill="#000" stroke="none" font-weight="700">Maya on Slack</text><text x="280" y="194" font-size="14" fill="#666" stroke="none" >Overview</text>
<text x="280" y="242" font-size="14" fill="#666" stroke="none" >Channels</text>
<rect x="252" y="264" width="216" height="40" rx="6" fill="#e6e6e6"/><text x="280" y="290" font-size="14" fill="#000" stroke="none" font-weight="600">Access</text>
<text x="280" y="338" font-size="14" fill="#666" stroke="none" >Behavior</text>
<text x="280" y="386" font-size="14" fill="#666" stroke="none" >Conversations</text>
<text x="280" y="434" font-size="14" fill="#666" stroke="none" >Activity</text><line x1="480" y1="60" x2="480" y2="800" /></g><g data-region="page-header"><text x="504" y="112" font-size="28" fill="#000" stroke="none" font-weight="700">Access</text><text x="504" y="140" font-size="14" fill="#666" stroke="none" >Control who people act as in Paperclip.</text></g><rect x="504" y="176" width="720" height="96" rx="6" fill="#e6e6e6"/><text x="528" y="208" font-size="12" fill="#666" stroke="none" font-weight="600">Endpoint sponsor</text><text x="528" y="238" font-size="14" fill="#000" stroke="none" font-weight="700">Dana · Company admin</text><text x="840" y="238" font-size="12" fill="#666" stroke="none" >Caps authority for unlinked people</text><rect x="1080" y="200" width="120" height="48" rx="6" fill="#fff"/><text x="1140" y="230" font-size="14" fill="#000" stroke="none" text-anchor="middle" font-weight="600">Change</text><text x="504" y="320" font-size="20" fill="#000" stroke="none" font-weight="600">People</text><rect x="504" y="344" width="720" height="168" rx="6" /><text x="528" y="378" font-size="12" fill="#666" stroke="none" font-weight="600">Slack identity</text><text x="840" y="378" font-size="12" fill="#666" stroke="none" font-weight="600">Paperclip identity</text><line x1="520" y1="392" x2="1208" y2="392" stroke="#e6e6e6"/><text x="528" y="428" font-size="14" fill="#000" stroke="none" font-weight="600">Ari S.</text><text x="840" y="428" font-size="14" fill="#000" stroke="none" >Ari Stone · Linked</text><text x="1176" y="428" font-size="12" fill="#666" stroke="none" text-anchor="end">Revoke</text><line x1="520" y1="448" x2="1208" y2="448" stroke="#e6e6e6"/><text x="528" y="484" font-size="14" fill="#000" stroke="none" font-weight="600">Jules P.</text><text x="840" y="484" font-size="14" fill="#666" stroke="none" >Restricted guest</text><text x="1176" y="484" font-size="12" fill="#000" stroke="none" text-anchor="end" font-weight="600">Link</text><rect x="504" y="544" width="720" height="120" rx="6" /><text x="528" y="578" font-size="14" fill="#000" stroke="none" font-weight="700">Restricted guest</text><text x="528" y="608" font-size="12" fill="#666" stroke="none" >Can message this task and attach safe files in allowed channels.</text><text x="528" y="636" font-size="12" fill="#666" stroke="none" >Cannot approve, change budgets, hire, manage access, or reassign agents.</text><g data-region="annotations"><rect x="496" y="168" width="728" height="112" rx="6" fill="none" stroke="#d33" stroke-dasharray="6 4"/><circle cx="496" cy="168" r="12" fill="#fff" stroke="#d33" stroke-dasharray="4 2"/><text x="496" y="172" font-size="12" fill="#d33" stroke="none" text-anchor="middle" font-weight="700">1</text>
<rect x="496" y="336" width="728" height="184" rx="6" fill="none" stroke="#d33" stroke-dasharray="6 4"/><circle cx="496" cy="336" r="12" fill="#fff" stroke="#d33" stroke-dasharray="4 2"/><text x="496" y="340" font-size="12" fill="#d33" stroke="none" text-anchor="middle" font-weight="700">2</text>
<rect x="824" y="392" width="384" height="120" rx="6" fill="none" stroke="#d33" stroke-dasharray="6 4"/><circle cx="824" cy="392" r="12" fill="#fff" stroke="#d33" stroke-dasharray="4 2"/><text x="824" y="396" font-size="12" fill="#d33" stroke="none" text-anchor="middle" font-weight="700">3</text>
<rect x="496" y="536" width="728" height="136" rx="6" fill="none" stroke="#d33" stroke-dasharray="6 4"/><circle cx="496" cy="536" r="12" fill="#fff" stroke="#d33" stroke-dasharray="4 2"/><text x="496" y="540" font-size="12" fill="#d33" stroke="none" text-anchor="middle" font-weight="700">4</text></g></svg>
