<svg xmlns="http://www.w3.org/2000/svg" width="1280" height="1160" viewBox="0 0 1280 1160" font-family="-apple-system, BlinkMacSystemFont, 'Segoe UI', system-ui, sans-serif" fill="#fff" stroke="#000" stroke-width="1.5"><rect width="1280" height="1160"/><g><text x="24" y="38" font-size="20" fill="#000" stroke="none" font-weight="700">Paperclip</text><circle cx="32" cy="68" r="6" fill="#e6e6e6"/><text x="52" y="73" font-size="14" fill="#666" stroke="none" >New Task</text>
<circle cx="32" cy="114" r="6" fill="#e6e6e6"/><text x="52" y="119" font-size="14" fill="#666" stroke="none" >Search</text>
<circle cx="32" cy="160" r="6" fill="#e6e6e6"/><text x="52" y="165" font-size="14" fill="#666" stroke="none" >Dashboard</text>
<circle cx="32" cy="206" r="6" fill="#e6e6e6"/><text x="52" y="211" font-size="14" fill="#666" stroke="none" >Inbox</text>
<circle cx="32" cy="252" r="6" fill="#e6e6e6"/><text x="52" y="257" font-size="14" fill="#666" stroke="none" >Tasks</text>
<circle cx="32" cy="298" r="6" fill="#e6e6e6"/><text x="52" y="303" font-size="14" fill="#666" stroke="none" >Projects</text>
<circle cx="32" cy="344" r="6" fill="#e6e6e6"/><text x="52" y="349" font-size="14" fill="#666" stroke="none" >Routines</text>
<circle cx="32" cy="390" r="6" fill="#e6e6e6"/><text x="52" y="395" font-size="14" fill="#666" stroke="none" >Artifacts</text>
<circle cx="32" cy="436" r="6" fill="#e6e6e6"/><text x="52" y="441" font-size="14" fill="#666" stroke="none" >Agents</text>
<circle cx="32" cy="482" r="6" fill="#e6e6e6"/><text x="52" y="487" font-size="14" fill="#666" stroke="none" >Skills</text>
<rect x="12" y="510" width="216" height="38" rx="6" fill="#e6e6e6"/><circle cx="32" cy="528" r="6" fill="#e6e6e6"/><text x="52" y="533" font-size="14" fill="#000" stroke="none" font-weight="600">Connectors</text>
<circle cx="32" cy="574" r="6" fill="#e6e6e6"/><text x="52" y="579" font-size="14" fill="#666" stroke="none" >Audit</text><text x="24" y="1104" font-size="14" fill="#000" stroke="none" font-weight="600">Acme Company</text><text x="24" y="1132" font-size="12" fill="#666" stroke="none" >Dana · Admin</text><line x1="240" y1="0" x2="240" y2="1160" /></g><g><line x1="240" y1="60" x2="1280" y2="60" /><text x="264" y="36" font-size="14" fill="#666" stroke="none" >CONNECTORS  ›  Maya on Slack  ›  Conversations</text><circle cx="1240" cy="30" r="16" fill="#e6e6e6"/></g><g><text x="264" y="94" font-size="12" fill="#666" stroke="none" >‹  All connectors</text><circle cx="280" cy="132" r="18" fill="#e6e6e6"/><text x="308" y="138" font-size="14" fill="#000" stroke="none" font-weight="700">Maya on Slack</text><text x="280" y="194" font-size="14" fill="#666" stroke="none" >Overview</text>
<text x="280" y="242" font-size="14" fill="#666" stroke="none" >Settings</text>
<text x="280" y="290" font-size="14" fill="#666" stroke="none" >Access</text>
<rect x="252" y="312" width="216" height="40" rx="6" fill="#e6e6e6"/><text x="280" y="338" font-size="14" fill="#000" stroke="none" font-weight="600">Conversations</text>
<text x="280" y="386" font-size="14" fill="#666" stroke="none" >Activity</text><line x1="480" y1="60" x2="480" y2="1160" /></g><text x="504" y="108" font-size="28" fill="#000" stroke="none" font-weight="700">Slack conversations</text><text x="504" y="138" font-size="14" fill="#666" stroke="none" >Inspect native conversation-to-Paperclip issue bindings.</text>
    <text x="504" y="206" font-size="20" fill="#000" stroke="none" font-weight="700">Conversation boundary</text><text x="504" y="234" font-size="14" fill="#666" stroke="none" >Channel root and replies share thread_ts. A stable DM conversation uses the active-task</text>
<text x="504" y="254" font-size="14" fill="#666" stroke="none" >lifecycle.</text><line x1="504" y1="278" x2="1224" y2="278" />
    <text x="504" y="310" font-size="20" fill="#000" stroke="none" font-weight="700">Live bindings</text><text x="520" y="346" font-size="14" fill="#000" stroke="none" font-weight="700">#customer-support · thread 172546.002</text><text x="520" y="372" font-size="14" fill="#000" stroke="none" >PAP-1842 · Refund timeout</text><text x="520" y="398" font-size="12" fill="#666" stroke="none" >Ari + 2 · Working · 18s</text><rect x="1048" y="342" width="160" height="48" rx="6" fill="#fff"/><text x="1128" y="372" font-size="14" fill="#000" stroke="none" text-anchor="middle" font-weight="600">Open Slack</text>
<line x1="520" y1="430" x2="1208" y2="430" stroke="#e6e6e6"/><text x="520" y="458" font-size="14" fill="#000" stroke="none" font-weight="700">#incidents · thread 172511.119</text><text x="520" y="484" font-size="14" fill="#000" stroke="none" >PAP-1838 · Queue delay</text><text x="520" y="510" font-size="12" fill="#666" stroke="none" >Sam + 4 · Waiting · 12m</text><rect x="1048" y="454" width="160" height="48" rx="6" fill="#fff"/><text x="1128" y="484" font-size="14" fill="#000" stroke="none" text-anchor="middle" font-weight="600">Open Slack</text>
<line x1="520" y1="542" x2="1208" y2="542" stroke="#e6e6e6"/><text x="520" y="570" font-size="14" fill="#000" stroke="none" font-weight="700">DM · D081MAYA</text><text x="520" y="596" font-size="14" fill="#000" stroke="none" >PAP-1831 · Customer export</text><text x="520" y="622" font-size="12" fill="#666" stroke="none" >Ari · Done · 2h</text><rect x="1048" y="566" width="160" height="48" rx="6" fill="#fff"/><text x="1128" y="596" font-size="14" fill="#000" stroke="none" text-anchor="middle" font-weight="600">Open Slack</text>
    <text x="504" y="704" font-size="20" fill="#000" stroke="none" font-weight="700">Binding actions</text><text x="504" y="734" font-size="14" fill="#666" stroke="none" >Open either side at any time. Detach only after explicit confirmation.</text><line x1="504" y1="760" x2="1224" y2="760" />
    <text x="520" y="804" font-size="14" fill="#000" stroke="none" font-weight="700">Selected binding</text><text x="520" y="832" font-size="12" fill="#666" stroke="none" >#customer-support · thread 172546.002</text><rect x="520" y="864" width="176" height="48" rx="6" fill="#fff"/><text x="608" y="894" font-size="14" fill="#000" stroke="none" text-anchor="middle" font-weight="600">Open provider</text><rect x="712" y="864" width="176" height="48" rx="6" fill="#fff"/><text x="800" y="894" font-size="14" fill="#000" stroke="none" text-anchor="middle" font-weight="600">Open task</text><rect x="1032" y="864" width="176" height="48" rx="6" fill="#fff"/><text x="1120" y="894" font-size="14" fill="#000" stroke="none" text-anchor="middle" font-weight="600">Detach</text>
    <text x="504" y="984" font-size="20" fill="#000" stroke="none" font-weight="700">Detached conversations</text><text x="504" y="1014" font-size="14" fill="#666" stroke="none" >History and message links remain auditable. A later valid activation creates or claims a new binding.</text>
    <g data-region="annotations"><rect x="496" y="190" width="736" height="96" rx="6" fill="none" stroke="#d33" stroke-dasharray="6 4"/><circle cx="496" cy="190" r="12" fill="#fff" stroke="#d33" stroke-dasharray="4 2"/><text x="496" y="194" font-size="12" fill="#d33" stroke="none" text-anchor="middle" font-weight="700">1</text>
<rect x="496" y="294" width="736" height="362" rx="6" fill="none" stroke="#d33" stroke-dasharray="6 4"/><circle cx="496" cy="294" r="12" fill="#fff" stroke="#d33" stroke-dasharray="4 2"/><text x="496" y="298" font-size="12" fill="#d33" stroke="none" text-anchor="middle" font-weight="700">2</text>
<rect x="496" y="688" width="736" height="224" rx="6" fill="none" stroke="#d33" stroke-dasharray="6 4"/><circle cx="496" cy="688" r="12" fill="#fff" stroke="#d33" stroke-dasharray="4 2"/><text x="496" y="692" font-size="12" fill="#d33" stroke="none" text-anchor="middle" font-weight="700">3</text>
<rect x="496" y="968" width="736" height="72" rx="6" fill="none" stroke="#d33" stroke-dasharray="6 4"/><circle cx="496" cy="968" r="12" fill="#fff" stroke="#d33" stroke-dasharray="4 2"/><text x="496" y="972" font-size="12" fill="#d33" stroke="none" text-anchor="middle" font-weight="700">4</text></g></svg>
