<svg width="160" height="94" viewBox="0 0 160 94" fill="none" xmlns="http://www.w3.org/2000/svg">
<path d="M64.8858 43.5127L64.8858 64.8845" stroke="black" stroke-width="1.45012" stroke-linecap="round"></path>
<path d="M65.0453 64.7304C69.6398 64.7304 74.2377 64.7835 78.8315 64.707C82.5416 64.6451 86.577 64.8508 89.4291 62.1045C94.7643 56.9668 96.9673 50.7468 93.9072 43.6994C90.102 34.936 82.4777 33.5344 73.7437 32.8908C59.0071 31.805 45.8065 40.8373 34.6594 49.5374" stroke="black" stroke-width="1.45012" stroke-linecap="round"></path>
<path d="M75.8584 53.3311C75.8584 66.4249 75.8584 79.5125 75.8584 92.609" stroke="black" stroke-width="1.45012" stroke-linecap="round"></path>
<path d="M74.331 41.9379C75.1064 41.9379 79.982 42.568 80.2159 41.2814C80.6014 39.1609 77.215 39.0305 76.0191 39.8278" stroke="black" stroke-width="1.45012" stroke-linecap="round"></path>
<path d="M82.2117 24.4485C77.5908 23.8709 73.1718 22.6846 67.7713 23.8709C66.0693 24.2448 65.245 24.4456 63.4972 25.1528C59.7034 26.6877 56.229 29.4304 56.229 32.7024C56.229 37.9892 64.2576 40.5933 68.1864 42.0338C75.8477 44.843 84.9152 48.3559 89.7097 55.4215C91.932 58.6963 91.8582 62.1805 89.7097 65.4593C86.255 70.7316 81.1285 72.3908 75.5015 73.0762C71.66 73.4074 68.9622 73.0555 65.8887 70.7316C63.3185 68.7884 60.7977 65.9071 59.7458 62.8069C58.0775 57.8897 63.8252 57.133 67.3423 57.133C69.6404 57.133 74.1251 58.8211 74.1251 58.8211L81.1285 62.2208C81.1285 62.2208 85.9234 64.4396 88.2767 65.8415C89.0528 66.3038 90.6603 67.2858 91.6323 66.7458C93.5555 65.6774 94.2468 60.7797 95.0085 58.8211C95.1384 58.4871 95.7491 56.0236 96.2746 56.0545C96.7887 56.0847 96.8755 58.7157 96.978 59.079C97.873 62.2525 100.489 65.0806 103.965 65.1515C106.433 65.2019 106.863 63.6152 108.091 61.8691C109.075 60.4706 110.853 61.2263 112.124 61.6815C115.073 62.7377 114.051 59.9222 113.906 57.555C113.13 44.878 113.156 43.2399 113.156 30.5239C113.156 23.1257 113.262 15.7169 113.062 8.32065C113.018 6.71444 112.929 4.38109 112.734 2.69363C112.656 2.02579 112.708 0.437515 112.124 0.771068C111.267 1.2607 112.371 5.12163 112.499 5.69471C113.737 11.2107 114.887 16.7747 116.297 22.2475C119.667 35.3203 119.027 36.4847 123.237 49.2552C124.316 52.5269 125.697 55.5914 125.793 59.0556C125.85 61.1165 126.142 60.9637 123.214 61.4471C110.865 63.4858 104.959 65.792 92.9687 69.4656C72.9982 75.5842 57.2434 82.2067 37.4464 88.8528" stroke="black" stroke-width="1.45012" stroke-linecap="round"></path>
</svg>