<svg xmlns="http://www.w3.org/2000/svg" width="1280" height="980" viewBox="0 0 1280 980" font-family="-apple-system, system-ui, sans-serif" fill="#fff" stroke="#000" stroke-width="1.5">
  <rect x="0" y="0" width="1280" height="980" />
  <rect x="0" y="0" width="1280" height="56" rx="0" fill="#fff" stroke="#000" stroke-width="1.5" />
  <line x1="0" y1="56" x2="1280" y2="56" stroke="#000" stroke-width="1.5" />
  <text x="32" y="35" font-size="14" stroke="none" fill="#000" text-anchor="start" font-weight="bold">Paperclip</text>
  <text x="1248" y="35" font-size="12" stroke="none" fill="#666" text-anchor="end">Dotta</text>
  <rect x="0" y="56" width="200" height="924" rx="0" fill="#fafaf8" stroke="#000" stroke-width="1.5" />
  <line x1="200" y1="56" x2="200" y2="980" stroke="#000" stroke-width="1.5" />
  <text x="28" y="96" font-size="14" stroke="none" fill="#666" text-anchor="start">Inbox</text>
  <text x="28" y="132" font-size="14" stroke="none" fill="#666" text-anchor="start">Tasks</text>
  <text x="28" y="168" font-size="14" stroke="none" fill="#666" text-anchor="start">Documents</text>
  <rect x="12" y="186" width="176" height="32" rx="6" fill="#fff" stroke="#000" stroke-width="1.5" />
  <text x="28" y="204" font-size="14" stroke="none" fill="#000" text-anchor="start" font-weight="bold">Apps</text>
  <text x="28" y="240" font-size="14" stroke="none" fill="#666" text-anchor="start">Settings</text>
  <text x="232" y="92" font-size="12" stroke="none" fill="#666" text-anchor="start">Apps · Advanced</text>
  <text x="232" y="124" font-size="28" stroke="none" fill="#000" text-anchor="start" font-weight="bold">Activity</text>
  <text x="232" y="148" font-size="14" stroke="none" fill="#666" text-anchor="start">What agents actually did with your apps</text>
  <text x="262.5" y="188" font-size="14" stroke="none" fill="#666" text-anchor="middle">Rules</text>
  <text x="352.0" y="188" font-size="14" stroke="none" fill="#666" text-anchor="middle">Health</text>
  <line x1="411" y1="204" x2="499" y2="204" stroke="#000" stroke-width="2.5" />
  <text x="455.0" y="188" font-size="14" stroke="none" fill="#000" text-anchor="middle" font-weight="bold">Activity</text>
  <line x1="232" y1="204" x2="1248" y2="204" stroke="#ccc" stroke-width="1" />
  <rect x="232" y="224" width="320" height="36" rx="18" fill="#fff" stroke="#000" stroke-width="1.5" />
  <text x="252" y="247" font-size="13" stroke="none" fill="#666" text-anchor="start">🔍   Search</text>
  <rect x="568" y="224" width="106" height="36" rx="18" fill="#fff" stroke="#000" stroke-width="1.5" />
  <text x="582" y="247" font-size="12" stroke="none" fill="#666" text-anchor="start">App: </text>
  <text x="615" y="247" font-size="12" stroke="none" fill="#000" text-anchor="start" font-weight="bold">Gmail</text>
  <text x="658" y="247" font-size="11" stroke="none" fill="#666" text-anchor="start">▾</text>
  <rect x="682" y="224" width="106" height="36" rx="18" fill="#fff" stroke="#000" stroke-width="1.5" />
  <text x="696" y="247" font-size="12" stroke="none" fill="#666" text-anchor="start">Agent: </text>
  <text x="743" y="247" font-size="12" stroke="none" fill="#000" text-anchor="start" font-weight="bold">All</text>
  <text x="772" y="247" font-size="11" stroke="none" fill="#666" text-anchor="start">▾</text>
  <rect x="796" y="224" width="120" height="36" rx="18" fill="#fff" stroke="#000" stroke-width="1.5" />
  <text x="810" y="247" font-size="12" stroke="none" fill="#666" text-anchor="start">Outcome: </text>
  <text x="871" y="247" font-size="12" stroke="none" fill="#000" text-anchor="start" font-weight="bold">All</text>
  <text x="900" y="247" font-size="11" stroke="none" fill="#666" text-anchor="start">▾</text>
  <rect x="924" y="224" width="134" height="36" rx="18" fill="#fff" stroke="#000" stroke-width="1.5" />
  <text x="938" y="247" font-size="12" stroke="none" fill="#666" text-anchor="start">Time: </text>
  <text x="978" y="247" font-size="12" stroke="none" fill="#000" text-anchor="start" font-weight="bold">24 hours</text>
  <text x="1042" y="247" font-size="11" stroke="none" fill="#666" text-anchor="start">▾</text>
  <text x="232" y="296" font-size="12" stroke="none" fill="#666" text-anchor="start">12 results in the last 24 hours</text>
  <rect x="232" y="320" width="1016" height="44" rx="0" fill="#fff" stroke="#000" stroke-width="1.5" />
  <text x="248" y="347" font-size="12" stroke="none" fill="#666" text-anchor="start">▸</text>
  <text x="268" y="347" font-size="13" stroke="none" fill="#000" xml:space="preserve"><tspan font-weight="bold">Fable</tspan> used <tspan font-weight="bold">Send email</tspan> in <tspan font-weight="bold">Gmail</tspan></text>
  <rect x="1028" y="332" width="65" height="24" rx="12" fill="#fff" stroke="#000" stroke-width="1.5" />
  <text x="1060.5" y="348.0" font-size="12" stroke="none" fill="#000" text-anchor="middle" font-weight="normal">Allowed</text>
  <text x="1240" y="347" font-size="12" stroke="none" fill="#666" text-anchor="end">5m ago</text>
  <rect x="232" y="364" width="1016" height="44" rx="0" fill="#fff" stroke="#000" stroke-width="1.5" />
  <text x="248" y="391" font-size="12" stroke="none" fill="#666" text-anchor="start">▸</text>
  <text x="268" y="391" font-size="13" stroke="none" fill="#000" xml:space="preserve"><tspan font-weight="bold">Codex</tspan> used <tspan font-weight="bold">Delete email</tspan> in <tspan font-weight="bold">Gmail</tspan></text>
  <rect x="1028" y="376" width="65" height="24" rx="12" fill="#fff" stroke="#000" stroke-width="1.5" />
  <text x="1060.5" y="392.0" font-size="12" stroke="none" fill="#000" text-anchor="middle" font-weight="normal">Blocked</text>
  <text x="1240" y="391" font-size="12" stroke="none" fill="#666" text-anchor="end">12m ago</text>
  <rect x="232" y="408" width="1016" height="44" rx="0" fill="#fff" stroke="#000" stroke-width="1.5" />
  <text x="248" y="435" font-size="12" stroke="none" fill="#666" text-anchor="start">▸</text>
  <text x="268" y="435" font-size="13" stroke="none" fill="#000" xml:space="preserve"><tspan font-weight="bold">Fable</tspan> used <tspan font-weight="bold">Search messages</tspan> in <tspan font-weight="bold">Gmail</tspan></text>
  <rect x="1028" y="420" width="65" height="24" rx="12" fill="#fff" stroke="#000" stroke-width="1.5" />
  <text x="1060.5" y="436.0" font-size="12" stroke="none" fill="#000" text-anchor="middle" font-weight="normal">Allowed</text>
  <text x="1240" y="435" font-size="12" stroke="none" fill="#666" text-anchor="end">18m ago</text>
  <rect x="232" y="452" width="1016" height="44" rx="0" fill="#fff" stroke="#000" stroke-width="1.5" />
  <text x="248" y="479" font-size="12" stroke="none" fill="#666" text-anchor="start">▸</text>
  <text x="268" y="479" font-size="13" stroke="none" fill="#000" xml:space="preserve"><tspan font-weight="bold">Claude</tspan> used <tspan font-weight="bold">Compose draft</tspan> in <tspan font-weight="bold">Gmail</tspan></text>
  <rect x="1028" y="464" width="93" height="24" rx="12" fill="#fff" stroke="#000" stroke-width="1.5" />
  <text x="1074.5" y="480.0" font-size="12" stroke="none" fill="#000" text-anchor="middle" font-weight="normal">Asked first</text>
  <text x="1240" y="479" font-size="12" stroke="none" fill="#666" text-anchor="end">32m ago</text>
  <rect x="232" y="496" width="1016" height="44" rx="0" fill="#fff" stroke="#000" stroke-width="1.5" />
  <text x="248" y="523" font-size="12" stroke="none" fill="#666" text-anchor="start">▸</text>
  <text x="268" y="523" font-size="13" stroke="none" fill="#000" xml:space="preserve"><tspan font-weight="bold">Codex</tspan> used <tspan font-weight="bold">Read folder</tspan> in <tspan font-weight="bold">Gmail</tspan></text>
  <rect x="1028" y="508" width="65" height="24" rx="12" fill="#fff" stroke="#000" stroke-width="1.5" />
  <text x="1060.5" y="524.0" font-size="12" stroke="none" fill="#000" text-anchor="middle" font-weight="normal">Allowed</text>
  <text x="1240" y="523" font-size="12" stroke="none" fill="#666" text-anchor="end">1h ago</text>
  <rect x="232" y="540" width="1016" height="44" rx="0" fill="#fff" stroke="#000" stroke-width="1.5" />
  <text x="248" y="567" font-size="12" stroke="none" fill="#666" text-anchor="start">▸</text>
  <text x="268" y="567" font-size="13" stroke="none" fill="#000" xml:space="preserve"><tspan font-weight="bold">Fable</tspan> used <tspan font-weight="bold">Send email</tspan> in <tspan font-weight="bold">Gmail</tspan></text>
  <rect x="1028" y="552" width="58" height="24" rx="12" fill="#fff" stroke="#000" stroke-width="1.5" />
  <text x="1057.0" y="568.0" font-size="12" stroke="none" fill="#000" text-anchor="middle" font-weight="normal">Failed</text>
  <text x="1240" y="567" font-size="12" stroke="none" fill="#666" text-anchor="end">1h ago</text>
  <rect x="232" y="584" width="1016" height="44" rx="0" fill="#fff" stroke="#000" stroke-width="1.5" />
  <text x="248" y="611" font-size="12" stroke="none" fill="#666" text-anchor="start">▸</text>
  <text x="268" y="611" font-size="13" stroke="none" fill="#000" xml:space="preserve"><tspan font-weight="bold">Codex</tspan> used <tspan font-weight="bold">Forward email</tspan> in <tspan font-weight="bold">Gmail</tspan></text>
  <rect x="1028" y="596" width="65" height="24" rx="12" fill="#fff" stroke="#000" stroke-width="1.5" />
  <text x="1060.5" y="612.0" font-size="12" stroke="none" fill="#000" text-anchor="middle" font-weight="normal">Waiting</text>
  <text x="1240" y="611" font-size="12" stroke="none" fill="#666" text-anchor="end">2h ago</text>
  <rect x="232" y="628" width="1016" height="44" rx="0" fill="#fff" stroke="#000" stroke-width="1.5" />
  <text x="248" y="655" font-size="12" stroke="none" fill="#666" text-anchor="start">▸</text>
  <text x="268" y="655" font-size="13" stroke="none" fill="#000" xml:space="preserve"><tspan font-weight="bold">Fable</tspan> used <tspan font-weight="bold">List labels</tspan> in <tspan font-weight="bold">Gmail</tspan></text>
  <rect x="1028" y="640" width="65" height="24" rx="12" fill="#fff" stroke="#000" stroke-width="1.5" />
  <text x="1060.5" y="656.0" font-size="12" stroke="none" fill="#000" text-anchor="middle" font-weight="normal">Allowed</text>
  <text x="1240" y="655" font-size="12" stroke="none" fill="#666" text-anchor="end">2h ago</text>
  <rect x="232" y="672" width="1016" height="44" rx="0" fill="#fff" stroke="#000" stroke-width="1.5" />
  <text x="248" y="699" font-size="12" stroke="none" fill="#666" text-anchor="start">▸</text>
  <text x="268" y="699" font-size="13" stroke="none" fill="#000" xml:space="preserve"><tspan font-weight="bold">Claude</tspan> used <tspan font-weight="bold">Send email</tspan> in <tspan font-weight="bold">Gmail</tspan></text>
  <rect x="1028" y="684" width="65" height="24" rx="12" fill="#fff" stroke="#000" stroke-width="1.5" />
  <text x="1060.5" y="700.0" font-size="12" stroke="none" fill="#000" text-anchor="middle" font-weight="normal">Blocked</text>
  <text x="1240" y="699" font-size="12" stroke="none" fill="#666" text-anchor="end">3h ago</text>
  <rect x="580.0" y="732" width="120" height="28" rx="4" fill="#fff" stroke="#000" stroke-width="1.5" />
  <text x="640.0" y="750.0" font-size="12" stroke="none" fill="#000" text-anchor="middle">Load more</text>
  <text x="232" y="948" font-size="11" stroke="none" fill="#666" text-anchor="start">Recorded by Paperclip — entries can't be edited. Sensitive values are never stored.</text>
</svg>