<svg xmlns="http://www.w3.org/2000/svg" width="1280" height="880" viewBox="0 0 1280 880" font-family="-apple-system, system-ui, sans-serif" fill="#fff" stroke="#000" stroke-width="1.5">
  <rect x="0" y="0" width="1280" height="880" />
  <rect x="0" y="0" width="1280" height="56" rx="0" fill="#fff" stroke="#000" stroke-width="1.5" />
  <line x1="0" y1="56" x2="1280" y2="56" stroke="#000" stroke-width="1.5" />
  <text x="32" y="35" font-size="14" stroke="none" fill="#000" text-anchor="start" font-weight="bold">Paperclip</text>
  <text x="1248" y="35" font-size="12" stroke="none" fill="#666" text-anchor="end">Dotta</text>
  <rect x="0" y="56" width="200" height="824" rx="0" fill="#fafaf8" stroke="#000" stroke-width="1.5" />
  <line x1="200" y1="56" x2="200" y2="880" stroke="#000" stroke-width="1.5" />
  <text x="28" y="96" font-size="14" stroke="none" fill="#666" text-anchor="start">Inbox</text>
  <text x="28" y="132" font-size="14" stroke="none" fill="#666" text-anchor="start">Tasks</text>
  <text x="28" y="168" font-size="14" stroke="none" fill="#666" text-anchor="start">Documents</text>
  <rect x="12" y="186" width="176" height="32" rx="6" fill="#fff" stroke="#000" stroke-width="1.5" />
  <text x="28" y="204" font-size="14" stroke="none" fill="#000" text-anchor="start" font-weight="bold">Apps</text>
  <text x="28" y="240" font-size="14" stroke="none" fill="#666" text-anchor="start">Settings</text>
  <text x="232" y="92" font-size="12" stroke="none" fill="#666" text-anchor="start">Apps · Advanced</text>
  <text x="232" y="124" font-size="28" stroke="none" fill="#000" text-anchor="start" font-weight="bold">Activity</text>
  <text x="232" y="148" font-size="14" stroke="none" fill="#666" text-anchor="start">What agents actually did with your apps</text>
  <text x="262.5" y="188" font-size="14" stroke="none" fill="#666" text-anchor="middle">Rules</text>
  <text x="352.0" y="188" font-size="14" stroke="none" fill="#666" text-anchor="middle">Health</text>
  <line x1="411" y1="204" x2="499" y2="204" stroke="#000" stroke-width="2.5" />
  <text x="455.0" y="188" font-size="14" stroke="none" fill="#000" text-anchor="middle" font-weight="bold">Activity</text>
  <line x1="232" y1="204" x2="1248" y2="204" stroke="#ccc" stroke-width="1" />
  <text x="232" y="232" font-size="12" stroke="none" fill="#666" text-anchor="start" font-weight="bold">Empty state — no activity has happened yet</text>
  <rect x="232" y="252" width="320" height="36" rx="18" fill="#fff" stroke="#000" stroke-width="1.5" />
  <text x="252" y="275" font-size="13" stroke="none" fill="#666" text-anchor="start">🔍   Search</text>
  <rect x="568" y="252" width="92" height="36" rx="18" fill="#fff" stroke="#000" stroke-width="1.5" />
  <text x="582" y="275" font-size="12" stroke="none" fill="#666" text-anchor="start">App: </text>
  <text x="615" y="275" font-size="12" stroke="none" fill="#000" text-anchor="start" font-weight="bold">All</text>
  <text x="644" y="275" font-size="11" stroke="none" fill="#666" text-anchor="start">▾</text>
  <rect x="668" y="252" width="106" height="36" rx="18" fill="#fff" stroke="#000" stroke-width="1.5" />
  <text x="682" y="275" font-size="12" stroke="none" fill="#666" text-anchor="start">Agent: </text>
  <text x="729" y="275" font-size="12" stroke="none" fill="#000" text-anchor="start" font-weight="bold">All</text>
  <text x="758" y="275" font-size="11" stroke="none" fill="#666" text-anchor="start">▾</text>
  <rect x="782" y="252" width="120" height="36" rx="18" fill="#fff" stroke="#000" stroke-width="1.5" />
  <text x="796" y="275" font-size="12" stroke="none" fill="#666" text-anchor="start">Outcome: </text>
  <text x="857" y="275" font-size="12" stroke="none" fill="#000" text-anchor="start" font-weight="bold">All</text>
  <text x="886" y="275" font-size="11" stroke="none" fill="#666" text-anchor="start">▾</text>
  <rect x="910" y="252" width="134" height="36" rx="18" fill="#fff" stroke="#000" stroke-width="1.5" />
  <text x="924" y="275" font-size="12" stroke="none" fill="#666" text-anchor="start">Time: </text>
  <text x="964" y="275" font-size="12" stroke="none" fill="#000" text-anchor="start" font-weight="bold">24 hours</text>
  <text x="1028" y="275" font-size="11" stroke="none" fill="#666" text-anchor="start">▾</text>
  <rect x="232" y="304" width="1016" height="200" rx="8" fill="#fafaf8" stroke="#000" stroke-width="1.5" stroke-dasharray="4 4" />
  <text x="740.0" y="360" font-size="22" stroke="none" fill="#000" text-anchor="middle" font-weight="bold">No activity yet</text>
  <text x="740.0" y="388" font-size="14" stroke="none" fill="#666" text-anchor="middle">Once an agent uses any of your apps, it'll show up here.</text>
  <text x="740.0" y="408" font-size="13" stroke="none" fill="#666" text-anchor="middle">You don't have to set anything up for this — Paperclip records everything by default.</text>
  <rect x="652.0" y="444" width="176" height="28" rx="4" fill="#fff" stroke="#000" stroke-width="1.5" />
  <text x="740.0" y="462.0" font-size="12" stroke="none" fill="#000" text-anchor="middle">See your rules</text>
  <text x="232" y="552" font-size="12" stroke="none" fill="#666" text-anchor="start" font-weight="bold">Filtered empty — filters match nothing</text>
  <rect x="232" y="572" width="320" height="36" rx="18" fill="#fff" stroke="#000" stroke-width="1.5" />
  <text x="252" y="595" font-size="13" stroke="none" fill="#000" text-anchor="start">🔍   urgent</text>
  <rect x="568" y="572" width="106" height="36" rx="18" fill="#000" stroke="#000" stroke-width="1.5" />
  <text x="582" y="595" font-size="12" stroke="none" fill="#fff" text-anchor="start">App: </text>
  <text x="615" y="595" font-size="12" stroke="none" fill="#fff" text-anchor="start" font-weight="bold">Slack</text>
  <text x="658" y="595" font-size="11" stroke="none" fill="#fff" text-anchor="start">▾</text>
  <rect x="682" y="572" width="127" height="36" rx="18" fill="#000" stroke="#000" stroke-width="1.5" />
  <text x="696" y="595" font-size="12" stroke="none" fill="#fff" text-anchor="start">Agent: </text>
  <text x="743" y="595" font-size="12" stroke="none" fill="#fff" text-anchor="start" font-weight="bold">Claude</text>
  <text x="793" y="595" font-size="11" stroke="none" fill="#fff" text-anchor="start">▾</text>
  <rect x="817" y="572" width="141" height="36" rx="18" fill="#000" stroke="#000" stroke-width="1.5" />
  <text x="831" y="595" font-size="12" stroke="none" fill="#fff" text-anchor="start">Outcome: </text>
  <text x="892" y="595" font-size="12" stroke="none" fill="#fff" text-anchor="start" font-weight="bold">Failed</text>
  <text x="942" y="595" font-size="11" stroke="none" fill="#fff" text-anchor="start">▾</text>
  <rect x="966" y="572" width="120" height="36" rx="18" fill="#000" stroke="#000" stroke-width="1.5" />
  <text x="980" y="595" font-size="12" stroke="none" fill="#fff" text-anchor="start">Time: </text>
  <text x="1020" y="595" font-size="12" stroke="none" fill="#fff" text-anchor="start" font-weight="bold">1 hour</text>
  <text x="1070" y="595" font-size="11" stroke="none" fill="#fff" text-anchor="start">▾</text>
  <rect x="232" y="624" width="1016" height="200" rx="8" fill="#fafaf8" stroke="#000" stroke-width="1.5" stroke-dasharray="4 4" />
  <text x="740.0" y="680" font-size="22" stroke="none" fill="#000" text-anchor="middle" font-weight="bold">No matches</text>
  <text x="740.0" y="708" font-size="14" stroke="none" fill="#666" text-anchor="middle">No actions in the last hour matched these filters.</text>
  <text x="740.0" y="728" font-size="13" stroke="none" fill="#666" text-anchor="middle">Try widening the time window, or clear the filters and start over.</text>
  <rect x="676.0" y="760" width="128" height="36" rx="6" fill="#000" stroke="#000" stroke-width="1.5" />
  <text x="740.0" y="783.0" font-size="14" stroke="none" fill="#fff" text-anchor="middle">Clear filters</text>
</svg>