<svg xmlns="http://www.w3.org/2000/svg" width="1280" height="880" viewBox="0 0 1280 880" font-family="-apple-system, system-ui, sans-serif" fill="#fff" stroke="#000" stroke-width="1.5">
  <rect x="0" y="0" width="1280" height="880" />
  <rect x="0" y="0" width="1280" height="56" rx="0" fill="#fff" stroke="#000" stroke-width="1.5" />
  <line x1="0" y1="56" x2="1280" y2="56" stroke="#000" stroke-width="1.5" />
  <text x="32" y="35" font-size="14" stroke="none" fill="#000" text-anchor="start" font-weight="bold">Paperclip</text>
  <text x="1248" y="35" font-size="12" stroke="none" fill="#666" text-anchor="end">Dotta</text>
  <rect x="0" y="56" width="200" height="824" rx="0" fill="#fafaf8" stroke="#000" stroke-width="1.5" />
  <line x1="200" y1="56" x2="200" y2="880" stroke="#000" stroke-width="1.5" />
  <text x="28" y="96" font-size="14" stroke="none" fill="#666" text-anchor="start">Inbox</text>
  <text x="28" y="132" font-size="14" stroke="none" fill="#666" text-anchor="start">Tasks</text>
  <text x="28" y="168" font-size="14" stroke="none" fill="#666" text-anchor="start">Documents</text>
  <rect x="12" y="186" width="176" height="32" rx="6" fill="#fff" stroke="#000" stroke-width="1.5" />
  <text x="28" y="204" font-size="14" stroke="none" fill="#000" text-anchor="start" font-weight="bold">Apps</text>
  <text x="28" y="240" font-size="14" stroke="none" fill="#666" text-anchor="start">Settings</text>
  <text x="232" y="92" font-size="12" stroke="none" fill="#666" text-anchor="start">Apps · Advanced</text>
  <text x="232" y="124" font-size="28" stroke="none" fill="#000" text-anchor="start" font-weight="bold">Rules</text>
  <text x="232" y="148" font-size="14" stroke="none" fill="#666" text-anchor="start">Checked top to bottom — the first one that matches decides</text>
  <line x1="232" y1="204" x2="293" y2="204" stroke="#000" stroke-width="2.5" />
  <text x="262.5" y="188" font-size="14" stroke="none" fill="#000" text-anchor="middle" font-weight="bold">Rules</text>
  <text x="352.0" y="188" font-size="14" stroke="none" fill="#666" text-anchor="middle">Health</text>
  <text x="455.0" y="188" font-size="14" stroke="none" fill="#666" text-anchor="middle">Activity</text>
  <line x1="232" y1="204" x2="1248" y2="204" stroke="#ccc" stroke-width="1" />
  <text x="232" y="240" font-size="14" stroke="none" fill="#666" text-anchor="start">0 rules</text>
  <rect x="1128" y="224" width="120" height="36" rx="6" fill="#000" stroke="#000" stroke-width="1.5" />
  <text x="1188.0" y="247.0" font-size="14" stroke="none" fill="#fff" text-anchor="middle">+ New rule</text>
  <rect x="980" y="224" width="132" height="36" rx="6" fill="#fff" stroke="#000" stroke-width="1.5" />
  <text x="1046.0" y="247.0" font-size="14" stroke="none" fill="#000" text-anchor="middle">Test a rule</text>
  <rect x="232" y="288" width="1016" height="480" rx="0" fill="#fafaf8" stroke="#000" stroke-width="1.5" stroke-dasharray="4 4" />
  <text x="756.0" y="336" font-size="20" stroke="none" fill="#000" text-anchor="middle" font-weight="bold">No rules yet</text>
  <text x="756.0" y="360" font-size="14" stroke="none" fill="#666" text-anchor="middle">Start from a template, or build your own.</text>
  <rect x="280" y="408" width="416" height="152" rx="8" fill="#fff" stroke="#000" stroke-width="1.5" />
  <text x="304" y="444" font-size="15" stroke="none" fill="#000" text-anchor="start" font-weight="bold">Block destructive actions everywhere</text>
  <text x="304" y="472" font-size="13" stroke="none" fill="#666" text-anchor="start">Stop sends, deletes, and other irreversible</text>
  <text x="304" y="492" font-size="13" stroke="none" fill="#666" text-anchor="start">actions across every app.</text>
  <rect x="304" y="516" width="88" height="28" rx="4" fill="#fff" stroke="#000" stroke-width="1.5" />
  <text x="348.0" y="534.0" font-size="12" stroke="none" fill="#000" text-anchor="middle">Use this</text>
  <rect x="720" y="408" width="416" height="152" rx="8" fill="#fff" stroke="#000" stroke-width="1.5" />
  <text x="744" y="444" font-size="15" stroke="none" fill="#000" text-anchor="start" font-weight="bold">Ask first before anything sends or deletes</text>
  <text x="744" y="472" font-size="13" stroke="none" fill="#666" text-anchor="start">Pause any outgoing message or delete until</text>
  <text x="744" y="492" font-size="13" stroke="none" fill="#666" text-anchor="start">you tap Allow.</text>
  <rect x="744" y="516" width="88" height="28" rx="4" fill="#fff" stroke="#000" stroke-width="1.5" />
  <text x="788.0" y="534.0" font-size="12" stroke="none" fill="#000" text-anchor="middle">Use this</text>
  <rect x="280" y="584" width="416" height="152" rx="8" fill="#fff" stroke="#000" stroke-width="1.5" />
  <text x="304" y="620" font-size="15" stroke="none" fill="#000" text-anchor="start" font-weight="bold">Limit a noisy action</text>
  <text x="304" y="648" font-size="13" stroke="none" fill="#666" text-anchor="start">Cap how many times an action can run</text>
  <text x="304" y="668" font-size="13" stroke="none" fill="#666" text-anchor="start">per hour, or per day.</text>
  <rect x="304" y="692" width="88" height="28" rx="4" fill="#fff" stroke="#000" stroke-width="1.5" />
  <text x="348.0" y="710.0" font-size="12" stroke="none" fill="#000" text-anchor="middle">Use this</text>
  <rect x="720" y="584" width="416" height="152" rx="8" fill="#fff" stroke="#000" stroke-width="1.5" />
  <text x="744" y="620" font-size="15" stroke="none" fill="#000" text-anchor="start" font-weight="bold">Start from scratch</text>
  <text x="744" y="648" font-size="13" stroke="none" fill="#666" text-anchor="start">Open an empty rule builder. You pick who,</text>
  <text x="744" y="668" font-size="13" stroke="none" fill="#666" text-anchor="start">what, and the outcome.</text>
  <rect x="744" y="692" width="88" height="28" rx="4" fill="#fff" stroke="#000" stroke-width="1.5" />
  <text x="788.0" y="710.0" font-size="12" stroke="none" fill="#000" text-anchor="middle">Use this</text>
</svg>