<svg xmlns="http://www.w3.org/2000/svg" width="1280" height="960" viewBox="0 0 1280 960" font-family="-apple-system, system-ui, sans-serif" fill="#fff" stroke="#000" stroke-width="1.5">
  <rect x="0" y="0" width="1280" height="960" />
  <rect x="0" y="0" width="1280" height="56" rx="0" fill="#fff" stroke="#000" stroke-width="1.5" />
  <line x1="0" y1="56" x2="1280" y2="56" stroke="#000" stroke-width="1.5" />
  <text x="32" y="35" font-size="14" stroke="none" fill="#000" text-anchor="start" font-weight="bold">Paperclip</text>
  <text x="1248" y="35" font-size="12" stroke="none" fill="#666" text-anchor="end">Dotta</text>
  <rect x="0" y="56" width="200" height="904" rx="0" fill="#fafaf8" stroke="#000" stroke-width="1.5" />
  <line x1="200" y1="56" x2="200" y2="960" stroke="#000" stroke-width="1.5" />
  <text x="28" y="96" font-size="14" stroke="none" fill="#666" text-anchor="start">Inbox</text>
  <text x="28" y="132" font-size="14" stroke="none" fill="#666" text-anchor="start">Tasks</text>
  <text x="28" y="168" font-size="14" stroke="none" fill="#666" text-anchor="start">Documents</text>
  <rect x="12" y="186" width="176" height="32" rx="6" fill="#fff" stroke="#000" stroke-width="1.5" />
  <text x="28" y="204" font-size="14" stroke="none" fill="#000" text-anchor="start" font-weight="bold">Apps</text>
  <text x="28" y="240" font-size="14" stroke="none" fill="#666" text-anchor="start">Settings</text>
  <text x="232" y="92" font-size="12" stroke="none" fill="#666" text-anchor="start">Apps · Advanced · Rules · New</text>
  <text x="232" y="124" font-size="28" stroke="none" fill="#000" text-anchor="start" font-weight="bold">New rule</text>
  <text x="232" y="148" font-size="14" stroke="none" fill="#666" text-anchor="start">Build a rule in plain words. Preview updates as you go.</text>
  <line x1="232" y1="204" x2="293" y2="204" stroke="#000" stroke-width="2.5" />
  <text x="262.5" y="188" font-size="14" stroke="none" fill="#000" text-anchor="middle" font-weight="bold">Rules</text>
  <text x="352.0" y="188" font-size="14" stroke="none" fill="#666" text-anchor="middle">Health</text>
  <text x="455.0" y="188" font-size="14" stroke="none" fill="#666" text-anchor="middle">Activity</text>
  <line x1="232" y1="204" x2="1248" y2="204" stroke="#ccc" stroke-width="1" />
  <rect x="232" y="220" width="1016" height="72" rx="8" fill="#fafaf8" stroke="#000" stroke-width="1.5" />
  <text x="248" y="244" font-size="11" stroke="none" fill="#666" text-anchor="start" font-weight="bold">Preview</text>
  <text x="248" y="274" font-size="16" stroke="none" fill="#000" xml:space="preserve">When <tspan font-weight="bold">Fable</tspan> uses <tspan font-weight="bold">Gmail actions that make changes</tspan>, <tspan font-weight="bold">ask first</tspan>.</text>
  <text x="232" y="320" font-size="18" stroke="none" fill="#000" text-anchor="start" font-weight="bold">When</text>
  <text x="232" y="340" font-size="12" stroke="none" fill="#666" text-anchor="start">Who does the rule apply to?</text>
  <rect x="232" y="360" width="112" height="36" rx="6" fill="#fff" stroke="#000" stroke-width="1.5" />
  <circle cx="246" cy="378" r="6" fill="#fff" stroke="#000" stroke-width="1.5"/>
  <text x="260" y="382" font-size="13" stroke="none" fill="#000" text-anchor="start">Everyone</text>
  <rect x="352" y="360" width="168" height="36" rx="6" fill="#fff" stroke="#000" stroke-width="1.5" />
  <circle cx="366" cy="378" r="6" fill="#fff" stroke="#000" stroke-width="1.5"/>
  <circle cx="366" cy="378" r="3" fill="#000" stroke="none"/>
  <text x="380" y="382" font-size="13" stroke="none" fill="#000" text-anchor="start">Specific agents</text>
  <rect x="528" y="360" width="200" height="36" rx="6" fill="#fff" stroke="#000" stroke-width="1.5" />
  <circle cx="542" cy="378" r="6" fill="#fff" stroke="#000" stroke-width="1.5"/>
  <text x="556" y="382" font-size="13" stroke="none" fill="#000" text-anchor="start">Agents in a project</text>
  <rect x="232" y="408" width="360" height="40" rx="6" fill="#fff" stroke="#000" stroke-width="1.5" />
  <text x="244" y="433" font-size="13" stroke="none" fill="#000" text-anchor="start">Fable ×   Add agent…</text>
  <line x1="568" y1="420" x2="576" y2="436" stroke="#000" stroke-width="1.5" />
  <text x="232" y="480" font-size="18" stroke="none" fill="#000" text-anchor="start" font-weight="bold">uses</text>
  <text x="232" y="500" font-size="12" stroke="none" fill="#666" text-anchor="start">Which apps or actions?</text>
  <rect x="232" y="520" width="112" height="36" rx="6" fill="#fff" stroke="#000" stroke-width="1.5" />
  <circle cx="246" cy="538" r="6" fill="#fff" stroke="#000" stroke-width="1.5"/>
  <text x="260" y="542" font-size="13" stroke="none" fill="#000" text-anchor="start">Anything</text>
  <rect x="352" y="520" width="160" height="36" rx="6" fill="#fff" stroke="#000" stroke-width="1.5" />
  <circle cx="366" cy="538" r="6" fill="#fff" stroke="#000" stroke-width="1.5"/>
  <text x="380" y="542" font-size="13" stroke="none" fill="#000" text-anchor="start">A specific app</text>
  <rect x="520" y="520" width="176" height="36" rx="6" fill="#fff" stroke="#000" stroke-width="1.5" />
  <circle cx="534" cy="538" r="6" fill="#fff" stroke="#000" stroke-width="1.5"/>
  <circle cx="534" cy="538" r="3" fill="#000" stroke="none"/>
  <text x="548" y="542" font-size="13" stroke="none" fill="#000" text-anchor="start">Specific actions</text>
  <rect x="704" y="520" width="216" height="36" rx="6" fill="#fff" stroke="#000" stroke-width="1.5" />
  <circle cx="718" cy="538" r="6" fill="#fff" stroke="#000" stroke-width="1.5"/>
  <text x="732" y="542" font-size="13" stroke="none" fill="#000" text-anchor="start">Actions by capability</text>
  <rect x="232" y="568" width="600" height="88" rx="6" fill="#fff" stroke="#000" stroke-width="1.5" />
  <text x="248" y="590" font-size="13" stroke="none" fill="#000" text-anchor="start" font-weight="bold">▾ Gmail</text>
  <text x="268" y="610" font-size="12" stroke="none" fill="#000" text-anchor="start">☑ Send email</text>
  <text x="268" y="628" font-size="12" stroke="none" fill="#000" text-anchor="start">☑ Delete email</text>
  <text x="432" y="610" font-size="12" stroke="none" fill="#000" text-anchor="start">☐ Search messages</text>
  <text x="432" y="628" font-size="12" stroke="none" fill="#000" text-anchor="start">☐ List labels</text>
  <text x="612" y="610" font-size="12" stroke="none" fill="#666" text-anchor="start">2 of 4 selected</text>
  <text x="232" y="700" font-size="18" stroke="none" fill="#000" text-anchor="start" font-weight="bold">then</text>
  <text x="232" y="720" font-size="12" stroke="none" fill="#666" text-anchor="start">What should happen?</text>
  <rect x="232" y="740" width="56" height="36" rx="18" fill="#fff" stroke="#000" stroke-width="1.5"/>
  <text x="260.0" y="762" font-size="13" stroke="none" fill="#000" text-anchor="middle">Allow</text>
  <rect x="296" y="740" width="56" height="36" rx="18" fill="#fff" stroke="#000" stroke-width="1.5"/>
  <text x="324.0" y="762" font-size="13" stroke="none" fill="#000" text-anchor="middle">Block</text>
  <rect x="360" y="740" width="88" height="36" rx="18" fill="#000" stroke="#000" stroke-width="1.5"/>
  <text x="404.0" y="762" font-size="13" stroke="none" fill="#fff" text-anchor="middle">Ask first</text>
  <rect x="456" y="740" width="136" height="36" rx="18" fill="#fff" stroke="#000" stroke-width="1.5"/>
  <text x="524.0" y="762" font-size="13" stroke="none" fill="#000" text-anchor="middle">Limit how often</text>
  <rect x="600" y="740" width="192" height="36" rx="18" fill="#fff" stroke="#000" stroke-width="1.5"/>
  <text x="696.0" y="762" font-size="13" stroke="none" fill="#000" text-anchor="middle">Hide sensitive details</text>
  <rect x="232" y="796" width="1016" height="40" rx="6" fill="#fafaf8" stroke="#000" stroke-width="1.5" />
  <text x="248" y="822" font-size="13" stroke="none" fill="#000" text-anchor="start" font-weight="bold">▸ Advanced</text>
  <text x="362" y="822" font-size="12" stroke="none" fill="#666" text-anchor="start">Wildcards, raw selectors, JSON conditions, priority</text>
  <rect x="1128" y="896" width="120" height="36" rx="6" fill="#000" stroke="#000" stroke-width="1.5" />
  <text x="1188.0" y="919.0" font-size="14" stroke="none" fill="#fff" text-anchor="middle">Save rule</text>
  <rect x="1016" y="896" width="96" height="36" rx="6" fill="#fff" stroke="#000" stroke-width="1.5" />
  <text x="1064.0" y="919.0" font-size="14" stroke="none" fill="#000" text-anchor="middle">Cancel</text>
</svg>