<svg xmlns="http://www.w3.org/2000/svg" width="1280" height="920" viewBox="0 0 1280 920" font-family="-apple-system, system-ui, sans-serif" fill="#fff" stroke="#000" stroke-width="1.5">
  <rect x="0" y="0" width="1280" height="920" />
  <rect x="0" y="0" width="1280" height="56" rx="0" fill="#fff" stroke="#000" stroke-width="1.5" />
  <line x1="0" y1="56" x2="1280" y2="56" stroke="#000" stroke-width="1.5" />
  <text x="32" y="35" font-size="14" stroke="none" fill="#000" text-anchor="start" font-weight="bold">Paperclip</text>
  <text x="1248" y="35" font-size="12" stroke="none" fill="#666" text-anchor="end">Dotta</text>
  <rect x="0" y="56" width="200" height="864" rx="0" fill="#fafaf8" stroke="#000" stroke-width="1.5" />
  <line x1="200" y1="56" x2="200" y2="920" stroke="#000" stroke-width="1.5" />
  <text x="28" y="96" font-size="14" stroke="none" fill="#666" text-anchor="start">Inbox</text>
  <text x="28" y="132" font-size="14" stroke="none" fill="#666" text-anchor="start">Tasks</text>
  <text x="28" y="168" font-size="14" stroke="none" fill="#666" text-anchor="start">Documents</text>
  <rect x="12" y="186" width="176" height="32" rx="6" fill="#fff" stroke="#000" stroke-width="1.5" />
  <text x="28" y="204" font-size="14" stroke="none" fill="#000" text-anchor="start" font-weight="bold">Apps</text>
  <text x="28" y="240" font-size="14" stroke="none" fill="#666" text-anchor="start">Settings</text>
  <text x="232" y="92" font-size="12" stroke="none" fill="#666" text-anchor="start">Apps · Advanced</text>
  <text x="232" y="124" font-size="28" stroke="none" fill="#000" text-anchor="start" font-weight="bold">Health</text>
  <text x="232" y="148" font-size="14" stroke="none" fill="#666" text-anchor="start">How your apps are doing right now</text>
  <text x="262.5" y="188" font-size="14" stroke="none" fill="#666" text-anchor="middle">Rules</text>
  <line x1="317" y1="204" x2="387" y2="204" stroke="#000" stroke-width="2.5" />
  <text x="352.0" y="188" font-size="14" stroke="none" fill="#000" text-anchor="middle" font-weight="bold">Health</text>
  <text x="455.0" y="188" font-size="14" stroke="none" fill="#666" text-anchor="middle">Activity</text>
  <line x1="232" y1="204" x2="1248" y2="204" stroke="#ccc" stroke-width="1" />
  <rect x="1168" y="224" width="80" height="28" rx="14" fill="#fff" stroke="#000" stroke-width="1.5" />
  <circle cx="1184" cy="238" r="4" fill="#000" stroke="none" />
  <text x="1196" y="242" font-size="12" stroke="none" fill="#000" text-anchor="start">Live</text>
  <text x="232" y="280" font-size="18" stroke="none" fill="#000" text-anchor="start" font-weight="bold">Running apps</text>
  <text x="232" y="302" font-size="12" stroke="none" fill="#666" text-anchor="start">Click any row to see how the connection is wired up.</text>
  <text x="256" y="336" font-size="12" stroke="none" fill="#666" text-anchor="start" font-weight="bold">App</text>
  <text x="560" y="336" font-size="12" stroke="none" fill="#666" text-anchor="start" font-weight="bold">Status</text>
  <text x="800" y="336" font-size="12" stroke="none" fill="#666" text-anchor="start" font-weight="bold">Last used</text>
  <text x="1148" y="336" font-size="12" stroke="none" fill="#666" text-anchor="start" font-weight="bold">Actions</text>
  <line x1="232" y1="348" x2="1248" y2="348" stroke="#000" stroke-width="1.5" />
  <rect x="232" y="360" width="1016" height="40" rx="0" fill="#fff" stroke="#000" stroke-width="1.5" />
  <text x="244" y="385" font-size="14" stroke="none" fill="#666" text-anchor="start">▸</text>
  <circle cx="262" cy="380" r="5" fill="#000" stroke="none" />
  <text x="280" y="385" font-size="13" stroke="none" fill="#000" text-anchor="start" font-weight="bold">Gmail</text>
  <text x="560" y="385" font-size="13" stroke="none" fill="#000" text-anchor="start">Working</text>
  <text x="800" y="385" font-size="13" stroke="none" fill="#666" text-anchor="start">5 minutes ago</text>
  <rect x="1160" y="366" width="80" height="28" rx="4" fill="#fff" stroke="#000" stroke-width="1.5" />
  <text x="1200.0" y="384.0" font-size="12" stroke="none" fill="#000" text-anchor="middle">Restart</text>
  <rect x="232" y="400" width="1016" height="40" rx="0" fill="#fafaf8" stroke="#000" stroke-width="1.5" />
  <text x="244" y="425" font-size="14" stroke="none" fill="#000" text-anchor="start">▾</text>
  <circle cx="262" cy="420" r="5" fill="#000" stroke="none" />
  <text x="280" y="425" font-size="13" stroke="none" fill="#000" text-anchor="start" font-weight="bold">Google Sheets</text>
  <text x="560" y="425" font-size="13" stroke="none" fill="#000" text-anchor="start">Working</text>
  <text x="800" y="425" font-size="13" stroke="none" fill="#666" text-anchor="start">12 minutes ago</text>
  <rect x="1160" y="406" width="80" height="28" rx="4" fill="#fff" stroke="#000" stroke-width="1.5" />
  <text x="1200.0" y="424.0" font-size="12" stroke="none" fill="#000" text-anchor="middle">Restart</text>
  <rect x="232" y="440" width="1016" height="220" rx="0" fill="#fafaf8" stroke="#000" stroke-width="1.5" />
  <text x="280" y="472" font-size="11" stroke="none" fill="#666" text-anchor="start" font-weight="bold">Slot key</text>
  <text x="280" y="492" font-size="13" stroke="none" fill="#000" text-anchor="start">sheets-stdio-local</text>
  <text x="280" y="524" font-size="11" stroke="none" fill="#666" text-anchor="start" font-weight="bold">How it runs</text>
  <text x="280" y="544" font-size="13" stroke="none" fill="#000" text-anchor="start">Runs on this machine</text>
  <text x="280" y="576" font-size="11" stroke="none" fill="#666" text-anchor="start" font-weight="bold">Process ID</text>
  <text x="280" y="596" font-size="13" stroke="none" fill="#000" text-anchor="start">41832</text>
  <text x="280" y="628" font-size="11" stroke="none" fill="#666" text-anchor="start" font-weight="bold">Scope</text>
  <text x="280" y="648" font-size="13" stroke="none" fill="#000" text-anchor="start">This project</text>
  <text x="640" y="472" font-size="11" stroke="none" fill="#666" text-anchor="start" font-weight="bold">Trust tier</text>
  <text x="640" y="492" font-size="13" stroke="none" fill="#000" text-anchor="start">Provider-verified</text>
  <text x="640" y="524" font-size="11" stroke="none" fill="#666" text-anchor="start" font-weight="bold">Started</text>
  <text x="640" y="544" font-size="13" stroke="none" fill="#000" text-anchor="start">2h 14m ago</text>
  <text x="640" y="576" font-size="11" stroke="none" fill="#666" text-anchor="start" font-weight="bold">Calls in last hour</text>
  <text x="640" y="596" font-size="13" stroke="none" fill="#000" text-anchor="start">37 — none failed</text>
  <text x="640" y="628" font-size="11" stroke="none" fill="#666" text-anchor="start" font-weight="bold">Owner</text>
  <text x="640" y="648" font-size="13" stroke="none" fill="#000" text-anchor="start">You (dotta@magicmachine.co)</text>
  <rect x="1076" y="616" width="72" height="28" rx="4" fill="#fff" stroke="#000" stroke-width="1.5" />
  <text x="1112.0" y="634.0" font-size="12" stroke="none" fill="#000" text-anchor="middle">Stop</text>
  <rect x="1160" y="616" width="80" height="28" rx="4" fill="#fff" stroke="#000" stroke-width="1.5" />
  <text x="1200.0" y="634.0" font-size="12" stroke="none" fill="#000" text-anchor="middle">Restart</text>
  <rect x="232" y="660" width="1016" height="40" rx="0" fill="#fff" stroke="#000" stroke-width="1.5" />
  <text x="244" y="685" font-size="14" stroke="none" fill="#666" text-anchor="start">▸</text>
  <circle cx="262" cy="680" r="5" fill="#000" stroke="none" />
  <text x="280" y="685" font-size="13" stroke="none" fill="#000" text-anchor="start" font-weight="bold">Slack</text>
  <text x="560" y="685" font-size="13" stroke="none" fill="#000" text-anchor="start">Working</text>
  <text x="800" y="685" font-size="13" stroke="none" fill="#666" text-anchor="start">1 hour ago</text>
  <rect x="1160" y="666" width="80" height="28" rx="4" fill="#fff" stroke="#000" stroke-width="1.5" />
  <text x="1200.0" y="684.0" font-size="12" stroke="none" fill="#000" text-anchor="middle">Restart</text>
  <rect x="232" y="700" width="1016" height="40" rx="0" fill="#fff" stroke="#000" stroke-width="1.5" />
  <text x="244" y="725" font-size="14" stroke="none" fill="#666" text-anchor="start">▸</text>
  <circle cx="262" cy="720" r="5" fill="#000" stroke="none" />
  <text x="280" y="725" font-size="13" stroke="none" fill="#000" text-anchor="start" font-weight="bold">Notion</text>
  <text x="560" y="725" font-size="13" stroke="none" fill="#000" text-anchor="start">Working</text>
  <text x="800" y="725" font-size="13" stroke="none" fill="#666" text-anchor="start">8 minutes ago</text>
  <rect x="1160" y="706" width="80" height="28" rx="4" fill="#fff" stroke="#000" stroke-width="1.5" />
  <text x="1200.0" y="724.0" font-size="12" stroke="none" fill="#000" text-anchor="middle">Restart</text>
  <text x="232" y="764" font-size="12" stroke="none" fill="#666" text-anchor="start">Tip: rows for apps that "connect over the internet" hide Stop/Restart — those run on the provider's side.</text>
</svg>