<svg xmlns="http://www.w3.org/2000/svg" width="1280" height="472" viewBox="0 0 1280 472"
     font-family="-apple-system, system-ui, sans-serif" fill="#fff" stroke="#000" stroke-width="1.5">
  <rect x="0" y="0" width="1280" height="472" />

  <!-- ===== panel A · stopped ===== -->
  <text x="48" y="28" font-size="12" letter-spacing="1" stroke="none" fill="#666">A — STOPPED (same header, nothing moved)</text>
  <g transform="translate(8, 40)">
    <rect width="1264" height="168" rx="8" />
    <g transform="translate(40, 32)">
      <text x="0" y="12" font-size="12" letter-spacing="2" stroke="none" fill="#666">EXECUTION WORKSPACE</text>
      <text x="0" y="44" font-size="20" font-weight="700" stroke="none" fill="#000">PAP-14025-skills-need-to-be-organized-in-folders-the-ta…</text>
    </g>
    <g transform="translate(680, 32)">
      <rect width="544" height="40" rx="6" />
      <circle cx="20" cy="20" r="5" fill="#fff" />
      <text x="36" y="25" font-size="14" font-weight="600" stroke="none" fill="#000">Stopped</text>
      <line x1="128" y1="8" x2="128" y2="32" stroke="#666" />
      <text x="144" y="25" font-size="14" stroke="none" fill="#666">paperclip-dev:45439</text>
      <line x1="424" y1="8" x2="424" y2="32" stroke="#666" />
      <g transform="translate(436, 4)">
        <rect width="72" height="32" rx="4" fill="#000" stroke="none" />
        <polygon points="12,10 12,22 22,16" fill="#fff" stroke="none" />
        <text x="28" y="21" font-size="12" font-weight="600" stroke="none" fill="#fff">Start</text>
      </g>
    </g>
    <g transform="translate(40, 120)">
      <line x1="0" y1="24" x2="1184" y2="24" />
      <text x="0" y="12" font-size="14" font-weight="600" stroke="none" fill="#000">Tasks</text>
      <text x="80" y="12" font-size="14" stroke="none" fill="#666">Services</text>
      <text x="176" y="12" font-size="14" stroke="none" fill="#666">Configuration</text>
    </g>
  </g>

  <!-- ===== panel B · failed ===== -->
  <text x="48" y="252" font-size="12" letter-spacing="1" stroke="none" fill="#666">B — FAILED (adds one detail line under the bar; bar itself identical)</text>
  <g transform="translate(8, 264)">
    <rect width="1264" height="168" rx="8" />
    <g transform="translate(40, 32)">
      <text x="0" y="12" font-size="12" letter-spacing="2" stroke="none" fill="#666">EXECUTION WORKSPACE</text>
      <text x="0" y="44" font-size="20" font-weight="700" stroke="none" fill="#000">PAP-14025-skills-need-to-be-organized-in-folders-the-ta…</text>
    </g>
    <g transform="translate(680, 32)">
      <rect width="544" height="40" rx="6" />
      <circle cx="20" cy="20" r="7" fill="#000" />
      <text x="20" y="24" font-size="11" font-weight="700" text-anchor="middle" stroke="none" fill="#fff">!</text>
      <text x="36" y="25" font-size="14" font-weight="600" stroke="none" fill="#000">Failed</text>
      <line x1="128" y1="8" x2="128" y2="32" stroke="#666" />
      <text x="144" y="25" font-size="14" stroke="none" fill="#666">paperclip-dev:45439</text>
      <line x1="424" y1="8" x2="424" y2="32" stroke="#666" />
      <g transform="translate(436, 4)">
        <rect width="32" height="32" rx="4" fill="#000" stroke="none" />
        <polygon points="12,10 12,22 22,16" fill="#fff" stroke="none" />
      </g>
      <g transform="translate(476, 4)">
        <rect width="32" height="32" rx="4" />
        <path d="M 11 16 a 6 6 0 1 1 2 4.5" fill="none" />
        <polygon points="8,17 14,17 11,11" fill="#000" stroke="none" />
      </g>
    </g>
    <!-- error detail line -->
    <text x="1224" y="94" font-size="12" text-anchor="end" stroke="none" fill="#666">dev exited with code 1, 12s ago · <tspan font-weight="600" fill="#000" text-decoration="underline">View logs</tspan></text>
    <g transform="translate(40, 120)">
      <line x1="0" y1="24" x2="1184" y2="24" />
      <text x="0" y="12" font-size="14" font-weight="600" stroke="none" fill="#000">Tasks</text>
      <text x="80" y="12" font-size="14" stroke="none" fill="#666">Services</text>
      <text x="176" y="12" font-size="14" stroke="none" fill="#666">Configuration</text>
    </g>
  </g>

  <!-- ===== annotation layer ===== -->
  <g data-region="annotations">
    <rect x="948" y="344" width="296" height="24" fill="none" stroke="#d33" stroke-dasharray="6 3" />
    <g transform="translate(948, 396)">
      <circle cx="0" cy="0" r="12" fill="#fff" stroke="#d33" stroke-dasharray="4 2" />
      <text x="0" y="4" font-size="12" font-weight="700" text-anchor="middle" stroke="none" fill="#d33">1</text>
    </g>
    <text x="972" y="400" font-size="12" stroke="none" fill="#d33">exit detail + logs link, right-aligned under the bar</text>
  </g>
</svg>
