<svg viewBox="0 0 24 24" xmlns="http://www.w3.org/2000/svg" fill="#000000"><path d="M5.938 12.835c.127-.039.285.02.373.143.028.038.036.092.046.14.003.014-.02.033-.04.05-.124-.098-.24-.194-.354-.291-.011-.01-.016-.027-.025-.042zM8.396 9.412c.195-.032.39-.06.588-.05a.54.54 0 01.148.026c.202.071.402.147.601.224.028.01.05.036.075.055l-.013.027a9.203 9.203 0 01-.26-.089c-.115-.038-.213-.077-.315-.098-.25-.05-.25-.046-.292-.014l.574.144c.275.139.55.276.823.417.042.022.09.057.107.098.026.06.063.076.117.072.066-.006.132-.017.213-.027l-.04.086c.051.08.142.02.216.064-.074.13-.247.09-.334.199l.061.074-.12.087c0 .106-.038.168-.306.243l.026.085-.196.042.07.124h-.25l-.007.137c-.081-.01-.161-.018-.244-.027l-.053.123c-.027-.008-.052-.011-.073-.023-.067-.038-.128-.056-.195.006-.019.017-.063.014-.093.008-.026-.006-.05-.029-.07-.042-.11.095-.11.095-.208.003-.057.046-.12.074-.186.011-.063.027-.123-.02-.178-.014-.07.007-.097-.035-.133-.07l-.13.033c-.013-.236-.194-.19-.34-.203.005-.072.05-.092.095-.094a.474.474 0 01.159.022c.164.05.32.12.496.138.203.021.405.029.601-.015.265-.059.52-.149.707-.365.049-.056.083-.127.117-.195.019-.038.02-.084-.02-.116a1.397 1.397 0 00-.382-.217c.024.12-.031.182-.115.221 0 .014-.004.025 0 .03.08.115.084.16-.007.267a1.39 1.39 0 01-.218.211.477.477 0 01-.641-.05 1.36 1.36 0 01-.133-.152c-.078-.107-.076-.108-.033-.236-.165-.08-.128-.226-.104-.364.008-.05.028-.096.049-.163-.04.014-.067.017-.087.032a.897.897 0 00-.316.357c-.007.016-.01.034-.02.047-.012.015-.034.038-.045.035-.02-.006-.037-.027-.05-.045-.008-.012-.007-.032-.012-.057h-.126l.053-.172a14.82 14.82 0 00-.039-.049l.11-.284c-.06.026-.091.044-.124.051-.03.007-.064 0-.095 0 0-.031-.01-.07.004-.092.149-.22.305-.428.593-.476z"/></svg>
