<svg width="1024" height="1024" viewBox="0 0 1024 1024" fill="none" xmlns="http://www.w3.org/2000/svg">
<path d="M9.62165 535.229C-3.20724 522.4 -3.2072 501.6 9.62169 488.771L488.771 9.62165C501.6 -3.20724 522.4 -3.2072 535.229 9.62169L1014.38 488.771C1027.21 501.6 1027.21 522.4 1014.38 535.229L535.229 1014.38C522.4 1027.21 501.6 1027.21 488.771 1014.38L9.62165 535.229Z" fill="#374151"/>
<path d="M140.632 173.19C140.632 155.047 155.34 140.34 173.482 140.34H851.102C869.245 140.34 883.953 155.047 883.953 173.19V850.81C883.953 868.953 869.245 883.66 851.102 883.66H173.482C155.34 883.66 140.632 868.953 140.632 850.81V173.19Z" fill="#374151"/>
<path d="M187.09 219.648C187.09 201.505 201.797 186.797 219.94 186.797H804.645C822.788 186.797 837.495 201.505 837.495 219.648V804.352C837.495 822.495 822.788 837.203 804.645 837.203H219.94C201.797 837.203 187.09 822.495 187.09 804.352V219.648Z" fill="#F9FAFB"/>
<path d="M187.09 219.648C187.09 201.505 201.797 186.797 219.94 186.797H804.645C822.788 186.797 837.495 201.505 837.495 219.648V804.352C837.495 822.495 822.788 837.203 804.645 837.203H219.94C201.797 837.203 187.09 822.495 187.09 804.352V219.648Z" fill="#F9FAFB"/>
<path d="M75.5914 535.229C62.7625 522.4 62.7625 501.6 75.5914 488.771L489.04 75.3225C501.869 62.4936 522.669 62.4937 535.498 75.3226L948.946 488.771C961.775 501.6 961.775 522.4 948.946 535.229L535.498 948.678C522.669 961.506 501.869 961.506 489.04 948.677L75.5914 535.229Z" fill="#F9FAFB"/>
<path d="M75.5914 535.229C62.7625 522.4 62.7625 501.6 75.5914 488.771L489.04 75.3225C501.869 62.4936 522.669 62.4937 535.498 75.3226L948.946 488.771C961.775 501.6 961.775 522.4 948.946 535.229L535.498 948.678C522.669 961.506 501.869 961.506 489.04 948.677L75.5914 535.229Z" fill="#F9FAFB"/>
<path d="M206.602 535.229C193.773 522.4 193.773 501.6 206.602 488.771L488.649 206.724C501.478 193.895 522.277 193.895 535.106 206.724L817.153 488.771C829.982 501.6 829.982 522.4 817.153 535.229L535.106 817.276C522.277 830.105 501.478 830.105 488.649 817.276L206.602 535.229Z" fill="#111827"/>
<path d="M280.005 312.563C280.005 294.42 294.712 279.712 312.855 279.712H711.73C729.872 279.712 744.58 294.42 744.58 312.563V711.437C744.58 729.58 729.872 744.288 711.73 744.288H312.855C294.712 744.288 280.005 729.58 280.005 711.437V312.563Z" fill="#111827"/>
<path d="M686.428 488.581C699.257 501.41 699.257 522.21 686.428 535.038L674.572 546.895C661.743 559.724 640.943 559.724 628.115 546.895L476.402 395.182C463.573 382.353 463.573 361.553 476.402 348.724L488.258 336.868C501.087 324.039 521.887 324.039 534.716 336.868L686.428 488.581Z" fill="#F9FAFB"/>
<path d="M616.5 558.509C629.329 571.338 629.329 592.138 616.5 604.967L604.644 616.823C591.815 629.652 571.015 629.652 558.186 616.823L406.473 465.11C393.644 452.281 393.644 431.481 406.473 418.653L418.33 406.796C431.159 393.967 451.958 393.967 464.787 406.796L616.5 558.509Z" fill="#D1D5DB"/>
<path d="M546.572 628.437C559.401 641.266 559.401 662.066 546.572 674.895L534.716 686.751C521.887 699.58 501.087 699.58 488.258 686.751L336.545 535.038C323.716 522.21 323.716 501.41 336.545 488.581L348.401 476.725C361.23 463.896 382.03 463.896 394.859 476.725L546.572 628.437Z" fill="#9CA3AF"/>
</svg>
