<svg xmlns="http://www.w3.org/2000/svg" width="1280" height="800" viewBox="0 0 1280 800"
     font-family="-apple-system, system-ui, sans-serif" fill="#fff" stroke="#000" stroke-width="1.5">
  <!-- canvas border -->
  <rect x="0" y="0" width="1280" height="800" />

  <!-- ============ left sidebar ============ -->
  <g transform="translate(0,0)">
    <rect width="224" height="800" />
    <text x="24" y="44" font-size="14" font-weight="600" stroke="none" fill="#000">Company settings</text>
    <text x="24" y="88" font-size="14" stroke="none" fill="#666">General</text>
    <text x="24" y="120" font-size="14" stroke="none" fill="#666">Members</text>
    <rect x="8" y="136" width="208" height="32" rx="4" fill="#e6e6e6" />
    <text x="24" y="157" font-size="14" font-weight="600" stroke="none" fill="#000">Secrets</text>
    <text x="24" y="200" font-size="14" stroke="none" fill="#666">Environments</text>
    <text x="24" y="232" font-size="14" stroke="none" fill="#666">Tools</text>
  </g>

  <!-- ============ page header ============ -->
  <text x="248" y="56" font-size="28" font-weight="700" stroke="none" fill="#000">Secrets</text>
  <text x="248" y="80" font-size="14" stroke="none" fill="#666">Store credentials once, reference them from agents, tools and environments.</text>

  <!-- ============ tab bar ============ -->
  <g transform="translate(248,104)">
    <text x="0" y="20" font-size="14" font-weight="600" stroke="none" fill="#000">Secrets</text>
    <line x1="0" y1="32" x2="56" y2="32" stroke-width="3" />
    <text x="88" y="20" font-size="14" stroke="none" fill="#666">My secrets</text>
    <text x="184" y="20" font-size="14" stroke="none" fill="#666">Provider vaults</text>
    <line x1="0" y1="33" x2="1008" y2="33" stroke="#666" stroke-width="0.5" />
  </g>

  <!-- ============ toolbar ============ -->
  <g transform="translate(248,160)">
    <rect width="288" height="40" rx="20" />
    <circle cx="20" cy="20" r="6" />
    <line x1="24" y1="24" x2="30" y2="30" />
    <text x="40" y="25" font-size="14" stroke="none" fill="#666">Search all secrets…</text>
    <g transform="translate(304,0)">
      <rect width="96" height="40" rx="4" />
      <text x="48" y="25" font-size="14" text-anchor="middle" stroke="none" fill="#000">Filters</text>
    </g>
    <g transform="translate(560,0)">
      <rect width="176" height="40" rx="4" />
      <rect x="2" y="2" width="86" height="36" rx="3" fill="#000" stroke="none" />
      <text x="45" y="25" font-size="14" text-anchor="middle" stroke="none" fill="#fff">Folders</text>
      <text x="132" y="25" font-size="14" text-anchor="middle" stroke="none" fill="#666">Flat</text>
    </g>
    <g transform="translate(752,0)">
      <rect width="112" height="40" rx="4" />
      <text x="56" y="25" font-size="14" text-anchor="middle" stroke="none" fill="#000">New folder</text>
    </g>
    <g transform="translate(880,0)">
      <rect width="128" height="40" rx="4" fill="#000" />
      <text x="64" y="25" font-size="14" text-anchor="middle" stroke="none" fill="#fff">Create secret</text>
    </g>
  </g>

  <!-- ============ breadcrumb row: All secrets / dev / github / oauth ============ -->
  <g transform="translate(248,224)">
    <text x="0" y="17" font-size="14" stroke="none" fill="#666">All secrets</text>
    <text x="80" y="17" font-size="14" stroke="none" fill="#666">/</text>
    <text x="96" y="17" font-size="14" stroke="none" fill="#666">dev</text>
    <text x="128" y="17" font-size="14" stroke="none" fill="#666">/</text>
    <text x="144" y="17" font-size="14" stroke="none" fill="#666">github</text>
    <text x="200" y="17" font-size="14" stroke="none" fill="#666">/</text>
    <text x="216" y="17" font-size="14" font-weight="700" stroke="none" fill="#000">oauth</text>
    <text x="288" y="17" font-size="12" stroke="none" fill="#666">2 secrets · 1 folder</text>
  </g>

  <!-- ============ table ============ -->
  <g transform="translate(248,256)">
    <rect width="1008" height="32" fill="#e6e6e6" />
    <text x="16" y="21" font-size="12" font-weight="600" stroke="none" fill="#000">NAME</text>
    <text x="560" y="21" font-size="12" font-weight="600" stroke="none" fill="#000">STATUS</text>
    <text x="672" y="21" font-size="12" font-weight="600" stroke="none" fill="#000">VERSION / COVERAGE</text>
    <text x="880" y="21" font-size="12" font-weight="600" stroke="none" fill="#000">UPDATED</text>

    <!-- up row: .. -->
    <g transform="translate(0,32)">
      <rect width="1008" height="40" />
      <polyline points="24,28 16,20 24,12" fill="none" />
      <text x="40" y="25" font-size="14" stroke="none" fill="#666">Up to github</text>
    </g>

    <!-- subfolder row: webhooks -->
    <g transform="translate(0,72)">
      <rect width="1008" height="56" />
      <g transform="translate(16,16)">
        <path d="M0,6 L0,22 L24,22 L24,4 L11,4 L8,0 L0,0 Z" fill="#e6e6e6" />
      </g>
      <text x="56" y="34" font-size="14" font-weight="600" stroke="none" fill="#000">webhooks</text>
      <text x="560" y="34" font-size="12" stroke="none" fill="#666">1 secret</text>
      <text x="880" y="34" font-size="14" stroke="none" fill="#666">6d ago</text>
      <polyline points="976,20 984,28 976,36" fill="none" />
    </g>

    <!-- secret row: clientid -->
    <g transform="translate(0,128)">
      <rect width="1008" height="64" />
      <text x="16" y="28" font-size="14" font-weight="600" stroke="none" fill="#000">clientid</text>
      <text x="16" y="48" font-size="12" stroke="none" fill="#666">DEV_GITHUB_OAUTH_CLIENTID · Company</text>
      <g transform="translate(552,20)">
        <rect width="64" height="24" rx="12" />
        <text x="32" y="16" font-size="12" text-anchor="middle" stroke="none" fill="#000">Active</text>
      </g>
      <text x="672" y="38" font-size="14" stroke="none" fill="#000">v1 · managed</text>
      <text x="880" y="38" font-size="14" stroke="none" fill="#666">2h ago</text>
      <text x="972" y="38" font-size="14" stroke="none" fill="#000">…</text>
    </g>

    <!-- secret row: clientsecret (hover state w/ actions) -->
    <g transform="translate(0,192)">
      <rect width="1008" height="64" fill="#e6e6e6" />
      <text x="16" y="28" font-size="14" font-weight="600" stroke="none" fill="#000">clientsecret</text>
      <text x="16" y="48" font-size="12" stroke="none" fill="#666">DEV_GITHUB_OAUTH_CLIENTSECRET · Company</text>
      <g transform="translate(552,20)">
        <rect width="64" height="24" rx="12" fill="#fff" />
        <text x="32" y="16" font-size="12" text-anchor="middle" stroke="none" fill="#000">Active</text>
      </g>
      <text x="672" y="38" font-size="14" stroke="none" fill="#000">v4 · managed</text>
      <text x="880" y="38" font-size="14" stroke="none" fill="#666">2h ago</text>
      <text x="972" y="38" font-size="14" stroke="none" fill="#000">…</text>
    </g>

    <!-- empty-folder hint block -->
    <g transform="translate(0,288)">
      <rect width="1008" height="88" rx="6" />
      <text x="504" y="40" font-size="14" text-anchor="middle" stroke="none" fill="#666">Empty folder state: “No secrets in this folder yet.”</text>
      <g transform="translate(432,48)">
        <rect width="144" height="32" rx="4" fill="#000" />
        <text x="72" y="21" font-size="12" text-anchor="middle" stroke="none" fill="#fff">New secret here</text>
      </g>
    </g>
  </g>

  <!-- ============ annotations ============ -->
  <g stroke="#d33" stroke-dasharray="6,4" fill="none">
    <rect x="240" y="216" width="440" height="32" rx="4" />
    <circle cx="224" cy="232" r="12" stroke-dasharray="none" fill="#fff" />
    <rect x="240" y="288" width="1024" height="40" rx="4" />
    <circle cx="224" cy="308" r="12" stroke-dasharray="none" fill="#fff" />
    <rect x="1120" y="152" width="144" height="56" rx="4" />
    <circle cx="1104" cy="180" r="12" stroke-dasharray="none" fill="#fff" />
    <rect x="240" y="536" width="1024" height="104" rx="4" />
    <circle cx="224" cy="588" r="12" stroke-dasharray="none" fill="#fff" />
  </g>
  <g stroke="none" fill="#d33" font-size="12" font-weight="700">
    <text x="224" y="236" text-anchor="middle">1</text>
    <text x="224" y="312" text-anchor="middle">2</text>
    <text x="1104" y="184" text-anchor="middle">3</text>
    <text x="224" y="592" text-anchor="middle">4</text>
  </g>
</svg>
