<svg width="1611" height="589" viewBox="0 0 1611 589" fill="none" xmlns="http://www.w3.org/2000/svg">
<g clip-path="url(#clip0_4_82)">
<path d="M374.666 478.584C363.608 500.878 329.909 541.439 274.216 566.118C349.984 503.964 239.812 432.761 287.513 396.147C275.046 393.377 261.181 402.162 258.365 414.616C256.567 422.57 258.817 430.811 259.188 438.954C259.711 450.444 256.179 462.341 248.316 470.731C240.453 479.12 228.046 483.458 216.951 480.432C205.859 477.403 197.072 466.426 197.827 454.954C198.465 445.266 205.029 437.187 209.85 428.76C220.881 409.471 223.205 385.416 216.074 364.374C208.939 343.328 192.467 325.645 171.981 317.04C185.987 349.157 182.226 388.382 162.377 417.254C147.987 438.188 125.966 453.807 115.36 476.89C107.359 494.303 106.856 515.015 114.008 532.793C118.562 544.114 126.172 554.142 135.705 561.749C102.005 550.28 68.5389 527.513 48.7443 498.692C28.1739 468.737 18.2092 431.887 20.9281 395.843C23.3096 364.313 35.0015 333.984 37.2211 302.44C39.4441 270.9 28.8688 234.879 9.15527e-05 220.951C22.4798 213.682 49.6484 228.855 54.8196 251.557C56.9448 260.898 55.7642 270.63 56.5569 280.169C57.353 289.706 60.8174 299.954 69.2034 304.811C80.5175 311.372 96.2101 304.396 102.252 292.931C108.297 281.465 106.671 267.452 102.299 255.274C97.9271 243.097 91.0388 231.918 86.5523 219.784C76.9451 193.799 79.1985 163.821 92.5871 139.509C103.871 119.02 122.144 103.159 135.57 83.9545C148.24 65.8331 156.302 41.6904 147.538 21.8823C169.242 23.7545 190.926 30.2279 207.209 44.2844C225.279 59.8792 234.971 86.2348 226.008 108.175C219.96 122.987 206.834 133.67 197.109 146.442C185.603 161.554 178.701 180.758 181.524 199.423C184.351 218.09 198.192 235.557 216.89 239.825C235.588 244.095 257.471 232.383 261.273 213.881C264.41 198.637 255.869 183.298 256.358 167.747C257.1 144.279 282.184 124.606 305.621 129.123C293.811 129.973 285.449 142.37 285.756 154.008C286.063 165.646 292.914 176.17 300.885 184.779C308.853 193.391 318.184 200.812 325.254 210.15C340.37 230.106 343.416 257.774 334.814 281.171C330.564 292.725 323.665 303.185 314.979 312.017C305.345 321.809 310.914 338.413 324.667 340.076C324.88 340.103 325.092 340.123 325.305 340.143C334.119 340.906 342.363 335.552 348.334 329.13C354.308 322.71 358.818 315.053 365.083 308.903C375.547 298.632 390.787 293.258 405.505 294.651C342.93 319.249 412.97 401.325 374.666 478.584Z" fill="url(#paint0_linear_4_82)"/>
<path d="M593.797 363.175C594.347 358.502 594.897 353.966 595.447 349.568C595.997 345.17 596.546 340.771 597.096 336.373L599.57 313.282C599.845 309.433 600.12 305.859 600.395 302.561C600.67 299.262 600.945 296.238 601.22 293.489H565.346L548.852 352.867C542.804 353.691 535.657 354.654 527.41 355.753C519.163 356.578 511.466 357.402 504.319 358.227C499.92 358.777 495.522 359.327 491.123 359.877C487 360.426 482.739 360.976 478.341 361.526L510.916 253.491C514.765 240.571 519.163 225.864 524.111 209.371C529.059 192.877 534.007 175.971 538.956 158.652C544.179 141.334 548.989 125.115 553.388 109.995C558.061 94.6011 561.772 81.6809 564.521 71.2348C583.214 69.8604 602.182 68.211 621.425 66.2867C640.942 64.3624 659.91 61.7509 678.328 58.4521C676.954 73.8463 675.579 91.3023 674.205 110.82C673.105 130.063 672.006 149.993 670.906 170.61C670.081 191.227 669.119 211.57 668.02 231.637C667.47 250.605 666.783 270.26 665.958 290.603C665.133 310.67 664.308 331.287 663.484 352.454C659.36 353.004 655.237 353.554 651.113 354.104C646.99 354.654 642.867 355.203 638.743 355.753C631.871 356.853 624.311 358.09 616.064 359.464C607.817 360.839 600.395 362.076 593.797 363.175ZM575.242 252.254C576.891 252.254 579.915 252.117 584.313 251.842C588.987 251.567 593.385 251.292 597.509 251.017C601.632 250.742 604.106 250.605 604.931 250.605C604.931 247.031 605.481 239.747 606.58 228.751C607.68 217.755 608.779 206.209 609.879 194.114C610.429 186.966 610.978 179.682 611.528 172.259C612.353 164.562 613.178 156.728 614.002 148.756L616.476 112.882L610.291 113.294L600.807 148.756L575.242 252.254ZM670.336 364.825C673.36 343.108 676.521 321.254 679.82 299.262C683.393 277.27 686.967 256.103 690.541 235.761C694.389 215.143 697.963 196.588 701.262 180.094C704.835 162.226 708.409 144.083 711.983 125.664C715.556 107.246 719.267 88.6908 723.116 69.9978L795.276 60.5139L773.834 153.704C769.986 169.923 766 187.379 761.876 206.072C758.028 224.49 754.454 242.358 751.155 259.677C747.857 276.995 745.245 292.389 743.321 305.859C750.193 305.31 757.478 305.035 765.175 305.035C773.147 304.76 780.157 304.622 786.205 304.622C786.48 310.945 787.03 317.68 787.854 324.827C788.679 331.7 789.504 337.747 790.328 342.97C791.428 347.919 791.978 350.668 791.978 351.217C790.878 351.217 789.778 351.217 788.679 351.217C787.854 351.217 786.892 351.08 785.792 350.805H779.195C768.474 350.805 756.516 351.355 743.321 352.454C730.401 353.279 717.481 354.791 704.56 356.99C691.915 358.914 680.507 361.526 670.336 364.825ZM794.764 364.825C797.788 343.108 800.949 321.254 804.248 299.262C807.822 277.27 811.395 256.103 814.969 235.761C818.818 215.143 822.391 196.588 825.69 180.094C829.264 162.226 832.837 144.083 836.411 125.664C839.985 107.246 843.696 88.6908 847.544 69.9978L919.705 60.5139L898.263 153.704C894.414 169.923 890.428 187.379 886.305 206.072C882.456 224.49 878.883 242.358 875.584 259.677C872.285 276.995 869.674 292.389 867.749 305.859C874.622 305.31 881.906 305.035 889.604 305.035C897.576 304.76 904.585 304.622 910.633 304.622C910.908 310.945 911.458 317.68 912.283 324.827C913.107 331.7 913.932 337.747 914.757 342.97C915.856 347.919 916.406 350.668 916.406 351.217C915.306 351.217 914.207 351.217 913.107 351.217C912.283 351.217 911.32 351.08 910.221 350.805H903.623C892.902 350.805 880.944 351.355 867.749 352.454C854.829 353.279 841.909 354.791 828.989 356.99C816.344 358.914 804.935 361.526 794.764 364.825ZM1086.73 373.896C1076.56 373.896 1066.8 371.697 1057.46 367.299C1048.39 362.9 1040.55 356.165 1033.95 347.094C1027.08 338.297 1021.72 327.164 1017.87 313.694C1014.02 300.224 1012.1 284.417 1012.1 266.274C1012.1 230.812 1017.18 199.887 1027.36 173.496C1037.53 147.106 1050.45 125.115 1066.12 107.521C1081.51 89.9278 1098 76.8702 1115.6 68.3484C1133.47 59.8266 1150.1 55.5657 1165.49 55.5657C1180.34 55.5657 1192.43 58.8645 1201.78 65.462C1211.12 71.7846 1218 80.3064 1222.4 91.0274C1226.79 101.748 1228.99 113.706 1228.99 126.901L1172.5 137.622C1170.03 126.627 1166.73 118.792 1162.61 114.119C1158.48 109.446 1153.81 107.109 1148.59 107.109C1142.54 107.109 1136.22 110.408 1129.62 117.005C1123.29 123.603 1116.97 132.537 1110.65 143.808C1104.6 154.803 1099.1 167.174 1094.16 180.919C1089.21 194.664 1085.08 208.821 1081.79 223.39C1078.76 237.96 1076.97 251.705 1076.43 264.625C1076.43 281.668 1078.9 293.901 1083.85 301.324C1089.07 308.471 1095.67 312.044 1103.64 312.044C1111.34 312.044 1118.9 309.57 1126.32 304.622C1134.02 299.674 1140.34 293.077 1145.29 284.83C1150.51 276.308 1153.26 266.824 1153.53 256.378L1109.41 262.975L1117.25 222.153L1155.18 217.205C1165.63 215.831 1176.62 214.181 1188.17 212.257C1199.99 210.333 1210.3 208.546 1219.1 206.896C1217.17 234.936 1211.67 259.539 1202.6 280.706C1193.81 301.598 1182.81 318.917 1169.62 332.662C1156.42 346.407 1142.54 356.715 1127.97 363.588C1113.67 370.46 1099.93 373.896 1086.73 373.896ZM1307.35 363.175C1307.9 358.502 1308.45 353.966 1309 349.568C1309.55 345.17 1310.1 340.771 1310.65 336.373L1313.12 313.282C1313.4 309.433 1313.67 305.859 1313.95 302.561C1314.22 299.262 1314.5 296.238 1314.77 293.489H1278.9L1262.4 352.867C1256.35 353.691 1249.21 354.654 1240.96 355.753C1232.71 356.578 1225.02 357.402 1217.87 358.227C1213.47 358.777 1209.07 359.327 1204.67 359.877C1200.55 360.426 1196.29 360.976 1191.89 361.526L1224.47 253.491C1228.32 240.571 1232.71 225.864 1237.66 209.371C1242.61 192.877 1247.56 175.971 1252.51 158.652C1257.73 141.334 1262.54 125.115 1266.94 109.995C1271.61 94.6011 1275.32 81.6809 1278.07 71.2348C1296.76 69.8604 1315.73 68.211 1334.98 66.2867C1354.49 64.3624 1373.46 61.7509 1391.88 58.4521C1390.5 73.8463 1389.13 91.3023 1387.76 110.82C1386.66 130.063 1385.56 149.993 1384.46 170.61C1383.63 191.227 1382.67 211.57 1381.57 231.637C1381.02 250.605 1380.33 270.26 1379.51 290.603C1378.68 310.67 1377.86 331.287 1377.03 352.454C1372.91 353.004 1368.79 353.554 1364.66 354.104C1360.54 354.654 1356.42 355.203 1352.29 355.753C1345.42 356.853 1337.86 358.09 1329.61 359.464C1321.37 360.839 1313.95 362.076 1307.35 363.175ZM1288.79 252.254C1290.44 252.254 1293.47 252.117 1297.86 251.842C1302.54 251.567 1306.94 251.292 1311.06 251.017C1315.18 250.742 1317.66 250.605 1318.48 250.605C1318.48 247.031 1319.03 239.747 1320.13 228.751C1321.23 217.755 1322.33 206.209 1323.43 194.114C1323.98 186.966 1324.53 179.682 1325.08 172.259C1325.9 164.562 1326.73 156.728 1327.55 148.756L1330.03 112.882L1323.84 113.294L1314.36 148.756L1288.79 252.254ZM1449.45 364.825C1438.45 364.825 1427.46 361.938 1416.46 356.165C1405.47 350.118 1394.88 340.634 1384.71 327.714L1415.22 267.924C1418.25 273.147 1422.65 278.095 1428.42 282.768C1434.47 287.441 1440.79 291.152 1447.39 293.901C1453.99 296.65 1459.62 298.025 1464.29 298.025C1471.44 298.025 1478.18 295.826 1484.5 291.427C1491.1 287.029 1494.39 281.119 1494.39 273.696C1494.39 264.075 1490 255.278 1481.2 247.306C1472.4 239.334 1462.51 231.5 1451.51 223.803C1440.79 216.105 1430.89 207.446 1421.82 197.825C1413.03 187.929 1408.63 176.658 1408.63 164.013C1408.63 149.718 1412.75 136.523 1421 124.427C1429.24 112.057 1439.97 101.336 1453.16 92.2644C1466.36 82.918 1480.38 75.7706 1495.22 70.8225C1510.34 65.5995 1524.63 62.9879 1538.1 62.9879C1547.72 62.9879 1556.66 64.6373 1564.91 67.9361C1573.15 70.9599 1579.75 76.0455 1584.7 83.1928C1589.65 90.3402 1592.12 99.9616 1592.12 112.057C1592.12 113.981 1591.98 115.906 1591.71 117.83C1591.71 119.754 1591.57 121.678 1591.3 123.603C1591.02 125.527 1590.61 127.589 1590.06 129.788C1589.78 131.712 1589.51 133.774 1589.23 135.973L1529.44 153.292C1529.99 151.092 1530.41 148.893 1530.68 146.694C1531.23 144.495 1531.51 142.296 1531.51 140.096C1531.51 131.85 1529.99 125.939 1526.97 122.366C1524.22 118.517 1520.51 116.593 1515.84 116.593C1513.36 116.593 1509.79 117.967 1505.12 120.716C1500.44 123.19 1496.18 126.764 1492.33 131.437C1488.76 135.836 1486.97 140.784 1486.97 146.282C1486.97 155.353 1490.68 162.913 1498.11 168.961C1505.8 174.734 1514.6 180.644 1524.5 186.692C1529.17 189.44 1534.39 193.839 1540.17 199.887C1545.94 205.659 1550.89 213.631 1555.01 223.803C1559.41 233.699 1561.61 246.482 1561.61 262.151C1561.61 282.493 1556.52 300.361 1546.35 315.756C1536.45 331.15 1522.98 343.245 1505.94 352.042C1488.9 360.564 1470.07 364.825 1449.45 364.825Z" fill="#0A0A0A"/>
<path d="M488.069 547.693C489.732 539.259 491.335 531.004 492.88 522.927C494.543 514.731 496.146 506.654 497.69 498.696C499.353 489.431 501.016 480.047 502.679 470.545C504.461 461.043 506.064 451.778 507.49 442.751C509.034 433.723 510.221 425.349 511.053 417.629C512.953 417.51 514.794 417.391 516.576 417.272C518.358 417.154 520.08 417.035 521.743 416.916C523.287 416.797 524.831 416.678 526.376 416.56C528.038 416.441 529.642 416.322 531.186 416.203L539.738 415.669C540.57 420.182 541.282 424.637 541.876 429.031C542.589 433.426 543.242 437.702 543.836 441.86C544.311 444.71 544.846 448.036 545.44 451.837C546.152 455.638 546.806 459.558 547.4 463.596C548.112 467.516 548.766 471.198 549.359 474.643C550.072 478.088 550.666 480.879 551.141 483.017C552.329 476.722 553.279 471.555 553.992 467.516C554.823 463.359 555.595 459.38 556.308 455.579C557.14 451.659 558.09 447.086 559.159 441.86L564.682 415.847L586.419 413.174C584.4 422.083 582.499 430.754 580.717 439.187C578.936 447.621 577.273 455.816 575.729 463.775C572.759 478.147 570.146 491.628 567.889 504.219C565.632 516.691 563.91 527.619 562.722 537.002L533.68 543.773L531.008 516.335C530.77 513.603 530.414 510.336 529.939 506.535C529.464 502.616 528.989 498.637 528.514 494.598C528.038 490.441 527.563 486.699 527.088 483.373C526.613 479.929 526.257 477.375 526.019 475.712C524.831 482.72 523.703 489.55 522.634 496.202C521.565 502.734 520.377 509.089 519.071 515.266C518.239 519.423 517.408 523.758 516.576 528.272C515.864 532.667 515.032 537.121 514.082 541.635L488.069 547.693ZM603.545 547.514C595.706 547.514 589.292 544.486 584.303 538.428C579.314 532.37 576.82 523.224 576.82 510.99C576.82 504.219 577.651 497.092 579.314 489.609C580.977 482.126 583.293 474.762 586.263 467.516C589.232 460.271 592.677 453.56 596.597 447.383C602.892 437.405 610.138 429.269 618.333 422.974C626.529 416.678 635.141 413.531 644.168 413.531C651.295 413.531 656.759 415.372 660.56 419.054C664.479 422.617 667.211 427.25 668.756 432.951C670.3 438.534 671.072 444.354 671.072 450.412C671.072 464.547 668.874 477.731 664.479 489.966C660.203 502.081 654.621 512.356 647.731 520.789C640.842 529.46 633.478 536.112 625.638 540.744C617.918 545.258 610.553 547.514 603.545 547.514ZM613.167 518.116C618.512 518.116 623.203 516.335 627.242 512.771C631.399 509.208 634.903 504.694 637.754 499.23C640.605 493.648 642.743 487.828 644.168 481.77C645.593 475.712 646.306 470.248 646.306 465.378C646.306 463.478 646.128 461.458 645.772 459.32C645.415 457.064 644.643 455.104 643.455 453.441C642.268 451.778 640.427 450.946 637.932 450.946C632.468 450.946 627.539 452.966 623.144 457.004C618.749 460.924 615.067 465.913 612.098 471.97C609.128 478.147 606.931 484.205 605.505 490.144C604.08 496.083 603.367 501.487 603.367 506.357C603.367 508.852 604.258 511.465 606.04 514.197C607.821 516.81 610.197 518.116 613.167 518.116ZM713.205 547.514C708.81 547.514 704.712 547.158 700.911 546.445C706.612 525.659 711.126 504.754 714.452 483.73C717.897 462.587 721.163 441.325 724.251 419.945C730.428 418.638 736.842 417.51 743.494 416.56C750.145 415.491 757.034 414.956 764.161 414.956C768.081 414.956 772.238 415.669 776.633 417.094C781.028 418.401 784.71 420.836 787.68 424.399C790.768 427.844 792.312 432.773 792.312 439.187C792.312 445.126 791.065 450.59 788.571 455.579C786.076 460.568 782.929 464.844 779.128 468.407C775.327 471.97 771.407 474.524 767.368 476.068C769.031 476.9 770.991 478.385 773.248 480.523C775.505 482.661 777.465 485.511 779.128 489.075C780.79 492.638 781.622 496.974 781.622 502.081C781.622 509.208 779.484 515.681 775.208 521.502C771.051 527.203 765.468 531.954 758.46 535.755C751.689 539.556 744.384 542.466 736.545 544.486C728.705 546.505 720.925 547.514 713.205 547.514ZM744.919 461.458C748.601 460.746 752.105 459.795 755.431 458.608C758.757 457.42 761.429 456.054 763.449 454.51C765.587 452.966 766.656 451.303 766.656 449.521C766.656 447.264 765.765 445.483 763.983 444.176C762.201 442.869 760.063 441.919 757.569 441.325C755.075 440.731 752.758 440.434 750.62 440.434H748.839C748.007 445.186 747.235 449.343 746.522 452.906C745.81 456.351 745.275 459.202 744.919 461.458ZM735.832 511.524C738.208 511.287 740.821 510.871 743.672 510.277C746.522 509.683 749.254 508.792 751.868 507.604C754.481 506.298 756.619 504.635 758.282 502.616C760.063 500.478 760.954 497.924 760.954 494.954C760.954 492.104 760.004 489.847 758.104 488.184C756.203 486.521 753.887 485.333 751.155 484.62C748.542 483.789 746.047 483.373 743.672 483.373H742.246C741.652 483.373 741.177 483.433 740.821 483.551C740.108 487.946 739.277 492.579 738.327 497.449C737.376 502.319 736.545 507.01 735.832 511.524ZM781.575 546.98L790.839 500.656C792.265 492.104 793.809 483.314 795.472 474.287C797.135 465.259 798.679 456.351 800.104 447.561C801.648 438.771 802.836 430.516 803.668 422.796C810.438 420.658 817.743 419.113 825.583 418.163C833.422 417.094 841.202 416.56 848.923 416.56C857.95 416.56 864.067 418.519 867.274 422.439C870.6 426.359 872.263 431.645 872.263 438.296C872.263 444.354 870.838 450.471 867.987 456.648C865.136 462.706 861.395 468.229 856.762 473.218C852.249 478.088 847.26 481.948 841.796 484.799C843.934 489.55 846.191 494.776 848.566 500.478C851.061 506.06 853.377 511.405 855.515 516.513C856.703 519.482 857.891 522.452 859.078 525.421C860.385 528.391 861.632 531.36 862.82 534.33L835.204 543.951C834.016 539.794 832.888 535.815 831.818 532.014C830.749 528.213 829.74 524.471 828.79 520.789C827.602 516.394 826.473 512.177 825.404 508.139C824.335 503.982 823.385 500.299 822.554 497.092C821.841 493.885 821.425 491.628 821.306 490.322L818.99 491.035C818.278 494.836 817.387 499.468 816.318 504.932C815.367 510.396 814.477 515.681 813.645 520.789L810.438 539.497L781.575 546.98ZM823.444 469.654C825.583 469.417 828.196 468.526 831.284 466.982C834.491 465.319 837.639 463.299 840.727 460.924C843.934 458.548 846.607 456.113 848.745 453.619C850.883 451.125 851.952 448.927 851.952 447.027C851.952 444.651 850.526 443.107 847.676 442.394C844.944 441.563 841.321 441.147 836.807 441.147H832.888C832.175 441.266 831.522 441.325 830.928 441.325C830.334 441.325 829.74 441.325 829.146 441.325L823.444 469.654ZM909.739 546.445C909.976 544.426 910.214 542.466 910.451 540.566C910.689 538.665 910.926 536.765 911.164 534.864L912.233 524.887C912.352 523.224 912.47 521.68 912.589 520.254C912.708 518.829 912.827 517.523 912.946 516.335H897.445L890.318 541.991C887.705 542.348 884.617 542.763 881.053 543.238C877.49 543.595 874.164 543.951 871.076 544.307C869.175 544.545 867.275 544.782 865.374 545.02C863.593 545.258 861.751 545.495 859.851 545.733L873.926 499.052C875.589 493.47 877.49 487.115 879.628 479.988C881.766 472.861 883.904 465.556 886.042 458.073C888.299 450.59 890.377 443.582 892.278 437.049C894.297 430.397 895.901 424.815 897.088 420.301C905.166 419.707 913.361 418.995 921.676 418.163C930.109 417.332 938.305 416.203 946.263 414.778C945.669 421.43 945.076 428.972 944.482 437.405C944.007 445.72 943.531 454.332 943.056 463.24C942.7 472.149 942.284 480.938 941.809 489.609C941.572 497.805 941.275 506.298 940.918 515.088C940.562 523.758 940.206 532.667 939.849 541.813C938.068 542.051 936.286 542.288 934.504 542.526C932.722 542.763 930.941 543.001 929.159 543.238C926.19 543.713 922.923 544.248 919.36 544.842C915.796 545.436 912.589 545.97 909.739 546.445ZM901.721 498.518C902.434 498.518 903.74 498.458 905.641 498.34C907.66 498.221 909.56 498.102 911.342 497.983C913.124 497.864 914.193 497.805 914.549 497.805C914.549 496.261 914.787 493.113 915.262 488.362C915.737 483.611 916.212 478.622 916.687 473.396C916.925 470.308 917.162 467.16 917.4 463.953C917.756 460.627 918.113 457.242 918.469 453.797L919.538 438.296L916.865 438.474L912.767 453.797L901.721 498.518ZM945.482 546.98C947.264 538.665 948.986 530.47 950.649 522.392C952.312 514.315 953.916 506.357 955.46 498.518C957.954 484.383 960.389 470.426 962.765 456.648C965.141 442.751 966.863 429.507 967.932 416.916L977.197 417.45C978.86 417.569 980.463 417.688 982.007 417.807C983.67 417.926 985.274 418.044 986.818 418.163C988.6 418.282 990.381 418.401 992.163 418.519C993.945 418.519 995.726 418.519 997.508 418.519C997.271 419.47 996.855 421.37 996.261 424.221C995.786 427.072 995.251 429.982 994.657 432.951C994.182 435.802 993.826 437.762 993.588 438.831L990.381 456.47L991.45 456.291C994.895 450.946 998.874 444.77 1003.39 437.762C1007.9 430.754 1012.12 424.043 1016.04 417.629C1021.98 417.154 1027.92 416.619 1033.85 416.025C1039.79 415.431 1045.73 414.659 1051.67 413.709C1048.94 417.391 1046.21 421.073 1043.48 424.755C1040.74 428.438 1038.07 432.12 1035.46 435.802C1032.73 439.603 1029.76 443.76 1026.55 448.274C1023.34 452.787 1020.25 457.242 1017.28 461.637C1014.43 465.913 1012.06 469.595 1010.16 472.683C1011.46 478.622 1012.89 484.502 1014.43 490.322C1015.98 496.142 1017.64 501.844 1019.42 507.426C1021.2 513.009 1022.99 518.651 1024.77 524.352C1026.55 530.054 1028.39 535.815 1030.29 541.635C1027.56 541.516 1024.77 541.457 1021.92 541.457C1019.07 541.338 1016.28 541.278 1013.54 541.278C1010.1 541.278 1006.77 541.338 1003.57 541.457C1000.36 541.457 997.033 541.516 993.588 541.635C993.113 537.834 992.579 533.914 991.985 529.876C991.391 525.718 990.797 521.502 990.203 517.226C989.609 513.068 989.015 508.97 988.421 504.932C987.828 500.775 987.234 496.795 986.64 492.994L983.433 496.736C982.601 500.181 981.71 504.576 980.76 509.921C980.285 512.534 979.75 515.147 979.157 517.76C978.681 520.254 978.206 522.689 977.731 525.065C977.256 527.916 976.722 530.826 976.128 533.795C975.534 536.646 974.94 539.616 974.346 542.704L945.482 546.98ZM1031.52 546.98L1054.86 420.301L1111.17 415.491C1110.33 418.104 1109.62 420.776 1109.03 423.508C1108.43 425.765 1107.84 428.141 1107.25 430.635C1106.77 433.011 1106.35 435.149 1106 437.049C1104.45 437.168 1102.26 437.287 1099.41 437.405C1096.56 437.405 1093.65 437.465 1090.68 437.584C1087.71 437.584 1085.15 437.584 1083.01 437.584C1080.88 437.584 1079.75 437.584 1079.63 437.584L1073.39 469.476L1083.73 468.942C1085.03 468.823 1086.34 468.763 1087.65 468.763C1089.07 468.763 1090.44 468.763 1091.74 468.763C1093.05 468.763 1094.24 468.763 1095.31 468.763C1096.38 468.763 1097.21 468.704 1097.8 468.585C1097.56 470.248 1097.33 471.911 1097.09 473.574C1096.97 475.118 1096.79 476.722 1096.56 478.385L1094.95 488.184C1094.36 488.303 1093.59 488.362 1092.64 488.362C1091.69 488.362 1090.56 488.362 1089.25 488.362C1087.94 488.481 1086.58 488.54 1085.15 488.54C1083.73 488.54 1082.36 488.6 1081.05 488.718C1079.51 488.837 1077.91 488.897 1076.24 488.897C1074.58 488.897 1072.8 488.956 1070.9 489.075L1064.84 521.858L1090.85 517.76L1089.07 538.071L1031.52 546.98ZM1124.85 547.158C1120.1 547.158 1115.35 545.911 1110.6 543.417C1105.85 540.803 1101.27 536.705 1096.88 531.123L1110.06 505.288C1111.37 507.545 1113.27 509.683 1115.77 511.702C1118.38 513.722 1121.11 515.325 1123.96 516.513C1126.81 517.701 1129.25 518.295 1131.27 518.295C1134.35 518.295 1137.26 517.344 1140 515.444C1142.85 513.543 1144.27 510.99 1144.27 507.783C1144.27 503.625 1142.37 499.824 1138.57 496.38C1134.77 492.935 1130.49 489.55 1125.74 486.224C1121.11 482.898 1116.83 479.157 1112.91 474.999C1109.11 470.723 1107.21 465.853 1107.21 460.389C1107.21 454.213 1109 448.511 1112.56 443.285C1116.12 437.94 1120.75 433.308 1126.46 429.388C1132.16 425.349 1138.21 422.261 1144.63 420.123C1151.16 417.866 1157.34 416.738 1163.16 416.738C1167.32 416.738 1171.18 417.45 1174.74 418.876C1178.3 420.182 1181.15 422.38 1183.29 425.468C1185.43 428.556 1186.5 432.714 1186.5 437.94C1186.5 438.771 1186.44 439.603 1186.32 440.434C1186.32 441.266 1186.26 442.097 1186.14 442.929C1186.02 443.76 1185.85 444.651 1185.61 445.601C1185.49 446.433 1185.37 447.324 1185.25 448.274L1159.42 455.757C1159.65 454.807 1159.83 453.856 1159.95 452.906C1160.19 451.956 1160.31 451.006 1160.31 450.056C1160.31 446.492 1159.65 443.938 1158.35 442.394C1157.16 440.731 1155.56 439.9 1153.54 439.9C1152.47 439.9 1150.92 440.494 1148.91 441.682C1146.89 442.751 1145.04 444.295 1143.38 446.314C1141.84 448.214 1141.07 450.352 1141.07 452.728C1141.07 456.648 1142.67 459.914 1145.88 462.527C1149.2 465.022 1153 467.576 1157.28 470.189C1159.3 471.377 1161.56 473.277 1164.05 475.89C1166.54 478.385 1168.68 481.829 1170.46 486.224C1172.36 490.5 1173.31 496.023 1173.31 502.794C1173.31 511.584 1171.12 519.304 1166.72 525.956C1162.45 532.608 1156.63 537.834 1149.26 541.635C1141.9 545.317 1133.76 547.158 1124.85 547.158Z" fill="#0A0A0A"/>
</g>
<defs>
<linearGradient id="paint0_linear_4_82" x1="202.753" y1="52.018" x2="202.753" y2="551.22" gradientUnits="userSpaceOnUse">
<stop stop-color="#FF7B08"/>
<stop offset="1" stop-color="#CF0606"/>
</linearGradient>
<clipPath id="clip0_4_82">
<rect width="1611" height="589" fill="#0A0A0A"/>
</clipPath>
</defs>
</svg>
