<svg width="175" height="46" viewBox="0 0 175 46" fill="none" xmlns="http://www.w3.org/2000/svg">
<path d="M9.84886 19.1606C9.79985 19.1606 9.75285 19.1411 9.71819 19.1064C9.68353 19.0718 9.66406 19.0248 9.66406 18.9758V9.95581H29.4791C29.5281 9.95581 29.5751 9.97528 29.6097 10.0099C29.6444 10.0446 29.6639 10.0916 29.6639 10.1406C29.6639 10.1896 29.6444 10.2366 29.6097 10.2713C29.5751 10.3059 29.5281 10.3254 29.4791 10.3254H10.0337V18.9758C10.0337 19.0248 10.0142 19.0718 9.97953 19.1064C9.94488 19.1411 9.89787 19.1606 9.84886 19.1606Z" fill="#8D8B86"/>
<path d="M10.8528 19.0097C10.8038 19.0097 10.7568 18.9902 10.7221 18.9555C10.6874 18.9209 10.668 18.8739 10.668 18.8249V10.8043H28.3804C28.4294 10.8043 28.4764 10.8238 28.5111 10.8584C28.5457 10.8931 28.5652 10.9401 28.5652 10.9891C28.5652 11.0381 28.5457 11.0851 28.5111 11.1198C28.4764 11.1544 28.4294 11.1739 28.3804 11.1739H11.036V18.8249C11.036 18.8736 11.0167 18.9204 10.9824 18.955C10.9481 18.9896 10.9015 19.0092 10.8528 19.0097Z" fill="#8D8B86"/>
<path d="M11.8547 18.8582C11.8057 18.8582 11.7587 18.8387 11.724 18.8041C11.6894 18.7694 11.6699 18.7224 11.6699 18.6734V11.6532H27.2823C27.3072 11.6522 27.332 11.6562 27.3553 11.665C27.3786 11.6739 27.3999 11.6873 27.4179 11.7045C27.4359 11.7218 27.4502 11.7425 27.4599 11.7654C27.4697 11.7883 27.4747 11.813 27.4747 11.8379C27.4747 11.8628 27.4697 11.8874 27.4599 11.9104C27.4502 11.9333 27.4359 11.954 27.4179 11.9712C27.3999 11.9885 27.3786 12.0019 27.3553 12.0107C27.332 12.0195 27.3072 12.0235 27.2823 12.0225H12.0395V18.6734C12.0395 18.7224 12.0201 18.7694 11.9854 18.8041C11.9507 18.8387 11.9037 18.8582 11.8547 18.8582Z" fill="#8D8B86"/>
<path d="M12.8567 18.708C12.8077 18.708 12.7607 18.6885 12.726 18.6539C12.6913 18.6192 12.6719 18.5722 12.6719 18.5232V12.5024H26.1839C26.2329 12.5024 26.2799 12.5219 26.3146 12.5566C26.3492 12.5912 26.3687 12.6382 26.3687 12.6872C26.3687 12.7363 26.3492 12.7833 26.3146 12.8179C26.2799 12.8526 26.2329 12.872 26.1839 12.872H13.0415V18.5226C13.0416 18.5469 13.0368 18.571 13.0276 18.5935C13.0183 18.616 13.0047 18.6364 12.9876 18.6536C12.9704 18.6709 12.95 18.6845 12.9275 18.6939C12.9051 18.7032 12.881 18.708 12.8567 18.708Z" fill="#8D8B86"/>
<path d="M13.8606 18.5555C13.8116 18.5555 13.7646 18.536 13.7299 18.5014C13.6953 18.4667 13.6758 18.4197 13.6758 18.3707V13.351H25.0871C25.1361 13.351 25.1831 13.3704 25.2178 13.4051C25.2525 13.4397 25.2719 13.4867 25.2719 13.5358C25.2719 13.5848 25.2525 13.6318 25.2178 13.6664C25.1831 13.7011 25.1361 13.7206 25.0871 13.7206H14.0451V18.372C14.0448 18.4207 14.0253 18.4674 13.9907 18.5018C13.9561 18.5362 13.9093 18.5555 13.8606 18.5555Z" fill="#8D8B86"/>
<path d="M14.8645 18.4047C14.8155 18.4047 14.7685 18.3852 14.7338 18.3506C14.6992 18.3159 14.6797 18.2689 14.6797 18.2199V14.1996H23.9891C24.0381 14.1996 24.0851 14.2191 24.1198 14.2537C24.1544 14.2884 24.1739 14.3354 24.1739 14.3844C24.1739 14.4334 24.1544 14.4804 24.1198 14.5151C24.0851 14.5497 24.0381 14.5692 23.9891 14.5692H15.0493V18.2199C15.0493 18.2689 15.0298 18.3159 14.9952 18.3506C14.9605 18.3852 14.9135 18.4047 14.8645 18.4047Z" fill="#8D8B86"/>
<path d="M15.8664 18.2532C15.8174 18.2532 15.7704 18.2338 15.7358 18.1991C15.7011 18.1645 15.6816 18.1174 15.6816 18.0684V15.0491H22.8901C22.915 15.0481 22.9398 15.0521 22.9631 15.0609C22.9864 15.0697 23.0077 15.0832 23.0256 15.1004C23.0436 15.1177 23.0579 15.1384 23.0677 15.1613C23.0774 15.1842 23.0825 15.2088 23.0825 15.2337C23.0825 15.2587 23.0774 15.2833 23.0677 15.3062C23.0579 15.3291 23.0436 15.3498 23.0256 15.3671C23.0077 15.3843 22.9864 15.3978 22.9631 15.4066C22.9398 15.4154 22.915 15.4194 22.8901 15.4184H16.0509V18.0684C16.051 18.0927 16.0462 18.1167 16.037 18.1391C16.0277 18.1616 16.0141 18.1819 15.997 18.1991C15.9799 18.2163 15.9595 18.2299 15.9371 18.2392C15.9147 18.2485 15.8907 18.2532 15.8664 18.2532Z" fill="#8D8B86"/>
<path d="M9.8481 19.1605C9.80162 19.1604 9.75692 19.1427 9.72291 19.111C9.6889 19.0793 9.66807 19.036 9.66458 18.9896C9.6611 18.9433 9.6752 18.8973 9.70408 18.8609C9.73297 18.8245 9.77452 18.8003 9.82044 18.7932L15.8494 17.8855L22.8934 18.0602C22.9177 18.0608 22.9415 18.0661 22.9637 18.0758C22.9859 18.0856 23.0059 18.0996 23.0227 18.1172C23.0394 18.1347 23.0526 18.1553 23.0614 18.1779C23.0701 18.2005 23.0744 18.2246 23.0738 18.2488C23.0713 18.351 22.9912 18.4154 22.8853 18.4292L15.8729 18.2526L9.87544 19.1587C9.86638 19.1599 9.85724 19.1605 9.8481 19.1605Z" fill="#8D8B86"/>
<path d="M9.85927 19.8746C9.81134 19.8752 9.76502 19.8572 9.73009 19.8244C9.69517 19.7916 9.67437 19.7465 9.67209 19.6986C9.6698 19.6507 9.68621 19.6038 9.71785 19.5678C9.7495 19.5318 9.79389 19.5095 9.84167 19.5056L15.8486 18.9314L21.7131 19.0779C21.7374 19.0784 21.7613 19.0837 21.7834 19.0934C21.8056 19.1032 21.8256 19.1172 21.8424 19.1348C21.8592 19.1523 21.8723 19.1729 21.8811 19.1955C21.8898 19.2181 21.8941 19.2422 21.8935 19.2664C21.891 19.3686 21.7992 19.4298 21.705 19.4468L15.8624 19.2997L9.87718 19.8739C9.87123 19.8745 9.86525 19.8747 9.85927 19.8746Z" fill="#8D8B86"/>
<path d="M9.87009 20.5881C9.82108 20.589 9.77369 20.5705 9.73836 20.5365C9.70302 20.5025 9.68263 20.4559 9.68168 20.4069C9.68072 20.3579 9.69927 20.3105 9.73325 20.2751C9.76723 20.2398 9.81385 20.2194 9.86286 20.2185L15.8459 19.978L20.5319 20.0959C20.5561 20.0964 20.58 20.1016 20.6022 20.1114C20.6244 20.1211 20.6445 20.1352 20.6612 20.1527C20.678 20.1702 20.6911 20.1909 20.6999 20.2135C20.7086 20.2361 20.7128 20.2602 20.7123 20.2845C20.7098 20.3866 20.6321 20.4451 20.5237 20.4649L15.8484 20.3476L9.877 20.5881H9.87009Z" fill="#8D8B86"/>
<path d="M19.3479 21.4825H19.3435L15.8374 21.3942L9.87855 21.2999C9.82953 21.2995 9.7827 21.2796 9.74833 21.2447C9.71397 21.2097 9.6949 21.1625 9.69532 21.1135C9.69574 21.0645 9.71561 21.0177 9.75056 20.9833C9.78551 20.949 9.83268 20.9299 9.88169 20.9303H9.88483L15.8449 21.0246L19.352 21.1129C19.401 21.1134 19.4478 21.1334 19.4821 21.1685C19.5164 21.2035 19.5353 21.2507 19.5348 21.2997C19.5342 21.3488 19.5142 21.3955 19.4792 21.4298C19.4442 21.4641 19.3969 21.483 19.3479 21.4825Z" fill="#8D8B86"/>
<path d="M18.1678 22.5001H18.1634L15.826 22.4413L9.88102 22.0145C9.83208 22.011 9.78655 21.9882 9.75438 21.9512C9.72222 21.9141 9.70605 21.8658 9.70942 21.8169C9.71634 21.7141 9.80654 21.6509 9.90742 21.6453L15.8436 22.0708L18.1722 22.1296C18.1964 22.1299 18.2204 22.1349 18.2427 22.1445C18.265 22.154 18.2852 22.1679 18.3022 22.1853C18.3191 22.2026 18.3325 22.2232 18.3415 22.2457C18.3506 22.2682 18.355 22.2923 18.3548 22.3166C18.3545 22.3408 18.3494 22.3648 18.3398 22.3871C18.3303 22.4094 18.3164 22.4296 18.2991 22.4466C18.2817 22.4636 18.2612 22.4769 18.2386 22.4859C18.2161 22.495 18.192 22.4995 18.1678 22.4992V22.5001Z" fill="#8D8B86"/>
<path d="M16.9876 23.5165H16.9832L15.8144 23.4873L9.88194 22.7267C9.85784 22.7237 9.83457 22.7159 9.81349 22.7038C9.7924 22.6917 9.77391 22.6756 9.75908 22.6563C9.74424 22.6371 9.73335 22.6151 9.72704 22.5916C9.72073 22.5682 9.71911 22.5437 9.72228 22.5196C9.72472 22.4952 9.73211 22.4716 9.74402 22.4501C9.75593 22.4287 9.77209 22.4099 9.79152 22.395C9.81095 22.38 9.83323 22.3692 9.85699 22.3632C9.88076 22.3572 9.90551 22.3561 9.92971 22.3599L15.8427 23.1202L16.992 23.1482C17.041 23.1488 17.0878 23.1688 17.122 23.2039C17.1563 23.2389 17.1752 23.2862 17.1746 23.3352C17.174 23.3842 17.154 23.431 17.1189 23.4652C17.0838 23.4994 17.0366 23.5184 16.9876 23.5178V23.5165Z" fill="#8D8B86"/>
<path d="M15.8073 24.5364C15.796 24.5364 15.7847 24.5351 15.7737 24.5326L9.88428 23.4382C9.83994 23.4256 9.80192 23.3969 9.77766 23.3577C9.7534 23.3185 9.74467 23.2717 9.75317 23.2264C9.76167 23.1811 9.7868 23.1406 9.82361 23.1129C9.86043 23.0851 9.90628 23.0722 9.95217 23.0765L15.8412 24.1708C15.8866 24.1793 15.9271 24.2044 15.955 24.2412C15.9828 24.278 15.9958 24.3239 15.9916 24.3699C15.9873 24.4158 15.9661 24.4585 15.932 24.4896C15.8979 24.5207 15.8534 24.5379 15.8073 24.5379V24.5364Z" fill="#8D8B86"/>
<path d="M15.8664 36.8846C15.8422 36.8847 15.8181 36.88 15.7956 36.8707C15.7732 36.8614 15.7528 36.8478 15.7356 36.8307C15.7184 36.8135 15.7048 36.7931 15.6955 36.7706C15.6863 36.7482 15.6816 36.7241 15.6816 36.6998L15.693 24.3509C15.6929 24.3267 15.6977 24.3027 15.7069 24.2802C15.7162 24.2578 15.7297 24.2374 15.7469 24.2203C15.764 24.2031 15.7844 24.1895 15.8068 24.1802C15.8292 24.1709 15.8532 24.1661 15.8774 24.1661C15.9017 24.1661 15.9258 24.1708 15.9483 24.18C15.9707 24.1893 15.9911 24.2029 16.0083 24.2201C16.0255 24.2373 16.0391 24.2577 16.0483 24.2801C16.0576 24.3026 16.0623 24.3266 16.0622 24.3509L16.0503 36.6998C16.0504 36.7487 16.0311 36.7956 15.9966 36.8302C15.9621 36.8649 15.9153 36.8844 15.8664 36.8846Z" fill="#8D8B86"/>
<path d="M14.8625 35.7422C14.8382 35.7423 14.8142 35.7376 14.7917 35.7283C14.7693 35.719 14.7489 35.7054 14.7317 35.6883C14.7145 35.6711 14.7009 35.6507 14.6916 35.6282C14.6824 35.6058 14.6777 35.5817 14.6777 35.5574L14.6878 24.1693C14.6878 24.1203 14.7073 24.0733 14.7419 24.0386C14.7766 24.004 14.8236 23.9845 14.8726 23.9845C14.8969 23.9844 14.921 23.9891 14.9434 23.9984C14.9659 24.0077 14.9863 24.0213 15.0035 24.0384C15.0206 24.0556 15.0342 24.076 15.0435 24.0985C15.0528 24.1209 15.0575 24.145 15.0574 24.1693L15.0473 35.5574C15.0473 35.6064 15.0279 35.6534 14.9932 35.6881C14.9586 35.7227 14.9115 35.7422 14.8625 35.7422Z" fill="#8D8B86"/>
<path d="M13.8606 34.5972C13.8363 34.5973 13.8122 34.5926 13.7898 34.5833C13.7673 34.5741 13.7469 34.5604 13.7297 34.5433C13.7125 34.5261 13.6989 34.5057 13.6897 34.4832C13.6804 34.4608 13.6757 34.4367 13.6758 34.4124L13.684 23.9857C13.684 23.9367 13.7034 23.8897 13.7381 23.855C13.7727 23.8204 13.8197 23.8009 13.8688 23.8009C13.893 23.8009 13.9171 23.8056 13.9395 23.8149C13.9619 23.8242 13.9823 23.8378 13.9994 23.855C14.0166 23.8721 14.0301 23.8925 14.0394 23.915C14.0486 23.9374 14.0533 23.9614 14.0532 23.9857L14.0451 34.4124C14.0451 34.4367 14.0404 34.4607 14.0311 34.4831C14.0219 34.5055 14.0083 34.5259 13.9911 34.5431C13.974 34.5602 13.9537 34.5738 13.9313 34.5831C13.9089 34.5924 13.8848 34.5972 13.8606 34.5972Z" fill="#8D8B86"/>
<path d="M12.8567 33.4537C12.8324 33.4538 12.8083 33.449 12.7859 33.4398C12.7634 33.4305 12.743 33.4169 12.7258 33.3997C12.7086 33.3826 12.695 33.3622 12.6858 33.3397C12.6765 33.3172 12.6718 33.2932 12.6719 33.2689L12.6782 23.8036C12.6782 23.7546 12.6976 23.7076 12.7323 23.6729C12.7669 23.6382 12.8139 23.6188 12.863 23.6188C12.8872 23.6187 12.9113 23.6234 12.9338 23.6327C12.9562 23.6419 12.9766 23.6555 12.9938 23.6727C13.011 23.6899 13.0246 23.7103 13.0339 23.7328C13.0431 23.7552 13.0478 23.7793 13.0478 23.8036L13.0415 33.2689C13.0415 33.3179 13.022 33.3649 12.9873 33.3996C12.9527 33.4342 12.9057 33.4537 12.8567 33.4537Z" fill="#8D8B86"/>
<path d="M11.8547 32.3099C11.8304 32.31 11.8064 32.3053 11.7839 32.296C11.7614 32.2867 11.741 32.2731 11.7239 32.256C11.7067 32.2388 11.6931 32.2184 11.6838 32.1959C11.6746 32.1735 11.6698 32.1494 11.6699 32.1251L11.6737 23.6212C11.6737 23.5722 11.6932 23.5252 11.7278 23.4905C11.7625 23.4559 11.8095 23.4364 11.8585 23.4364C11.8828 23.4364 11.9068 23.4411 11.9292 23.4504C11.9516 23.4597 11.972 23.4733 11.9891 23.4905C12.0063 23.5076 12.0199 23.528 12.0291 23.5505C12.0383 23.5729 12.0431 23.5969 12.043 23.6212L12.0395 32.1251C12.0395 32.1494 12.0347 32.1734 12.0255 32.1958C12.0162 32.2182 12.0026 32.2386 11.9854 32.2558C11.9682 32.2729 11.9479 32.2865 11.9254 32.2958C11.903 32.3051 11.879 32.3099 11.8547 32.3099Z" fill="#8D8B86"/>
<path d="M10.8528 31.1662C10.8285 31.1663 10.8044 31.1616 10.782 31.1523C10.7595 31.1431 10.7391 31.1294 10.7219 31.1123C10.7047 31.0951 10.6911 31.0747 10.6819 31.0522C10.6726 31.0298 10.6679 31.0057 10.668 30.9814L10.6705 23.4386C10.6705 23.3896 10.69 23.3426 10.7246 23.3079C10.7593 23.2733 10.8063 23.2538 10.8553 23.2538C10.8796 23.2537 10.9036 23.2584 10.9261 23.2677C10.9486 23.2769 10.969 23.2905 10.9861 23.3077C11.0033 23.3249 11.0169 23.3453 11.0262 23.3678C11.0354 23.3902 11.0402 23.4143 11.0401 23.4386L11.0376 30.9814C11.0376 31.0304 11.0181 31.0774 10.9834 31.1121C10.9488 31.1467 10.9018 31.1662 10.8528 31.1662Z" fill="#8D8B86"/>
<path d="M9.84886 30.0222C9.82461 30.0222 9.80059 30.0175 9.77817 30.0082C9.75575 29.999 9.73537 29.9854 9.71821 29.9683C9.70104 29.9511 9.68743 29.9308 9.67814 29.9084C9.66885 29.886 9.66406 29.8619 9.66406 29.8377V23.2566C9.66406 23.2076 9.68353 23.1606 9.71819 23.1259C9.75285 23.0912 9.79985 23.0718 9.84886 23.0718C9.89787 23.0718 9.94488 23.0912 9.97954 23.1259C10.0142 23.1606 10.0337 23.2076 10.0337 23.2566V29.838C10.0336 29.8622 10.0288 29.8862 10.0195 29.9086C10.0102 29.9309 9.99657 29.9513 9.97941 29.9684C9.96225 29.9855 9.94189 29.999 9.91949 30.0083C9.89709 30.0175 9.87309 30.0222 9.84886 30.0222Z" fill="#8D8B86"/>
<path d="M1.94868 15.3009H0.103516V3.52808H11.8754V5.37324H1.94868V15.3009Z" fill="#8D8B86"/>
<path d="M11.8754 40.5482H0.103516V28.7758H1.94868V38.7034H11.8754V40.5482Z" fill="#8D8B86"/>
<path d="M36.2484 15.3009H34.4036V5.37324H24.4766V3.52808H36.2484V15.3009Z" fill="#8D8B86"/>
<path d="M36.2484 40.5482H24.4766V38.7034H34.4036V28.7758H36.2484V40.5482Z" fill="#8D8B86"/>
<path d="M56.3039 9.57805H67.8961V13.2326H56.3039C55.7475 13.2325 55.1926 13.29 54.6481 13.4041C52.9856 13.7719 51.5706 14.5905 50.4031 15.8598C50.2784 16.0119 50.1516 16.1705 50.0228 16.3355C50.0171 16.3401 50.0125 16.3459 50.0092 16.3525C50.0059 16.359 50.0039 16.3662 50.0035 16.3735L49.9654 16.4115C49.8516 16.5645 49.7437 16.7232 49.6419 16.8878C49.6393 16.8875 49.6368 16.8878 49.6344 16.8886C49.632 16.8895 49.6298 16.8908 49.628 16.8926C49.6262 16.8944 49.6248 16.8966 49.624 16.899C49.6232 16.9014 49.6229 16.904 49.6232 16.9065C49.6235 16.9091 49.6232 16.9118 49.6223 16.9143C49.6214 16.9167 49.62 16.919 49.6182 16.9209C49.6163 16.9227 49.6141 16.9241 49.6116 16.925C49.6091 16.9259 49.6065 16.9262 49.6038 16.9259V16.2787C49.5919 15.095 49.9045 13.9307 50.5078 12.9122C51.0977 11.9102 51.9329 11.075 52.9349 10.4851C53.9539 9.88063 55.1191 9.5669 56.3039 9.57805ZM53.2397 15.189C53.2754 15.1778 53.3078 15.1584 53.3345 15.1322C53.3449 15.133 53.3553 15.1316 53.3651 15.1283C53.3749 15.125 53.384 15.1198 53.3918 15.1129H53.4105C53.4462 15.089 53.4847 15.0697 53.5253 15.0556C53.3473 15.4371 53.2562 15.8534 53.2584 16.2744V32.72H49.6038V21.1484C49.6035 20.3898 49.7323 19.6368 49.9848 18.9215C50.0972 18.6081 50.2307 18.3028 50.3844 18.0075C50.6448 17.5295 50.9585 17.0826 51.3195 16.6752C51.3959 16.5856 51.4793 16.5022 51.5689 16.4259C51.581 16.401 51.6009 16.3808 51.6257 16.3685C51.6268 16.3538 51.6338 16.3401 51.645 16.3305C51.6498 16.325 51.6556 16.3205 51.6621 16.3173C51.6686 16.3141 51.6757 16.3122 51.683 16.3118C51.7207 16.261 51.7656 16.216 51.8164 16.1784C51.8385 16.1552 51.8642 16.1359 51.8925 16.121L51.9685 16.0449C52.0097 16.0171 52.0479 15.9851 52.0826 15.9496C52.1049 15.9269 52.1306 15.9077 52.1587 15.8928L52.3495 15.7407C52.3799 15.7197 52.4115 15.7005 52.4442 15.6834L52.4823 15.6453C52.492 15.6342 52.5056 15.6273 52.5203 15.626C52.5616 15.5984 52.6001 15.5666 52.635 15.5312C52.6707 15.5198 52.7031 15.5002 52.7298 15.4739C52.75 15.4716 52.7695 15.4653 52.7871 15.4552C52.7918 15.4495 52.7976 15.4449 52.8041 15.4416C52.8107 15.4382 52.8178 15.4363 52.8251 15.4358L52.9392 15.3598C52.9662 15.3336 52.9988 15.314 53.0346 15.3024L53.0726 15.2837C53.0823 15.2725 53.0959 15.2656 53.1107 15.2644C53.1553 15.242 53.1984 15.2168 53.2397 15.189ZM58.1692 20.7662V20.8042C58.1557 20.8201 58.149 20.8408 58.1505 20.8616C58.1374 20.9562 58.131 21.0516 58.1312 21.1471C58.1319 21.2426 58.1383 21.338 58.1505 21.4327C58.1528 21.4527 58.1592 21.472 58.1692 21.4894V21.5087C58.1697 21.5716 58.1762 21.6342 58.1886 21.6958C58.2002 21.7284 58.2065 21.7627 58.2073 21.7974C58.2203 21.8614 58.2393 21.924 58.264 21.9844C58.2641 22.011 58.2707 22.0371 58.2833 22.0605C58.3083 22.1365 58.3338 22.2064 58.3594 22.2699V22.2893L58.3781 22.3273C58.4161 22.4158 58.4541 22.4987 58.4928 22.5767C58.4925 22.5792 58.4928 22.5818 58.4936 22.5842C58.4944 22.5866 58.4958 22.5888 58.4976 22.5906C58.4994 22.5924 58.5016 22.5937 58.504 22.5946C58.5064 22.5954 58.509 22.5957 58.5115 22.5954C58.5119 22.6027 58.5138 22.6099 58.5171 22.6164C58.5204 22.623 58.5251 22.6288 58.5308 22.6334C58.5545 22.6946 58.5864 22.7523 58.6256 22.8049C58.6378 22.8298 58.658 22.85 58.6829 22.8622V22.8809C58.6939 22.8907 58.7006 22.9043 58.7016 22.9189C58.7114 22.9398 58.7242 22.9592 58.7397 22.9763H54.4766V19.3217H58.7596L58.7216 19.3598C58.716 19.3645 58.7114 19.3703 58.7081 19.3768C58.7048 19.3833 58.7028 19.3905 58.7023 19.3978C58.6997 19.3975 58.6972 19.3978 58.6948 19.3986C58.6924 19.3994 58.6902 19.4008 58.6884 19.4026C58.6866 19.4044 58.6852 19.4066 58.6844 19.409C58.6835 19.4114 58.6833 19.414 58.6836 19.4165C58.6681 19.4336 58.6552 19.4529 58.6455 19.4738L58.5314 19.6453V19.6833C58.5184 19.6833 58.5121 19.6895 58.5121 19.702C58.4616 19.7912 58.4167 19.8735 58.3787 19.9514V19.9894L58.36 20.0088L58.2839 20.2182C58.2848 20.2285 58.2835 20.2388 58.2802 20.2486C58.2768 20.2583 58.2715 20.2673 58.2646 20.275V20.313C58.2495 20.3713 58.2306 20.4286 58.2079 20.4844C58.2088 20.5173 58.2022 20.5499 58.1886 20.5798C58.1761 20.6416 58.1696 20.7044 58.1692 20.7675V20.7662ZM62.4903 19.8529C62.8456 20.2332 63.0233 20.6646 63.0233 21.1471C63.0274 21.3887 62.9813 21.6284 62.8879 21.8512C62.7945 22.074 62.6559 22.2749 62.4809 22.4414C62.3138 22.6124 62.1138 22.7477 61.893 22.8393C61.6722 22.9309 61.4351 22.9769 61.196 22.9744C60.9556 22.9763 60.7173 22.9302 60.495 22.8386C60.2728 22.7471 60.0711 22.612 59.9018 22.4414C59.5464 22.0607 59.3687 21.6293 59.3687 21.1471C59.3677 20.9069 59.4143 20.6688 59.5058 20.4467C59.5973 20.2246 59.7318 20.0227 59.9017 19.8528C60.0716 19.683 60.2734 19.5484 60.4956 19.4569C60.7177 19.3654 60.9558 19.3189 61.196 19.3199C61.6786 19.3207 62.11 19.4988 62.4903 19.8541V19.8529Z" fill="#8D8B86"/>
<path d="M90.3238 16.8263C90.319 16.8319 90.3132 16.8365 90.3067 16.8398C90.3002 16.8432 90.293 16.8451 90.2857 16.8457C90.286 16.8482 90.2857 16.8508 90.2849 16.8532C90.2841 16.8556 90.2827 16.8578 90.2809 16.8596C90.2791 16.8614 90.2769 16.8627 90.2745 16.8636C90.2721 16.8644 90.2696 16.8647 90.267 16.8644C90.3053 16.6701 90.3243 16.4726 90.3238 16.2746C90.3215 15.4675 89.9999 14.6942 89.4292 14.1234C88.8586 13.5527 88.0853 13.231 87.2783 13.2285H70.832V9.57703H87.2783C88.4582 9.57703 89.464 9.99265 90.2957 10.8239C91.1274 11.6551 91.543 12.6607 91.5426 13.8407C91.5426 13.9804 91.5363 14.12 91.5239 14.2597V14.355C91.5169 14.3627 91.5117 14.3716 91.5083 14.3814C91.505 14.3912 91.5037 14.4015 91.5045 14.4118V14.4311C91.4921 14.5196 91.4796 14.6025 91.4665 14.6805C91.4542 14.7173 91.4479 14.7558 91.4478 14.7946C91.4408 14.8023 91.4355 14.8114 91.4322 14.8212C91.4289 14.8311 91.4276 14.8415 91.4285 14.8519C91.4275 14.8665 91.4207 14.8802 91.4098 14.8899C91.3947 14.9608 91.3756 15.0308 91.3524 15.0994L91.3144 15.2135C91.3139 15.2208 91.3119 15.2279 91.3086 15.2345C91.3053 15.241 91.3007 15.2468 91.2951 15.2515V15.2896L91.219 15.4766C91.2052 15.517 91.1861 15.5553 91.1623 15.5907C91.1601 15.611 91.1535 15.6306 91.1429 15.648L91.1242 15.6674C91.0987 15.7297 91.0731 15.7877 91.0482 15.8382C91.0255 15.8843 90.9999 15.9288 90.9715 15.9716C90.966 15.9764 90.9615 15.9822 90.9583 15.9887C90.9551 15.9953 90.9532 16.0024 90.9528 16.0096L90.8387 16.1967C90.8033 16.2317 90.7714 16.2702 90.7433 16.3114C90.7428 16.3187 90.7408 16.3258 90.7375 16.3323C90.7342 16.3389 90.7296 16.3447 90.724 16.3494C90.686 16.3999 90.6417 16.4573 90.5912 16.5202C90.5503 16.5621 90.5122 16.6067 90.4771 16.6536C90.4293 16.7141 90.3781 16.7718 90.3238 16.8263ZM74.4885 23.5838V32.7202H70.832V19.3201H87.2783C87.3802 19.3202 87.482 19.3137 87.5831 19.3008H87.6018C87.6659 19.3007 87.7298 19.2944 87.7926 19.2821H87.8687C87.899 19.2706 87.931 19.2641 87.9634 19.2627C88.0149 19.2627 88.0662 19.2564 88.1162 19.244C88.1785 19.2309 88.249 19.2185 88.325 19.206C88.3517 19.2055 88.378 19.1989 88.4017 19.1867C88.4282 19.1864 88.4543 19.1798 88.4778 19.1673C88.529 19.1673 88.5801 19.161 88.6299 19.1486C88.6985 19.1253 88.7684 19.1062 88.8394 19.0913L88.9154 19.0533C88.9419 19.053 88.9679 19.0466 88.9915 19.0345C89.042 19.0215 89.0869 19.009 89.1249 18.9965C89.2009 18.971 89.2708 18.9454 89.3344 18.9205L89.4865 18.8438C89.5323 18.8281 89.5768 18.8091 89.6199 18.787C89.6807 18.7628 89.7382 18.7307 89.7907 18.6917L89.9435 18.6156C89.9839 18.6018 90.0223 18.5825 90.0575 18.5582L90.2477 18.4442C90.2649 18.4288 90.2842 18.416 90.305 18.4061C90.327 18.383 90.3527 18.3638 90.3811 18.3494L90.4952 18.2727C90.5491 18.2322 90.5999 18.1878 90.6473 18.1399L90.7234 18.1019C90.7356 18.0769 90.7558 18.0567 90.7807 18.0445C90.8217 18.0165 90.86 17.9845 90.8948 17.9491C90.9488 17.9085 90.9998 17.8641 91.0476 17.8164L91.1617 17.7016C91.1994 17.6769 91.2317 17.6447 91.2564 17.6069C91.3044 17.5594 91.349 17.5085 91.3898 17.4548L91.4472 17.3974L91.5039 17.3213L91.5993 17.226C91.6403 17.1709 91.6784 17.1136 91.7134 17.0545C91.7233 17.0339 91.7361 17.0148 91.7514 16.9978C91.7743 16.9755 91.7936 16.9498 91.8088 16.9217L91.8848 16.807C91.92 16.7482 91.958 16.6912 91.9989 16.6362L92.075 16.4835L92.151 16.3694C92.178 16.3046 92.2098 16.2421 92.2464 16.1823C92.2465 16.1558 92.2532 16.1297 92.2658 16.1063L92.3038 16.0302C92.3301 15.9893 92.3493 15.9442 92.3605 15.8968C92.3861 15.8345 92.4116 15.7634 92.4366 15.6873L92.4746 15.6113C92.475 15.5848 92.4817 15.5587 92.4939 15.5352L92.532 15.4211L92.608 15.1543V15.0976C92.6205 15.0739 92.6272 15.0476 92.6273 15.0209L92.6654 14.9068C92.6903 14.7671 92.7096 14.6343 92.7221 14.5072V14.4498C92.7347 14.4264 92.7413 14.4003 92.7414 14.3737C92.7539 14.1959 92.7601 14.0182 92.7601 13.8407C92.7601 13.6886 92.7539 13.5431 92.7414 13.4043V13.3282C92.729 13.2036 92.7099 13.0703 92.6841 12.9286V12.8526C92.6591 12.7254 92.6276 12.5922 92.5893 12.4529V12.4336L92.4746 12.0527L92.4559 12.034V12.0084C93.4709 13.2399 93.9783 14.6614 93.9783 16.2727C93.9904 17.4564 93.6777 18.6208 93.0744 19.6393C92.4847 20.6413 91.6494 21.4766 90.6473 22.0663C89.6288 22.6695 88.4645 22.9822 87.2808 22.9703H75.0963C74.9354 22.9724 74.7817 23.0372 74.668 23.151C74.5542 23.2648 74.4893 23.4185 74.4872 23.5794L74.4885 23.5838ZM93.368 32.7202H88.8013L82.4055 24.1929H86.974L93.368 32.7202Z" fill="#8D8B86"/>
<path d="M100.415 32.7202H96.7363V9.57703H100.415V32.7202Z" fill="#8D8B86"/>
<path d="M107.727 32.7204H104.072V11.1539L107.727 17.2455V32.7204ZM118.424 32.7204L104.532 9.57722H107.996L121.891 32.7235L118.424 32.7204ZM118.691 9.5741H122.346V31.1406L118.691 25.0496V9.5741Z" fill="#8D8B86"/>
<path d="M126.682 32.7202V9.57703H130.338V32.7233L126.682 32.7202ZM143.394 9.57703H148.991L134.601 23.9485L131.821 21.1505L143.394 9.57703ZM135.476 24.8051L138.274 22.0071L148.991 32.7233H143.395L135.476 24.8051Z" fill="#8D8B86"/>
<path d="M174.291 13.2286H157.54V13.2479H157.52C157.457 13.2482 157.395 13.2544 157.333 13.2666H157.162C157.112 13.2795 157.061 13.286 157.01 13.286C156.939 13.3005 156.869 13.3197 156.8 13.3433H156.724C156.694 13.3567 156.661 13.3631 156.629 13.362C156.591 13.3745 156.546 13.3876 156.495 13.4C156.424 13.4116 156.354 13.4309 156.286 13.4574C156.263 13.4694 156.236 13.4759 156.21 13.4761L156.134 13.5141C156.083 13.5272 156.039 13.5397 156.001 13.5522C155.924 13.5779 155.854 13.6035 155.791 13.6288L155.715 13.6669C155.692 13.6789 155.665 13.6853 155.639 13.6856C155.598 13.7121 155.553 13.7315 155.506 13.7429L155.334 13.8377L155.182 13.9144C155.139 13.9422 155.095 13.9676 155.049 13.9904C154.994 14.0315 154.937 14.0695 154.877 14.1045C154.861 14.12 154.841 14.1329 154.821 14.1426L154.744 14.1806L154.63 14.2566C154.579 14.3082 154.521 14.353 154.459 14.3901L154.402 14.4468C154.385 14.4625 154.365 14.4756 154.344 14.4854C154.31 14.5207 154.271 14.5524 154.23 14.5802L154.021 14.7897C154.004 14.8052 153.985 14.818 153.964 14.8277C153.929 14.8626 153.897 14.9008 153.869 14.9418C153.821 14.9896 153.776 15.0406 153.735 15.0945C153.71 15.1063 153.69 15.1264 153.679 15.1513L153.621 15.2086L153.526 15.3227C153.485 15.3778 153.447 15.435 153.412 15.4942L153.355 15.5509L153.316 15.627L153.24 15.7417C153.199 15.7966 153.161 15.8537 153.126 15.9125L153.088 15.9892C153.073 16.0059 153.06 16.0251 153.05 16.0459C153.028 16.0919 153.002 16.1365 152.974 16.1793C152.947 16.244 152.915 16.3066 152.879 16.3664C152.867 16.3899 152.86 16.416 152.86 16.4424L152.822 16.5185C152.798 16.554 152.779 16.5926 152.765 16.6332C152.728 16.705 152.702 16.7819 152.689 16.8614L152.651 16.9374C152.65 16.964 152.644 16.9901 152.631 17.0135L152.593 17.1276C152.568 17.2167 152.543 17.299 152.517 17.3769C152.505 17.428 152.492 17.4789 152.479 17.5297C152.479 17.5685 152.473 17.607 152.46 17.6438C152.434 17.7758 152.415 17.9092 152.403 18.0434C152.401 18.0637 152.394 18.0832 152.384 18.1007V18.1575C152.371 18.3483 152.365 18.5324 152.365 18.7098C152.365 18.8495 152.371 18.9885 152.384 19.1282V19.2049C152.396 19.339 152.415 19.4724 152.441 19.6045V19.6805C152.466 19.8154 152.497 19.9488 152.536 20.0802V20.1182C152.575 20.2454 152.613 20.3659 152.651 20.4798C152.651 20.4929 152.657 20.4991 152.669 20.4991V20.5178C151.654 19.2996 151.147 17.8848 151.147 16.2735C151.135 15.0898 151.447 13.9254 152.051 12.9069C152.641 11.905 153.476 11.0697 154.478 10.4799C155.496 9.8767 156.661 9.56406 157.844 9.57588H174.291V13.2286ZM174.291 26.0203C174.303 27.204 173.99 28.3684 173.387 29.3868C172.797 30.3889 171.962 31.2242 170.96 31.8139C169.941 32.4172 168.777 32.7299 167.593 32.7178H151.147V29.0657H167.593C167.695 29.0657 167.796 29.0595 167.897 29.047C167.968 29.0474 168.038 29.0409 168.107 29.0277H168.181C168.213 29.0264 168.246 29.0201 168.276 29.009H168.41C168.487 28.9958 168.563 28.9766 168.638 28.9517H168.714C168.737 28.9394 168.764 28.9328 168.79 28.9323L168.942 28.8943C169.013 28.8799 169.083 28.861 169.152 28.8376C169.175 28.8251 169.201 28.8185 169.228 28.8182L169.304 28.7802C169.355 28.7677 169.399 28.7547 169.437 28.7422C169.513 28.7166 169.583 28.6917 169.647 28.6661L169.723 28.6281C169.746 28.6159 169.772 28.6093 169.799 28.6088C169.834 28.5849 169.873 28.5658 169.913 28.552C169.973 28.5153 170.036 28.4834 170.1 28.4566L170.253 28.3806L170.367 28.3045C170.426 28.2696 170.483 28.2315 170.538 28.1904L170.69 28.1144C170.731 28.0864 170.77 28.0544 170.805 28.019L170.957 27.9049C170.979 27.8817 171.005 27.8624 171.033 27.8476L171.091 27.7908L171.205 27.7141L171.471 27.4479C171.509 27.4227 171.541 27.3903 171.566 27.3525C171.614 27.305 171.659 27.2542 171.7 27.2004L171.756 27.1431C171.769 27.1183 171.789 27.0984 171.814 27.0863C171.842 27.0453 171.873 27.0071 171.908 26.9722C171.95 26.9172 171.988 26.86 172.023 26.8008C172.039 26.7837 172.051 26.7643 172.061 26.7434C172.084 26.7214 172.103 26.6957 172.118 26.6674L172.194 26.5533C172.235 26.4984 172.274 26.4411 172.309 26.3819L172.347 26.3058C172.356 26.2847 172.369 26.2654 172.385 26.2484C172.407 26.2025 172.433 26.1582 172.461 26.1157L172.537 25.9249L172.613 25.7728C172.637 25.7374 172.656 25.699 172.67 25.6587L172.746 25.4305C172.758 25.4067 172.765 25.3805 172.765 25.3538L172.803 25.2777L172.842 25.1637C172.865 25.0817 172.884 24.9984 172.898 24.9143C172.911 24.8909 172.918 24.8648 172.918 24.8382C172.93 24.8147 172.936 24.7886 172.936 24.7622L172.975 24.6481C173.001 24.516 173.02 24.3826 173.032 24.2485V24.1911C173.044 24.1675 173.05 24.1415 173.051 24.115C173.063 23.9372 173.07 23.7595 173.07 23.582C173.07 23.4424 173.063 23.3027 173.051 23.1631V23.087C173.039 22.9528 173.02 22.8194 172.994 22.6874V22.6113C172.969 22.4764 172.938 22.343 172.898 22.2117V22.1737C172.86 22.049 172.822 21.9243 172.784 21.8114L172.765 21.7927V21.7547C173.782 22.9879 174.291 24.4097 174.291 26.0203ZM167.591 19.3202C168.771 19.3202 169.777 19.7358 170.607 20.5671C171.438 21.3983 171.854 22.4039 171.854 23.5839C171.854 23.736 171.848 23.8815 171.835 24.0203C171.835 24.0467 171.828 24.0728 171.816 24.0963V24.1724L171.778 24.4392C171.763 24.47 171.75 24.5019 171.74 24.5346V24.5913C171.734 24.596 171.73 24.6018 171.727 24.6084C171.723 24.6149 171.721 24.622 171.721 24.6294C171.709 24.701 171.69 24.7712 171.664 24.8389L171.625 24.9529C171.623 24.9731 171.617 24.9927 171.607 25.0103V25.029L171.531 25.2198C171.517 25.2601 171.497 25.2985 171.473 25.3339L171.455 25.3906L171.435 25.4099L171.359 25.5969L171.283 25.7117C171.278 25.7164 171.273 25.7222 171.27 25.7287C171.266 25.7353 171.264 25.7424 171.264 25.7497H171.245C171.218 25.8144 171.186 25.8769 171.15 25.9367C171.111 25.9756 171.079 26.0207 171.055 26.0701C171.042 26.0701 171.036 26.0764 171.036 26.0888C170.985 26.1512 170.94 26.2098 170.902 26.2603C170.867 26.3073 170.829 26.3519 170.788 26.3937L170.769 26.4124C170.729 26.4661 170.684 26.5169 170.636 26.5645C170.631 26.5701 170.625 26.5747 170.619 26.578C170.612 26.5814 170.605 26.5833 170.598 26.5839C170.598 26.5912 170.596 26.5983 170.592 26.6049C170.589 26.6114 170.584 26.6172 170.579 26.6219C170.617 26.4211 170.636 26.2171 170.636 26.0128C170.634 25.2058 170.312 24.4326 169.741 23.862C169.171 23.2914 168.397 22.9698 167.591 22.9673H157.844C156.664 22.9673 155.658 22.5517 154.828 21.7204C153.997 20.8892 153.581 19.8836 153.581 18.7036C153.581 18.5511 153.587 18.4056 153.599 18.2672V18.1912C153.61 18.1739 153.616 18.1545 153.619 18.1344V18.1182L153.657 17.852C153.67 17.8221 153.677 17.7895 153.676 17.7566C153.686 17.739 153.693 17.7195 153.695 17.6993C153.695 17.692 153.697 17.6848 153.701 17.6783C153.704 17.6718 153.709 17.666 153.714 17.6612C153.726 17.5898 153.745 17.5198 153.771 17.4524C153.772 17.4112 153.785 17.3713 153.809 17.3377C153.811 17.3176 153.818 17.2983 153.828 17.2809V17.2616L153.904 17.0746C153.918 17.0341 153.937 16.9957 153.962 16.9605C153.961 16.9502 153.962 16.9398 153.965 16.9299C153.968 16.9201 153.974 16.911 153.98 16.9031V16.8844C154.017 16.8234 154.049 16.7596 154.076 16.6937L154.152 16.5796C154.152 16.5723 154.154 16.5652 154.157 16.5587C154.161 16.5521 154.165 16.5463 154.17 16.5415V16.5222C154.212 16.4674 154.25 16.4104 154.285 16.3514L154.38 16.218L154.399 16.1986C154.436 16.1364 154.481 16.079 154.533 16.0278C154.567 15.9806 154.606 15.9361 154.647 15.8944V15.8738L154.856 15.665C154.818 15.8658 154.799 16.0697 154.799 16.2741C154.801 17.081 155.123 17.8542 155.694 18.4248C156.264 18.9954 157.037 19.3171 157.844 19.3196L167.591 19.3202Z" fill="#8D8B86"/>
</svg>
