<svg width="175" height="46" viewBox="0 0 175 46" fill="none" xmlns="http://www.w3.org/2000/svg">
<path d="M9.84886 19.1608C9.79985 19.1608 9.75285 19.1413 9.71819 19.1067C9.68353 19.072 9.66406 19.025 9.66406 18.976V9.95605H29.4791C29.5281 9.95605 29.5751 9.97552 29.6097 10.0102C29.6444 10.0448 29.6639 10.0918 29.6639 10.1409C29.6639 10.1899 29.6444 10.2369 29.6097 10.2715C29.5751 10.3062 29.5281 10.3257 29.4791 10.3257H10.0337V18.976C10.0337 19.025 10.0142 19.072 9.97953 19.1067C9.94488 19.1413 9.89787 19.1608 9.84886 19.1608Z" fill="#9A9B9C"/>
<path d="M10.8528 19.01C10.8038 19.01 10.7568 18.9906 10.7221 18.9559C10.6874 18.9212 10.668 18.8742 10.668 18.8252V10.8047H28.3804C28.4294 10.8047 28.4764 10.8242 28.5111 10.8588C28.5457 10.8935 28.5652 10.9405 28.5652 10.9895C28.5652 11.0385 28.5457 11.0855 28.5111 11.1202C28.4764 11.1548 28.4294 11.1743 28.3804 11.1743H11.036V18.8252C11.036 18.874 11.0167 18.9207 10.9824 18.9553C10.9481 18.99 10.9015 19.0096 10.8528 19.01Z" fill="#9A9B9C"/>
<path d="M11.8547 18.8584C11.8057 18.8584 11.7587 18.839 11.724 18.8043C11.6894 18.7697 11.6699 18.7227 11.6699 18.6736V11.6535H27.2823C27.3072 11.6525 27.332 11.6565 27.3553 11.6653C27.3786 11.6741 27.3999 11.6875 27.4179 11.7048C27.4359 11.722 27.4502 11.7427 27.4599 11.7656C27.4697 11.7886 27.4747 11.8132 27.4747 11.8381C27.4747 11.863 27.4697 11.8877 27.4599 11.9106C27.4502 11.9335 27.4359 11.9542 27.4179 11.9715C27.3999 11.9887 27.3786 12.0021 27.3553 12.011C27.332 12.0198 27.3072 12.0238 27.2823 12.0228H12.0395V18.6736C12.0395 18.7227 12.0201 18.7697 11.9854 18.8043C11.9507 18.839 11.9037 18.8584 11.8547 18.8584Z" fill="#9A9B9C"/>
<path d="M12.8567 18.7085C12.8077 18.7085 12.7607 18.689 12.726 18.6543C12.6913 18.6197 12.6719 18.5727 12.6719 18.5237V12.5029H26.1839C26.2329 12.5029 26.2799 12.5224 26.3146 12.5571C26.3492 12.5917 26.3687 12.6387 26.3687 12.6877C26.3687 12.7367 26.3492 12.7837 26.3146 12.8184C26.2799 12.8531 26.2329 12.8725 26.1839 12.8725H13.0415V18.523C13.0416 18.5474 13.0368 18.5715 13.0276 18.594C13.0183 18.6165 13.0047 18.6369 12.9876 18.6541C12.9704 18.6714 12.95 18.685 12.9275 18.6943C12.9051 18.7037 12.881 18.7085 12.8567 18.7085Z" fill="#9A9B9C"/>
<path d="M13.8606 18.5556C13.8116 18.5556 13.7646 18.5362 13.7299 18.5015C13.6953 18.4668 13.6758 18.4198 13.6758 18.3708V13.3511H25.0871C25.1361 13.3511 25.1831 13.3705 25.2178 13.4052C25.2525 13.4399 25.2719 13.4869 25.2719 13.5359C25.2719 13.5849 25.2525 13.6319 25.2178 13.6665C25.1831 13.7012 25.1361 13.7207 25.0871 13.7207H14.0451V18.3721C14.0448 18.4208 14.0253 18.4675 13.9907 18.5019C13.9561 18.5363 13.9093 18.5556 13.8606 18.5556Z" fill="#9A9B9C"/>
<path d="M14.8645 18.4048C14.8155 18.4048 14.7685 18.3854 14.7338 18.3507C14.6992 18.316 14.6797 18.269 14.6797 18.22V14.1997H23.9891C24.0381 14.1997 24.0851 14.2192 24.1198 14.2538C24.1544 14.2885 24.1739 14.3355 24.1739 14.3845C24.1739 14.4335 24.1544 14.4805 24.1198 14.5152C24.0851 14.5498 24.0381 14.5693 23.9891 14.5693H15.0493V18.22C15.0493 18.269 15.0298 18.316 14.9952 18.3507C14.9605 18.3854 14.9135 18.4048 14.8645 18.4048Z" fill="#9A9B9C"/>
<path d="M15.8664 18.2536C15.8174 18.2536 15.7704 18.2341 15.7358 18.1995C15.7011 18.1648 15.6816 18.1178 15.6816 18.0688V15.0495H22.8901C22.915 15.0484 22.9398 15.0525 22.9631 15.0613C22.9864 15.0701 23.0077 15.0835 23.0256 15.1008C23.0436 15.118 23.0579 15.1387 23.0677 15.1616C23.0774 15.1846 23.0825 15.2092 23.0825 15.2341C23.0825 15.259 23.0774 15.2837 23.0677 15.3066C23.0579 15.3295 23.0436 15.3502 23.0256 15.3675C23.0077 15.3847 22.9864 15.3981 22.9631 15.407C22.9398 15.4158 22.915 15.4198 22.8901 15.4188H16.0509V18.0688C16.051 18.0931 16.0462 18.1171 16.037 18.1395C16.0277 18.1619 16.0141 18.1823 15.997 18.1995C15.9799 18.2166 15.9595 18.2302 15.9371 18.2395C15.9147 18.2488 15.8907 18.2536 15.8664 18.2536Z" fill="#9A9B9C"/>
<path d="M9.8481 19.1608C9.80162 19.1606 9.75692 19.1429 9.72291 19.1112C9.6889 19.0795 9.66807 19.0362 9.66458 18.9899C9.6611 18.9435 9.6752 18.8976 9.70408 18.8611C9.73297 18.8247 9.77452 18.8005 9.82044 18.7934L15.8494 17.8857L22.8934 18.0605C22.9177 18.061 22.9415 18.0663 22.9637 18.0761C22.9859 18.0858 23.0059 18.0999 23.0227 18.1174C23.0394 18.1349 23.0526 18.1555 23.0614 18.1781C23.0701 18.2007 23.0744 18.2248 23.0738 18.2491C23.0713 18.3512 22.9912 18.4156 22.8853 18.4295L15.8729 18.2528L9.87544 19.1589C9.86638 19.1602 9.85724 19.1608 9.8481 19.1608Z" fill="#9A9B9C"/>
<path d="M9.85927 19.8748C9.81134 19.8755 9.76502 19.8575 9.73009 19.8247C9.69517 19.7918 9.67437 19.7467 9.67209 19.6988C9.6698 19.6509 9.68621 19.604 9.71785 19.568C9.7495 19.532 9.79389 19.5097 9.84167 19.5058L15.8486 18.9316L21.7131 19.0781C21.7374 19.0786 21.7613 19.0839 21.7834 19.0937C21.8056 19.1035 21.8256 19.1175 21.8424 19.135C21.8592 19.1525 21.8723 19.1732 21.8811 19.1957C21.8898 19.2183 21.8941 19.2424 21.8935 19.2667C21.891 19.3688 21.7992 19.4301 21.705 19.4471L15.8624 19.3L9.87718 19.8742C9.87123 19.8747 9.86525 19.8749 9.85927 19.8748Z" fill="#9A9B9C"/>
<path d="M9.87009 20.5881C9.82108 20.589 9.77369 20.5705 9.73836 20.5365C9.70302 20.5025 9.68263 20.4559 9.68168 20.4069C9.68072 20.3579 9.69927 20.3105 9.73325 20.2751C9.76723 20.2398 9.81385 20.2194 9.86286 20.2185L15.8459 19.978L20.5319 20.0959C20.5561 20.0964 20.58 20.1016 20.6022 20.1114C20.6244 20.1211 20.6445 20.1352 20.6612 20.1527C20.678 20.1702 20.6911 20.1909 20.6999 20.2135C20.7086 20.2361 20.7128 20.2602 20.7123 20.2845C20.7098 20.3866 20.6321 20.4451 20.5237 20.4649L15.8484 20.3476L9.877 20.5881H9.87009Z" fill="#9A9B9C"/>
<path d="M19.3479 21.4829H19.3435L15.8374 21.3945L9.87855 21.3003C9.82953 21.2998 9.7827 21.28 9.74833 21.245C9.71397 21.2101 9.6949 21.1629 9.69532 21.1139C9.69574 21.0649 9.71561 21.018 9.75056 20.9837C9.78551 20.9493 9.83268 20.9303 9.88169 20.9307H9.88483L15.8449 21.025L19.352 21.1133C19.401 21.1138 19.4478 21.1338 19.4821 21.1688C19.5164 21.2039 19.5353 21.2511 19.5348 21.3001C19.5342 21.3491 19.5142 21.3959 19.4792 21.4302C19.4442 21.4645 19.3969 21.4834 19.3479 21.4829Z" fill="#9A9B9C"/>
<path d="M18.1678 22.5004H18.1634L15.826 22.4416L9.88102 22.0148C9.83208 22.0112 9.78655 21.9885 9.75438 21.9514C9.72222 21.9143 9.70605 21.8661 9.70942 21.8171C9.71634 21.7143 9.80654 21.6512 9.90742 21.6455L15.8436 22.071L18.1722 22.1298C18.1964 22.1301 18.2204 22.1352 18.2427 22.1447C18.265 22.1543 18.2852 22.1681 18.3022 22.1855C18.3191 22.2029 18.3325 22.2234 18.3415 22.2459C18.3506 22.2685 18.355 22.2926 18.3548 22.3168C18.3545 22.3411 18.3494 22.3651 18.3398 22.3874C18.3303 22.4097 18.3164 22.4299 18.2991 22.4468C18.2817 22.4638 18.2612 22.4772 18.2386 22.4862C18.2161 22.4952 18.192 22.4997 18.1678 22.4994V22.5004Z" fill="#9A9B9C"/>
<path d="M16.9876 23.5168H16.9832L15.8144 23.4875L9.88194 22.727C9.85784 22.7239 9.83457 22.7161 9.81349 22.704C9.7924 22.6919 9.77391 22.6758 9.75908 22.6566C9.74424 22.6373 9.73335 22.6153 9.72704 22.5919C9.72073 22.5684 9.71911 22.5439 9.72228 22.5198C9.72472 22.4955 9.73211 22.4718 9.74402 22.4504C9.75593 22.4289 9.77209 22.4102 9.79152 22.3952C9.81095 22.3803 9.83323 22.3694 9.85699 22.3634C9.88076 22.3574 9.90551 22.3563 9.92971 22.3602L15.8427 23.1204L16.992 23.1484C17.041 23.149 17.0878 23.169 17.122 23.2041C17.1563 23.2392 17.1752 23.2864 17.1746 23.3354C17.174 23.3844 17.154 23.4312 17.1189 23.4654C17.0838 23.4997 17.0366 23.5186 16.9876 23.518V23.5168Z" fill="#9A9B9C"/>
<path d="M15.8073 24.5368C15.796 24.5369 15.7847 24.5356 15.7737 24.5331L9.88428 23.4387C9.83994 23.4261 9.80192 23.3974 9.77766 23.3582C9.7534 23.319 9.74467 23.2722 9.75317 23.2269C9.76167 23.1816 9.7868 23.1411 9.82361 23.1134C9.86043 23.0856 9.90628 23.0727 9.95217 23.077L15.8412 24.1713C15.8866 24.1798 15.9271 24.2049 15.955 24.2417C15.9828 24.2785 15.9958 24.3244 15.9916 24.3703C15.9873 24.4163 15.9661 24.459 15.932 24.4901C15.8979 24.5212 15.8534 24.5384 15.8073 24.5384V24.5368Z" fill="#9A9B9C"/>
<path d="M15.8664 36.885C15.8422 36.885 15.8181 36.8803 15.7956 36.8711C15.7732 36.8618 15.7528 36.8482 15.7356 36.831C15.7184 36.8138 15.7048 36.7934 15.6955 36.771C15.6863 36.7485 15.6816 36.7245 15.6816 36.7002L15.693 24.3513C15.6929 24.3271 15.6977 24.303 15.7069 24.2806C15.7162 24.2582 15.7297 24.2378 15.7469 24.2207C15.764 24.2035 15.7844 24.1899 15.8068 24.1806C15.8292 24.1713 15.8532 24.1665 15.8774 24.1665C15.9017 24.1664 15.9258 24.1711 15.9483 24.1804C15.9707 24.1897 15.9911 24.2033 16.0083 24.2204C16.0255 24.2376 16.0391 24.258 16.0483 24.2805C16.0576 24.3029 16.0623 24.327 16.0622 24.3513L16.0503 36.7002C16.0504 36.749 16.0311 36.7959 15.9966 36.8306C15.9621 36.8652 15.9153 36.8848 15.8664 36.885Z" fill="#9A9B9C"/>
<path d="M14.8625 35.7426C14.8382 35.7426 14.8142 35.7379 14.7917 35.7287C14.7693 35.7194 14.7489 35.7058 14.7317 35.6886C14.7145 35.6714 14.7009 35.651 14.6916 35.6286C14.6824 35.6061 14.6777 35.5821 14.6777 35.5578L14.6878 24.1697C14.6878 24.1207 14.7073 24.0736 14.7419 24.039C14.7766 24.0043 14.8236 23.9849 14.8726 23.9849C14.8969 23.9848 14.921 23.9895 14.9434 23.9988C14.9659 24.008 14.9863 24.0216 15.0035 24.0388C15.0206 24.056 15.0342 24.0764 15.0435 24.0988C15.0528 24.1213 15.0575 24.1454 15.0574 24.1697L15.0473 35.5578C15.0473 35.6068 15.0279 35.6538 14.9932 35.6884C14.9586 35.7231 14.9115 35.7426 14.8625 35.7426Z" fill="#9A9B9C"/>
<path d="M13.8606 34.5976C13.8363 34.5977 13.8122 34.5929 13.7898 34.5837C13.7673 34.5744 13.7469 34.5608 13.7297 34.5436C13.7125 34.5265 13.6989 34.5061 13.6897 34.4836C13.6804 34.4611 13.6757 34.4371 13.6758 34.4128L13.684 23.9861C13.684 23.9371 13.7034 23.8901 13.7381 23.8554C13.7727 23.8207 13.8197 23.8013 13.8688 23.8013C13.893 23.8012 13.9171 23.806 13.9395 23.8153C13.9619 23.8245 13.9823 23.8382 13.9994 23.8553C14.0166 23.8725 14.0301 23.8929 14.0394 23.9153C14.0486 23.9378 14.0533 23.9618 14.0532 23.9861L14.0451 34.4128C14.0451 34.437 14.0404 34.4611 14.0311 34.4835C14.0219 34.5059 14.0083 34.5263 13.9911 34.5434C13.974 34.5606 13.9537 34.5742 13.9313 34.5835C13.9089 34.5928 13.8848 34.5976 13.8606 34.5976Z" fill="#9A9B9C"/>
<path d="M12.8567 33.454C12.8324 33.4541 12.8083 33.4494 12.7859 33.4401C12.7634 33.4309 12.743 33.4173 12.7258 33.4001C12.7086 33.3829 12.695 33.3625 12.6858 33.3401C12.6765 33.3176 12.6718 33.2935 12.6719 33.2692L12.6782 23.8039C12.6782 23.7549 12.6976 23.7079 12.7323 23.6733C12.7669 23.6386 12.8139 23.6191 12.863 23.6191C12.8872 23.6191 12.9113 23.6238 12.9338 23.633C12.9562 23.6423 12.9766 23.6559 12.9938 23.6731C13.011 23.6903 13.0246 23.7107 13.0339 23.7331C13.0431 23.7556 13.0478 23.7796 13.0478 23.8039L13.0415 33.2692C13.0415 33.3183 13.022 33.3653 12.9873 33.3999C12.9527 33.4346 12.9057 33.454 12.8567 33.454Z" fill="#9A9B9C"/>
<path d="M11.8547 32.3105C11.8304 32.3106 11.8064 32.3059 11.7839 32.2966C11.7614 32.2874 11.741 32.2737 11.7239 32.2566C11.7067 32.2394 11.6931 32.219 11.6838 32.1965C11.6746 32.1741 11.6698 32.15 11.6699 32.1257L11.6737 23.6218C11.6737 23.5728 11.6932 23.5258 11.7278 23.4911C11.7625 23.4565 11.8095 23.437 11.8585 23.437C11.8828 23.437 11.9068 23.4417 11.9292 23.451C11.9516 23.4603 11.972 23.4739 11.9891 23.4911C12.0063 23.5082 12.0199 23.5286 12.0291 23.5511C12.0383 23.5735 12.0431 23.5975 12.043 23.6218L12.0395 32.1257C12.0395 32.15 12.0347 32.174 12.0255 32.1964C12.0162 32.2189 12.0026 32.2392 11.9854 32.2564C11.9682 32.2735 11.9479 32.2872 11.9254 32.2964C11.903 32.3057 11.879 32.3105 11.8547 32.3105Z" fill="#9A9B9C"/>
<path d="M10.8528 31.1668C10.8285 31.1669 10.8044 31.1622 10.782 31.1529C10.7595 31.1437 10.7391 31.1301 10.7219 31.1129C10.7047 31.0957 10.6911 31.0753 10.6819 31.0528C10.6726 31.0304 10.6679 31.0063 10.668 30.982L10.6705 23.4392C10.6705 23.3902 10.69 23.3432 10.7246 23.3085C10.7593 23.2739 10.8063 23.2544 10.8553 23.2544C10.8796 23.2543 10.9036 23.259 10.9261 23.2683C10.9486 23.2776 10.969 23.2912 10.9861 23.3083C11.0033 23.3255 11.0169 23.3459 11.0262 23.3684C11.0354 23.3908 11.0402 23.4149 11.0401 23.4392L11.0376 30.982C11.0376 31.031 11.0181 31.078 10.9834 31.1127C10.9488 31.1474 10.9018 31.1668 10.8528 31.1668Z" fill="#9A9B9C"/>
<path d="M9.84886 30.0227C9.82461 30.0227 9.80059 30.018 9.77817 30.0087C9.75575 29.9995 9.73537 29.9859 9.71821 29.9687C9.70104 29.9516 9.68743 29.9313 9.67814 29.9089C9.66885 29.8864 9.66406 29.8624 9.66406 29.8382V23.2571C9.66406 23.2081 9.68353 23.161 9.71819 23.1264C9.75285 23.0917 9.79985 23.0723 9.84886 23.0723C9.89787 23.0723 9.94488 23.0917 9.97954 23.1264C10.0142 23.161 10.0337 23.2081 10.0337 23.2571V29.8385C10.0336 29.8627 10.0288 29.8867 10.0195 29.9091C10.0102 29.9314 9.99657 29.9517 9.97941 29.9689C9.96225 29.986 9.94189 29.9995 9.91949 30.0087C9.89709 30.018 9.87309 30.0227 9.84886 30.0227Z" fill="#9A9B9C"/>
<path d="M1.94868 15.3011H0.103516V3.52832H11.8754V5.37348H1.94868V15.3011Z" fill="#9A9B9C"/>
<path d="M11.8754 40.5483H0.103516V28.7759H1.94868V38.7035H11.8754V40.5483Z" fill="#9A9B9C"/>
<path d="M36.2484 15.3011H34.4036V5.37348H24.4766V3.52832H36.2484V15.3011Z" fill="#9A9B9C"/>
<path d="M36.2484 40.5483H24.4766V38.7035H34.4036V28.7759H36.2484V40.5483Z" fill="#9A9B9C"/>
<path d="M56.3039 9.57841H67.8961V13.233H56.3039C55.7475 13.2329 55.1926 13.2904 54.6481 13.4044C52.9856 13.7723 51.5706 14.5908 50.4031 15.8601C50.2784 16.0123 50.1516 16.1708 50.0228 16.3358C50.0171 16.3405 50.0125 16.3463 50.0092 16.3528C50.0059 16.3594 50.0039 16.3665 50.0035 16.3739L49.9654 16.4119C49.8516 16.5648 49.7437 16.7236 49.6419 16.8882C49.6393 16.8879 49.6368 16.8882 49.6344 16.889C49.632 16.8898 49.6298 16.8912 49.628 16.893C49.6262 16.8948 49.6248 16.897 49.624 16.8994C49.6232 16.9018 49.6229 16.9044 49.6232 16.9069C49.6235 16.9095 49.6232 16.9122 49.6223 16.9146C49.6214 16.9171 49.62 16.9194 49.6182 16.9212C49.6163 16.9231 49.6141 16.9245 49.6116 16.9254C49.6091 16.9262 49.6065 16.9265 49.6038 16.9262V16.2791C49.5919 15.0954 49.9045 13.931 50.5078 12.9125C51.0977 11.9106 51.9329 11.0754 52.9349 10.4855C53.9539 9.88099 55.1191 9.56726 56.3039 9.57841ZM53.2397 15.1893C53.2754 15.1782 53.3078 15.1587 53.3345 15.1326C53.3449 15.1333 53.3553 15.132 53.3651 15.1287C53.3749 15.1254 53.384 15.1201 53.3918 15.1133H53.4105C53.4462 15.0894 53.4847 15.0701 53.5253 15.0559C53.3473 15.4375 53.2562 15.8537 53.2584 16.2747V32.7203H49.6038V21.1488C49.6035 20.3902 49.7323 19.6371 49.9848 18.9218C50.0972 18.6085 50.2307 18.3032 50.3844 18.0079C50.6448 17.5299 50.9585 17.0829 51.3195 16.6756C51.3959 16.586 51.4793 16.5026 51.5689 16.4262C51.581 16.4013 51.6009 16.3812 51.6257 16.3689C51.6268 16.3541 51.6338 16.3405 51.645 16.3308C51.6498 16.3254 51.6556 16.3209 51.6621 16.3177C51.6686 16.3145 51.6757 16.3126 51.683 16.3121C51.7207 16.2614 51.7656 16.2164 51.8164 16.1787C51.8385 16.1556 51.8642 16.1362 51.8925 16.1214L51.9685 16.0453C52.0097 16.0175 52.0479 15.9855 52.0826 15.9499C52.1049 15.9272 52.1306 15.9081 52.1587 15.8932L52.3495 15.7411C52.3799 15.7201 52.4115 15.7009 52.4442 15.6837L52.4823 15.6457C52.492 15.6346 52.5056 15.6277 52.5203 15.6264C52.5616 15.5988 52.6001 15.567 52.635 15.5316C52.6707 15.5202 52.7031 15.5006 52.7298 15.4742C52.75 15.472 52.7695 15.4657 52.7871 15.4555C52.7918 15.4499 52.7976 15.4453 52.8041 15.4419C52.8107 15.4386 52.8178 15.4367 52.8251 15.4362L52.9392 15.3602C52.9662 15.334 52.9988 15.3143 53.0346 15.3028L53.0726 15.2841C53.0823 15.2729 53.0959 15.266 53.1107 15.2648C53.1553 15.2424 53.1984 15.2172 53.2397 15.1893ZM58.1692 20.7666V20.8046C58.1557 20.8205 58.149 20.8411 58.1505 20.862C58.1374 20.9566 58.131 21.052 58.1312 21.1475C58.1319 21.243 58.1383 21.3383 58.1505 21.433C58.1528 21.453 58.1592 21.4724 58.1692 21.4898V21.5091C58.1697 21.5719 58.1762 21.6345 58.1886 21.6961C58.2002 21.7288 58.2065 21.7631 58.2073 21.7978C58.2203 21.8617 58.2393 21.9243 58.264 21.9848C58.2641 22.0113 58.2707 22.0375 58.2833 22.0608C58.3083 22.1369 58.3338 22.2067 58.3594 22.2703V22.2896L58.3781 22.3277C58.4161 22.4162 58.4541 22.4991 58.4928 22.577C58.4925 22.5796 58.4928 22.5821 58.4936 22.5845C58.4944 22.5869 58.4958 22.5891 58.4976 22.5909C58.4994 22.5927 58.5016 22.5941 58.504 22.5949C58.5064 22.5958 58.509 22.5961 58.5115 22.5958C58.5119 22.6031 58.5138 22.6103 58.5171 22.6168C58.5204 22.6234 58.5251 22.6292 58.5308 22.6338C58.5545 22.695 58.5864 22.7526 58.6256 22.8052C58.6378 22.8302 58.658 22.8504 58.6829 22.8626V22.8813C58.6939 22.891 58.7006 22.9047 58.7016 22.9193C58.7114 22.9402 58.7242 22.9595 58.7397 22.9767H54.4766V19.3221H58.7596L58.7216 19.3601C58.716 19.3648 58.7114 19.3706 58.7081 19.3772C58.7048 19.3837 58.7028 19.3908 58.7023 19.3981C58.6997 19.3978 58.6972 19.3981 58.6948 19.399C58.6924 19.3998 58.6902 19.4012 58.6884 19.403C58.6866 19.4048 58.6852 19.4069 58.6844 19.4093C58.6835 19.4118 58.6833 19.4143 58.6836 19.4169C58.6681 19.4339 58.6552 19.4533 58.6455 19.4742L58.5314 19.6456V19.6837C58.5184 19.6837 58.5121 19.6899 58.5121 19.7024C58.4616 19.7915 58.4167 19.8738 58.3787 19.9518V19.9898L58.36 20.0091L58.2839 20.2186C58.2848 20.2289 58.2835 20.2392 58.2802 20.249C58.2768 20.2587 58.2715 20.2677 58.2646 20.2753V20.3133C58.2495 20.3717 58.2306 20.429 58.2079 20.4848C58.2088 20.5176 58.2022 20.5503 58.1886 20.5802C58.1761 20.642 58.1696 20.7048 58.1692 20.7678V20.7666ZM62.4903 19.8533C62.8456 20.2336 63.0233 20.665 63.0233 21.1475C63.0274 21.389 62.9813 21.6288 62.8879 21.8515C62.7945 22.0743 62.6559 22.2753 62.4809 22.4418C62.3138 22.6127 62.1138 22.7481 61.893 22.8397C61.6722 22.9313 61.4351 22.9773 61.196 22.9748C60.9556 22.9767 60.7173 22.9305 60.495 22.839C60.2728 22.7475 60.0711 22.6124 59.9018 22.4418C59.5464 22.061 59.3687 21.6296 59.3687 21.1475C59.3677 20.9073 59.4143 20.6692 59.5058 20.4471C59.5973 20.2249 59.7318 20.0231 59.9017 19.8532C60.0716 19.6833 60.2734 19.5488 60.4956 19.4573C60.7177 19.3658 60.9558 19.3192 61.196 19.3202C61.6786 19.321 62.11 19.4991 62.4903 19.8545V19.8533Z" fill="#9A9B9C"/>
<path d="M90.3238 16.8265C90.319 16.8321 90.3132 16.8367 90.3067 16.84C90.3002 16.8433 90.293 16.8453 90.2857 16.8458C90.286 16.8483 90.2857 16.8509 90.2849 16.8533C90.2841 16.8557 90.2827 16.8579 90.2809 16.8597C90.2791 16.8615 90.2769 16.8628 90.2745 16.8637C90.2721 16.8645 90.2696 16.8648 90.267 16.8645C90.3053 16.6703 90.3243 16.4727 90.3238 16.2747C90.3215 15.4677 89.9999 14.6943 89.4292 14.1236C88.8586 13.5528 88.0853 13.2311 87.2783 13.2286H70.832V9.57715H87.2783C88.4582 9.57715 89.464 9.99277 90.2957 10.824C91.1274 11.6553 91.543 12.6609 91.5426 13.8408C91.5426 13.9805 91.5363 14.1201 91.5239 14.2598V14.3552C91.5169 14.3628 91.5117 14.3718 91.5083 14.3815C91.505 14.3913 91.5037 14.4016 91.5045 14.4119V14.4312C91.4921 14.5197 91.4796 14.6027 91.4665 14.6806C91.4542 14.7174 91.4479 14.7559 91.4478 14.7947C91.4408 14.8024 91.4355 14.8115 91.4322 14.8214C91.4289 14.8312 91.4276 14.8417 91.4285 14.852C91.4275 14.8667 91.4207 14.8803 91.4098 14.8901C91.3947 14.9609 91.3756 15.0309 91.3524 15.0995L91.3144 15.2136C91.3139 15.2209 91.3119 15.2281 91.3086 15.2346C91.3053 15.2411 91.3007 15.2469 91.2951 15.2517V15.2897L91.219 15.4767C91.2052 15.5171 91.1861 15.5554 91.1623 15.5908C91.1601 15.6111 91.1535 15.6307 91.1429 15.6482L91.1242 15.6675C91.0987 15.7298 91.0731 15.7878 91.0482 15.8383C91.0255 15.8844 90.9999 15.9289 90.9715 15.9717C90.966 15.9765 90.9615 15.9823 90.9583 15.9889C90.9551 15.9954 90.9532 16.0025 90.9528 16.0098L90.8387 16.1968C90.8033 16.2319 90.7714 16.2703 90.7433 16.3115C90.7428 16.3188 90.7408 16.3259 90.7375 16.3325C90.7342 16.339 90.7296 16.3448 90.724 16.3495C90.686 16.4 90.6417 16.4574 90.5912 16.5204C90.5503 16.5623 90.5122 16.6068 90.4771 16.6538C90.4293 16.7142 90.3781 16.7719 90.3238 16.8265ZM74.4885 23.5839V32.7203H70.832V19.3202H87.2783C87.3802 19.3203 87.482 19.3138 87.5831 19.3009H87.6018C87.6659 19.3008 87.7298 19.2946 87.7926 19.2822H87.8687C87.899 19.2707 87.931 19.2642 87.9634 19.2628C88.0149 19.2628 88.0662 19.2565 88.1162 19.2441C88.1785 19.2311 88.249 19.2186 88.325 19.2061C88.3517 19.2056 88.378 19.199 88.4017 19.1868C88.4282 19.1865 88.4543 19.1799 88.4778 19.1675C88.529 19.1674 88.5801 19.1611 88.6299 19.1488C88.6985 19.1254 88.7684 19.1063 88.8394 19.0914L88.9154 19.0534C88.9419 19.0531 88.9679 19.0467 88.9915 19.0347C89.042 19.0216 89.0869 19.0091 89.1249 18.9966C89.2009 18.9711 89.2708 18.9455 89.3344 18.9206L89.4865 18.8439C89.5323 18.8282 89.5768 18.8093 89.6199 18.7872C89.6807 18.7629 89.7382 18.7308 89.7907 18.6918L89.9435 18.6157C89.9839 18.6019 90.0223 18.5826 90.0575 18.5584L90.2477 18.4443C90.2649 18.429 90.2842 18.4162 90.305 18.4062C90.327 18.3831 90.3527 18.3639 90.3811 18.3495L90.4952 18.2728C90.5491 18.2323 90.5999 18.1879 90.6473 18.14L90.7234 18.102C90.7356 18.077 90.7558 18.0568 90.7807 18.0447C90.8217 18.0166 90.86 17.9847 90.8948 17.9493C90.9488 17.9086 90.9998 17.8642 91.0476 17.8165L91.1617 17.7018C91.1994 17.6771 91.2317 17.6448 91.2564 17.607C91.3044 17.5595 91.349 17.5086 91.3898 17.4549L91.4472 17.3975L91.5039 17.3215L91.5993 17.2261C91.6403 17.171 91.6784 17.1138 91.7134 17.0546C91.7233 17.034 91.7361 17.0149 91.7514 16.9979C91.7743 16.9756 91.7936 16.95 91.8088 16.9218L91.8848 16.8071C91.92 16.7483 91.958 16.6913 91.9989 16.6363L92.075 16.4836L92.151 16.3695C92.178 16.3048 92.2098 16.2422 92.2464 16.1824C92.2465 16.1559 92.2532 16.1298 92.2658 16.1064L92.3038 16.0303C92.3301 15.9894 92.3493 15.9443 92.3605 15.8969C92.3861 15.8346 92.4116 15.7635 92.4366 15.6874L92.4746 15.6114C92.475 15.5849 92.4817 15.5588 92.4939 15.5353L92.532 15.4212L92.608 15.1544V15.0977C92.6205 15.074 92.6272 15.0477 92.6273 15.021L92.6654 14.9069C92.6903 14.7673 92.7096 14.6345 92.7221 14.5073V14.4499C92.7347 14.4265 92.7413 14.4004 92.7414 14.3739C92.7539 14.196 92.7601 14.0183 92.7601 13.8408C92.7601 13.6887 92.7539 13.5432 92.7414 13.4044V13.3284C92.729 13.2037 92.7099 13.0705 92.6841 12.9287V12.8527C92.6591 12.7255 92.6276 12.5923 92.5893 12.4531V12.4337L92.4746 12.0528L92.4559 12.0341V12.0085C93.4709 13.24 93.9783 14.6615 93.9783 16.2729C93.9904 17.4566 93.6777 18.6209 93.0744 19.6394C92.4847 20.6415 91.6494 21.4768 90.6473 22.0664C89.6288 22.6697 88.4645 22.9823 87.2808 22.9704H75.0963C74.9354 22.9725 74.7817 23.0374 74.668 23.1511C74.5542 23.2649 74.4893 23.4186 74.4872 23.5795L74.4885 23.5839ZM93.368 32.7203H88.8013L82.4055 24.193H86.974L93.368 32.7203Z" fill="#9A9B9C"/>
<path d="M100.413 32.7203H96.7344V9.57715H100.413V32.7203Z" fill="#9A9B9C"/>
<path d="M107.725 32.7205H104.07V11.154L107.725 17.2456V32.7205ZM118.422 32.7205L104.53 9.57734H107.994L121.889 32.7236L118.422 32.7205ZM118.689 9.57422H122.344V31.1407L118.689 25.0498V9.57422Z" fill="#9A9B9C"/>
<path d="M126.682 32.7203V9.57715H130.338V32.7234L126.682 32.7203ZM143.394 9.57715H148.991L134.601 23.9486L131.821 21.1506L143.394 9.57715ZM135.476 24.8052L138.274 22.0072L148.991 32.7234H143.395L135.476 24.8052Z" fill="#9A9B9C"/>
<path d="M174.291 13.2287H157.54V13.248H157.52C157.457 13.2483 157.395 13.2546 157.333 13.2668H157.162C157.112 13.2796 157.061 13.2861 157.01 13.2861C156.939 13.3007 156.869 13.3198 156.8 13.3434H156.724C156.694 13.3568 156.661 13.3632 156.629 13.3621C156.591 13.3746 156.546 13.3877 156.495 13.4002C156.424 13.4117 156.354 13.431 156.286 13.4575C156.263 13.4696 156.236 13.476 156.21 13.4762L156.134 13.5143C156.083 13.5273 156.039 13.5398 156.001 13.5523C155.924 13.5781 155.854 13.6036 155.791 13.629L155.715 13.667C155.692 13.679 155.665 13.6854 155.639 13.6857C155.598 13.7122 155.553 13.7316 155.506 13.7431L155.334 13.8378L155.182 13.9145C155.139 13.9423 155.095 13.9677 155.049 13.9906C154.994 14.0316 154.937 14.0697 154.877 14.1046C154.861 14.1202 154.841 14.133 154.821 14.1427L154.744 14.1807L154.63 14.2568C154.579 14.3083 154.521 14.3531 154.459 14.3902L154.402 14.4469C154.385 14.4626 154.365 14.4757 154.344 14.4856C154.31 14.5208 154.271 14.5525 154.23 14.5803L154.021 14.7898C154.004 14.8053 153.985 14.8182 153.964 14.8278C153.929 14.8627 153.897 14.9009 153.869 14.9419C153.821 14.9897 153.776 15.0407 153.735 15.0947C153.71 15.1064 153.69 15.1265 153.679 15.1514L153.621 15.2088L153.526 15.3228C153.485 15.3779 153.447 15.4352 153.412 15.4943L153.355 15.551L153.316 15.6271L153.24 15.7418C153.199 15.7968 153.161 15.8538 153.126 15.9126L153.088 15.9893C153.073 16.006 153.06 16.0252 153.05 16.046C153.028 16.0921 153.002 16.1366 152.974 16.1794C152.947 16.2442 152.915 16.3067 152.879 16.3665C152.867 16.3901 152.86 16.4161 152.86 16.4425L152.822 16.5186C152.798 16.5541 152.779 16.5927 152.765 16.6333C152.728 16.7051 152.702 16.782 152.689 16.8615L152.651 16.9375C152.65 16.9641 152.644 16.9902 152.631 17.0136L152.593 17.1277C152.568 17.2168 152.543 17.2991 152.517 17.3771C152.505 17.4281 152.492 17.479 152.479 17.5298C152.479 17.5686 152.473 17.6071 152.46 17.6439C152.434 17.7759 152.415 17.9094 152.403 18.0435C152.401 18.0638 152.394 18.0833 152.384 18.1009V18.1576C152.371 18.3484 152.365 18.5325 152.365 18.71C152.365 18.8496 152.371 18.9886 152.384 19.1283V19.205C152.396 19.3391 152.415 19.4725 152.441 19.6046V19.6807C152.466 19.8155 152.497 19.9489 152.536 20.0803V20.1183C152.575 20.2455 152.613 20.366 152.651 20.4799C152.651 20.493 152.657 20.4992 152.669 20.4992V20.5179C151.654 19.2997 151.147 17.885 151.147 16.2736C151.135 15.0899 151.447 13.9255 152.051 12.907C152.641 11.9051 153.476 11.0698 154.478 10.48C155.496 9.87682 156.661 9.56418 157.844 9.57601H174.291V13.2287ZM174.291 26.0204C174.303 27.2041 173.99 28.3685 173.387 29.3869C172.797 30.389 171.962 31.2243 170.96 31.814C169.941 32.4173 168.777 32.73 167.593 32.718H151.147V29.0659H167.593C167.695 29.0658 167.796 29.0596 167.897 29.0472C167.968 29.0475 168.038 29.041 168.107 29.0278H168.181C168.213 29.0265 168.246 29.0202 168.276 29.0091H168.41C168.487 28.9959 168.563 28.9767 168.638 28.9518H168.714C168.737 28.9396 168.764 28.9329 168.79 28.9325L168.942 28.8944C169.013 28.8801 169.083 28.8611 169.152 28.8377C169.175 28.8253 169.201 28.8186 169.228 28.8184L169.304 28.7803C169.355 28.7679 169.399 28.7548 169.437 28.7423C169.513 28.7167 169.583 28.6918 169.647 28.6662L169.723 28.6282C169.746 28.6161 169.772 28.6095 169.799 28.6089C169.834 28.585 169.873 28.566 169.913 28.5522C169.973 28.5155 170.036 28.4836 170.1 28.4568L170.253 28.3807L170.367 28.3047C170.426 28.2697 170.483 28.2316 170.538 28.1906L170.69 28.1145C170.731 28.0865 170.77 28.0545 170.805 28.0191L170.957 27.905C170.979 27.8819 171.005 27.8625 171.033 27.8477L171.091 27.7909L171.205 27.7143L171.471 27.4481C171.509 27.4228 171.541 27.3904 171.566 27.3527C171.614 27.3051 171.659 27.2543 171.7 27.2006L171.756 27.1432C171.769 27.1184 171.789 27.0985 171.814 27.0865C171.842 27.0454 171.873 27.0072 171.908 26.9724C171.95 26.9173 171.988 26.8601 172.023 26.8009C172.039 26.7838 172.051 26.7645 172.061 26.7436C172.084 26.7215 172.103 26.6958 172.118 26.6675L172.194 26.5534C172.235 26.4985 172.274 26.4413 172.309 26.382L172.347 26.3059C172.356 26.2849 172.369 26.2655 172.385 26.2486C172.407 26.2027 172.433 26.1583 172.461 26.1158L172.537 25.925L172.613 25.7729C172.637 25.7375 172.656 25.6992 172.67 25.6588L172.746 25.4306C172.758 25.4068 172.765 25.3806 172.765 25.3539L172.803 25.2779L172.842 25.1638C172.865 25.0818 172.884 24.9985 172.898 24.9144C172.911 24.891 172.918 24.8649 172.918 24.8384C172.93 24.8148 172.936 24.7887 172.936 24.7623L172.975 24.6482C173.001 24.5161 173.02 24.3827 173.032 24.2486V24.1912C173.044 24.1677 173.05 24.1416 173.051 24.1152C173.063 23.9373 173.07 23.7596 173.07 23.5821C173.07 23.4425 173.063 23.3028 173.051 23.1632V23.0871C173.039 22.953 173.02 22.8196 172.994 22.6875V22.6114C172.969 22.4766 172.938 22.3432 172.898 22.2118V22.1738C172.86 22.0491 172.822 21.9244 172.784 21.8116L172.765 21.7929V21.7548C173.782 22.988 174.291 24.4098 174.291 26.0204ZM167.591 19.3203C168.771 19.3203 169.777 19.7359 170.607 20.5672C171.438 21.3984 171.854 22.404 171.854 23.584C171.854 23.7361 171.848 23.8816 171.835 24.0204C171.835 24.0469 171.828 24.0729 171.816 24.0965V24.1725L171.778 24.4394C171.763 24.4701 171.75 24.502 171.74 24.5347V24.5915C171.734 24.5961 171.73 24.6019 171.727 24.6085C171.723 24.615 171.721 24.6222 171.721 24.6295C171.709 24.7011 171.69 24.7713 171.664 24.839L171.625 24.9531C171.623 24.9733 171.617 24.9928 171.607 25.0104V25.0291L171.531 25.2199C171.517 25.2603 171.497 25.2986 171.473 25.334L171.455 25.3907L171.435 25.41L171.359 25.5971L171.283 25.7118C171.278 25.7165 171.273 25.7223 171.27 25.7288C171.266 25.7354 171.264 25.7425 171.264 25.7498H171.245C171.218 25.8145 171.186 25.877 171.15 25.9368C171.111 25.9757 171.079 26.0208 171.055 26.0703C171.042 26.0703 171.036 26.0765 171.036 26.089C170.985 26.1513 170.94 26.2099 170.902 26.2604C170.867 26.3075 170.829 26.352 170.788 26.3938L170.769 26.4125C170.729 26.4662 170.684 26.5171 170.636 26.5646C170.631 26.5702 170.625 26.5748 170.619 26.5782C170.612 26.5815 170.605 26.5835 170.598 26.584C170.598 26.5913 170.596 26.5985 170.592 26.605C170.589 26.6115 170.584 26.6173 170.579 26.622C170.617 26.4212 170.636 26.2173 170.636 26.0129C170.634 25.2059 170.312 24.4328 169.741 23.8621C169.171 23.2915 168.397 22.9699 167.591 22.9674H157.844C156.664 22.9674 155.658 22.5518 154.828 21.7205C153.997 20.8893 153.581 19.8837 153.581 18.7037C153.581 18.5512 153.587 18.4057 153.599 18.2673V18.1913C153.61 18.174 153.616 18.1546 153.619 18.1345V18.1183L153.657 17.8521C153.67 17.8222 153.677 17.7896 153.676 17.7567C153.686 17.7391 153.693 17.7196 153.695 17.6994C153.695 17.6921 153.697 17.6849 153.701 17.6784C153.704 17.6719 153.709 17.6661 153.714 17.6614C153.726 17.5899 153.745 17.5199 153.771 17.4525C153.772 17.4113 153.785 17.3714 153.809 17.3378C153.811 17.3178 153.818 17.2985 153.828 17.2811V17.2617L153.904 17.0747C153.918 17.0342 153.937 16.9958 153.962 16.9606C153.961 16.9503 153.962 16.9399 153.965 16.9301C153.968 16.9202 153.974 16.9111 153.98 16.9033V16.8845C154.017 16.8235 154.049 16.7598 154.076 16.6938L154.152 16.5797C154.152 16.5724 154.154 16.5653 154.157 16.5588C154.161 16.5523 154.165 16.5464 154.17 16.5417V16.5223C154.212 16.4675 154.25 16.4105 154.285 16.3515L154.38 16.2181L154.399 16.1988C154.436 16.1365 154.481 16.0791 154.533 16.0279C154.567 15.9808 154.606 15.9362 154.647 15.8945V15.874L154.856 15.6651C154.818 15.8659 154.799 16.0698 154.799 16.2742C154.801 17.0812 155.123 17.8544 155.694 18.425C156.264 18.9956 157.037 19.3172 157.844 19.3197L167.591 19.3203Z" fill="#9A9B9C"/>
</svg>
