<svg width="185" height="46" viewBox="0 0 185 46" fill="none" xmlns="http://www.w3.org/2000/svg">
<rect x="2.04102" y="11.2405" width="28.4055" height="20.9862" rx="4.23963" fill="#8D8B86"/>
<path d="M15.8161 28.4818L15.8161 13.9265C15.8161 13.6146 15.3884 13.3608 14.8628 13.3608L5.32245 13.3608C4.79686 13.3608 4.36914 13.6146 4.36914 13.9265L4.36914 28.4818C4.36914 28.7937 4.79686 29.0475 5.32245 29.0475L14.8628 29.0475C15.3884 29.0475 15.8161 28.7937 15.8161 28.4818Z" fill="#8D8B86"/>
<path d="M18.475 28.4818L18.475 13.9265C18.475 13.6146 18.0867 13.3608 17.6097 13.3608L8.95321 13.3608C8.47613 13.3608 8.08789 13.6146 8.08789 13.9265L8.08789 28.4818C8.08789 28.7937 8.47613 29.0475 8.95321 29.0475L17.613 29.0475C18.09 29.0475 18.475 28.7937 18.475 28.4818Z" fill="#8D8B86"/>
<path d="M22.1808 28.4818L22.1808 13.9265C22.1808 13.6146 21.8165 13.3608 21.3688 13.3608L13.2418 13.3608C12.794 13.3608 12.4297 13.6146 12.4297 13.9265L12.4297 28.4818C12.4297 28.7937 12.794 29.0475 13.2418 29.0475L21.3688 29.0475C21.8165 29.0475 22.1808 28.7937 22.1808 28.4818Z" fill="#8D8B86"/>
<path d="M17.4373 12.5864C17.8258 10.9159 19.3146 9.73352 21.0297 9.73352L31.3521 9.73352C33.3891 9.73352 35.0403 11.3848 35.0403 13.4217L35.0403 32.5783C35.0403 34.6153 33.3891 36.2666 31.3521 36.2666H17.5282H4.16949C1.95401 36.2666 0.23847 34.3271 0.50885 32.1282L0.663331 30.8719C0.88076 29.1036 2.33113 27.7435 4.10972 27.64L11.3184 27.2205C12.951 27.1255 14.3261 25.9667 14.6965 24.3738L17.4373 12.5864Z" fill="#C6C6C6"/>
<path d="M56.9425 31.2819C51.4987 31.2819 48.3295 27.8061 48.3295 22.4645C48.3295 17.123 51.4987 13.6471 56.9425 13.6471C62.3607 13.6471 65.5299 17.123 65.5299 22.4645C65.5299 27.8061 62.3607 31.2819 56.9425 31.2819ZM56.9425 26.6049C59.5749 26.6049 60.3672 25.7615 60.3672 22.4645C60.3672 19.1676 59.5749 18.3242 56.9425 18.3242C54.2845 18.3242 53.4922 19.1676 53.4922 22.4645C53.4922 25.7615 54.2845 26.6049 56.9425 26.6049ZM71.3287 31.0264H66.5494V17.8897H71.022V19.8832H71.252C71.9932 18.6053 73.2455 17.6341 74.9835 17.6341C77.5137 17.6341 78.4082 19.2698 78.4082 21.8511V24.228H73.6033V22.9246C73.6033 21.9534 73.4244 21.6722 72.5299 21.6722C71.7376 21.6722 71.3287 21.7745 71.3287 22.7201V31.0264ZM83.4704 31.0264H78.9978V13.9027H83.7771V19.6276H84.0071C84.5694 18.4264 85.8473 17.6341 87.7386 17.6341C91.2144 17.6341 93.029 20.3177 93.029 24.458C93.029 28.5984 91.1633 31.2819 87.8408 31.2819C85.7195 31.2819 84.3394 30.4641 83.6238 29.2373H83.4704V31.0264ZM83.7771 24.9181C83.7771 26.7327 84.4927 27.0905 86.0006 27.0905C87.9941 27.0905 88.2497 26.2215 88.2497 24.458C88.2497 22.6945 88.0197 21.8 86.0006 21.8C84.4927 21.8 83.7771 22.1834 83.7771 23.9724V24.9181ZM98.6216 16.714H93.8423V13.9027H98.6216V16.714ZM98.6471 31.0264H93.8423V17.8897H98.6471V31.0264ZM106.061 31.2819C102.509 31.2819 100.848 29.8507 100.848 26.6815V21.8256H99.1096V17.8897H101.001L101.844 15.1806H105.652V17.8897H109.128V21.8256H105.652V25.9659C105.652 26.7582 105.933 26.9627 107.032 26.9627H109.128V30.9753C108.464 31.1286 107.262 31.2819 106.061 31.2819ZM119.431 31.0264H112.377L109.387 13.9027H114.703L115.52 19.9343L116.108 26.7327H116.441L117.361 19.9343L118.613 13.9027H125.488L126.664 19.6787L127.737 26.7327H128.069L128.683 19.6787L129.424 13.9027H134.638L131.622 31.0264H124.568L123.086 24.5347L122.165 18.682H121.859L120.913 24.5347L119.431 31.0264ZM137.537 31.2819C135.288 31.2819 133.55 30.0807 133.55 27.6783C133.55 25.6337 134.879 24.4069 137.664 23.9469L141.856 23.2824V22.8223C141.856 22.0045 141.575 21.7233 140.169 21.7233C138.763 21.7233 138.431 21.9789 138.431 22.7712V23.1801H133.856V22.8734C133.856 19.6276 136.412 17.6341 140.348 17.6341C144.412 17.6341 146.431 19.4487 146.431 23.1546V31.0264H141.933V29.4418H141.703C141.14 30.2596 139.99 31.2819 137.537 31.2819ZM137.946 27.2438C137.946 27.7039 138.227 27.8061 139.121 27.8061C140.987 27.8061 141.779 27.3205 141.856 26.0937L138.661 26.6304C138.15 26.7071 137.946 26.886 137.946 27.2438ZM152.384 31.0264H147.604V13.9027H152.384V31.0264ZM158.493 31.0264H153.713V13.9027H158.493V31.0264ZM166.038 31.2819C161.769 31.2819 159.367 28.7773 159.367 24.5858C159.367 20.241 161.821 17.6341 166.191 17.6341C170.433 17.6341 172.555 20.1132 172.555 23.6146C172.555 24.3302 172.427 25.1225 172.35 25.557H163.84C163.916 26.9627 164.351 27.2949 166.114 27.2949C167.264 27.2949 167.648 27.0649 167.648 26.4771V26.426H172.401V26.7327C172.401 29.3907 169.948 31.2819 166.038 31.2819ZM165.935 21.4167C164.453 21.4167 163.916 21.8767 163.84 22.9501H167.98C167.954 22.1067 167.52 21.4167 165.935 21.4167ZM179.504 31.2819C175.951 31.2819 174.29 29.8507 174.29 26.6815V21.8256H172.552V17.8897H174.443L175.287 15.1806H179.095V17.8897H182.571V21.8256H179.095V25.9659C179.095 26.7582 179.376 26.9627 180.475 26.9627H182.571V30.9753C181.906 31.1286 180.705 31.2819 179.504 31.2819Z" fill="#8D8B86"/>
</svg>
