<svg width="186" height="46" viewBox="0 0 186 46" fill="none" xmlns="http://www.w3.org/2000/svg">
<circle cx="22.5764" cy="22.5764" r="22.5764" fill="#144FE5"/>
<rect x="8.5332" y="12.2769" width="27.8824" height="20.5997" rx="4.16161" fill="white"/>
<path d="M22.0545 29.1999L22.0545 14.9127C22.0545 14.6066 21.6347 14.3574 21.1188 14.3574L11.7541 14.3574C11.2382 14.3574 10.8184 14.6066 10.8184 14.9127L10.8184 29.1999C10.8184 29.506 11.2382 29.7552 11.7541 29.7552L21.1188 29.7552C21.6347 29.7552 22.0545 29.506 22.0545 29.1999Z" fill="#E43533"/>
<path d="M24.6567 29.1999L24.6567 14.9127C24.6567 14.6066 24.2756 14.3574 23.8074 14.3574L15.3103 14.3574C14.842 14.3574 14.4609 14.6066 14.4609 14.9127L14.4609 29.1999C14.4609 29.506 14.842 29.7552 15.3103 29.7552L23.8106 29.7552C24.2789 29.7552 24.6567 29.506 24.6567 29.1999Z" fill="#379E4C"/>
<path d="M28.2981 29.1999L28.2981 14.9127C28.2981 14.6066 27.9405 14.3574 27.501 14.3574L19.5237 14.3574C19.0842 14.3574 18.7266 14.6066 18.7266 14.9127L18.7266 29.1999C18.7266 29.506 19.0842 29.7552 19.5237 29.7552L27.501 29.7552C27.9405 29.7552 28.2981 29.506 28.2981 29.1999Z" fill="#FAB124"/>
<path d="M22.5704 15.5168C23.0008 13.6218 24.6854 12.2769 26.6287 12.2769H32.2535C34.5519 12.2769 36.4151 14.1401 36.4151 16.4385V28.6178C36.4151 30.9538 34.4929 32.8322 32.1575 32.7783L12.6166 32.3275C10.8647 32.2871 9.5382 30.7308 9.77578 28.9946C9.9658 27.6061 11.1108 26.5456 12.5097 26.4623L17.0697 26.1906C18.9175 26.0805 20.4705 24.7631 20.8805 22.958L22.5704 15.5168Z" fill="white"/>
<path d="M61.1086 33.0126C55.7649 33.0126 52.6541 29.6007 52.6541 24.3574C52.6541 19.1142 55.7649 15.7023 61.1086 15.7023C66.4271 15.7023 69.5379 19.1142 69.5379 24.3574C69.5379 29.6007 66.4271 33.0126 61.1086 33.0126ZM61.1086 28.4216C63.6926 28.4216 64.4703 27.5937 64.4703 24.3574C64.4703 21.1212 63.6926 20.2933 61.1086 20.2933C58.4995 20.2933 57.7218 21.1212 57.7218 24.3574C57.7218 27.5937 58.4995 28.4216 61.1086 28.4216ZM75.23 32.7617H70.5387V19.8668H74.929V21.8236H75.1548C75.8823 20.5692 77.1116 19.6159 78.8175 19.6159C81.3012 19.6159 82.1792 21.2215 82.1792 23.7553V26.0885H77.4628V24.809C77.4628 23.8557 77.2872 23.5797 76.4091 23.5797C75.6314 23.5797 75.23 23.6801 75.23 24.6083V32.7617ZM87.1483 32.7617H82.758V15.9531H87.4494V21.5727H87.6752C88.2271 20.3936 89.4814 19.6159 91.3379 19.6159C94.7498 19.6159 96.531 22.2501 96.531 26.3143C96.531 30.3784 94.6996 33.0126 91.4383 33.0126C89.356 33.0126 88.0013 32.2098 87.2988 31.0056H87.1483V32.7617ZM87.4494 26.7658C87.4494 28.547 88.1518 28.8983 89.632 28.8983C91.5888 28.8983 91.8397 28.0453 91.8397 26.3143C91.8397 24.5832 91.6139 23.7052 89.632 23.7052C88.1518 23.7052 87.4494 24.0815 87.4494 25.8376V26.7658ZM102.021 18.7128H97.3293V15.9531H102.021V18.7128ZM102.046 32.7617H97.3293V19.8668H102.046V32.7617ZM109.323 33.0126C105.836 33.0126 104.206 31.6077 104.206 28.4969V23.7302H102.5V19.8668H104.356L105.184 17.2075H108.922V19.8668H112.334V23.7302H108.922V27.7944C108.922 28.5721 109.198 28.7728 110.277 28.7728H112.334V32.7115C111.682 32.8621 110.503 33.0126 109.323 33.0126Z" fill="white"/>
<path d="M122.447 32.7617H115.523L112.588 15.9531H117.806L118.609 21.8738L119.186 28.547H119.512L120.415 21.8738L121.644 15.9531H128.393L129.547 21.6229L130.6 28.547H130.926L131.529 21.6229L132.256 15.9531H137.374L134.414 32.7617H127.489L126.034 26.3895L125.131 20.6445H124.83L123.902 26.3895L122.447 32.7617ZM140.22 33.0126C138.012 33.0126 136.306 31.8335 136.306 29.4753C136.306 27.4683 137.61 26.2641 140.345 25.8125L144.459 25.1602V24.7087C144.459 23.9059 144.183 23.6299 142.804 23.6299C141.424 23.6299 141.098 23.8808 141.098 24.6585V25.0599H136.607V24.7588C136.607 21.5727 139.116 19.6159 142.979 19.6159C146.968 19.6159 148.95 21.3971 148.95 25.0348V32.7617H144.535V31.2063H144.309C143.757 32.0091 142.628 33.0126 140.22 33.0126ZM140.621 29.0488C140.621 29.5004 140.897 29.6007 141.775 29.6007C143.606 29.6007 144.384 29.124 144.459 27.9198L141.323 28.4467C140.822 28.5219 140.621 28.6976 140.621 29.0488ZM154.793 32.7617H150.102V15.9531H154.793V32.7617ZM160.79 32.7617H156.099V15.9531H160.79V32.7617ZM168.196 33.0126C164.006 33.0126 161.648 30.554 161.648 26.4397C161.648 22.1748 164.057 19.6159 168.346 19.6159C172.511 19.6159 174.593 22.0494 174.593 25.4864C174.593 26.1888 174.468 26.9665 174.393 27.393H166.038C166.114 28.7728 166.54 29.099 168.271 29.099C169.4 29.099 169.776 28.8732 169.776 28.2962V28.246H174.443V28.547C174.443 31.1561 172.034 33.0126 168.196 33.0126ZM168.096 23.3289C166.641 23.3289 166.114 23.7804 166.038 24.8341H170.103C170.078 24.0062 169.651 23.3289 168.096 23.3289ZM181.414 33.0126C177.927 33.0126 176.297 31.6077 176.297 28.4969V23.7302H174.591V19.8668H176.447L177.275 17.2075H181.013V19.8668H184.425V23.7302H181.013V27.7944C181.013 28.5721 181.289 28.7728 182.368 28.7728H184.425V32.7115C183.773 32.8621 182.594 33.0126 181.414 33.0126Z" fill="#144FE6"/>
</svg>
