<svg width="135" height="47" viewBox="0 0 135 47" fill="none" xmlns="http://www.w3.org/2000/svg">
<path d="M131.085 43.8865C130.017 43.8865 129.182 43.6534 128.58 43.1874C127.978 42.7117 127.648 42.066 127.59 41.2505H129.425C129.551 42.0758 130.095 42.4884 131.056 42.4884C131.493 42.4884 131.828 42.4107 132.061 42.2554C132.303 42.1 132.425 41.8913 132.425 41.6291C132.425 41.5321 132.405 41.4447 132.367 41.367C132.337 41.2893 132.279 41.2214 132.192 41.1631C132.114 41.0952 132.041 41.0418 131.973 41.0029C131.915 40.9641 131.808 40.9253 131.653 40.8864C131.498 40.8476 131.376 40.8185 131.289 40.799C131.211 40.7796 131.07 40.7554 130.867 40.7262C130.672 40.6874 130.536 40.6583 130.459 40.6388C130.051 40.5612 129.716 40.4835 129.454 40.4058C129.202 40.3185 128.935 40.1971 128.653 40.0418C128.371 39.8767 128.158 39.6583 128.012 39.3864C127.876 39.1048 127.808 38.7699 127.808 38.3815C127.808 37.6048 128.09 37.0126 128.653 36.6048C129.226 36.197 129.959 35.9932 130.852 35.9932C131.813 35.9932 132.566 36.2165 133.109 36.6631C133.663 37.1 133.978 37.7019 134.056 38.4689H132.265C132.187 37.7408 131.706 37.3767 130.823 37.3767C130.425 37.3767 130.109 37.4495 129.876 37.5951C129.653 37.7408 129.541 37.9446 129.541 38.2068C129.541 38.2942 129.556 38.3767 129.585 38.4544C129.624 38.5223 129.682 38.5854 129.76 38.6437C129.847 38.6922 129.93 38.7359 130.007 38.7747C130.085 38.8039 130.197 38.8379 130.342 38.8767C130.488 38.9058 130.614 38.9349 130.721 38.9641C130.828 38.9835 130.973 39.0126 131.158 39.0514C131.342 39.0806 131.488 39.1048 131.595 39.1243C131.905 39.1922 132.158 39.2553 132.352 39.3136C132.556 39.3621 132.789 39.4495 133.051 39.5757C133.313 39.6922 133.517 39.8282 133.663 39.9835C133.818 40.1291 133.949 40.333 134.056 40.5952C134.172 40.8476 134.231 41.1437 134.231 41.4835C134.231 42.2214 133.939 42.8088 133.357 43.2457C132.784 43.6729 132.027 43.8865 131.085 43.8865Z" fill="white"/>
<path d="M121.48 36.197V37.2165H121.524C122.038 36.4009 122.776 35.9932 123.737 35.9932C124.504 35.9932 125.126 36.2553 125.601 36.7796C126.077 37.2941 126.315 37.9641 126.315 38.7893V43.668H124.334V39.0806C124.334 38.6728 124.218 38.3427 123.985 38.0903C123.761 37.8378 123.446 37.7116 123.038 37.7116C122.601 37.7116 122.237 37.8718 121.946 38.1922C121.664 38.5126 121.524 38.9252 121.524 39.4301V43.668H119.543V36.197H121.48Z" fill="white"/>
<path d="M117.011 42.7651C116.282 43.5127 115.345 43.8865 114.2 43.8865C113.054 43.8865 112.117 43.5127 111.389 42.7651C110.661 42.0078 110.297 41.066 110.297 39.9398C110.297 38.8136 110.661 37.8767 111.389 37.1291C112.117 36.3718 113.054 35.9932 114.2 35.9932C115.345 35.9932 116.282 36.3718 117.011 37.1291C117.739 37.8767 118.103 38.8136 118.103 39.9398C118.103 41.066 117.739 42.0078 117.011 42.7651ZM114.2 42.3719C114.792 42.3719 115.253 42.1534 115.583 41.7165C115.923 41.2699 116.093 40.6777 116.093 39.9398C116.093 39.2019 115.923 38.6097 115.583 38.1631C115.253 37.7165 114.792 37.4932 114.2 37.4932C113.598 37.4932 113.132 37.7165 112.802 38.1631C112.472 38.6 112.307 39.1922 112.307 39.9398C112.307 40.6777 112.472 41.2699 112.802 41.7165C113.132 42.1534 113.598 42.3719 114.2 42.3719Z" fill="white"/>
<path d="M106.885 43.6686V36.1976H108.865V43.6686H106.885ZM106.885 35.0326V33.2559H108.865V35.0326H106.885Z" fill="white"/>
<path d="M101.092 37.5085V36.1978H102.126V33.8677H104.063V36.1978H105.344V37.5085H104.063V41.4697C104.063 41.9648 104.31 42.2124 104.805 42.2124L105.388 42.1979V43.6542C105.087 43.6736 104.674 43.6833 104.15 43.6833C103.577 43.6833 103.097 43.5474 102.708 43.2755C102.32 42.994 102.126 42.5328 102.126 41.892V37.5085H101.092Z" fill="white"/>
<path d="M99.7275 43.6682H97.8197V42.7944H97.776C97.5042 43.1634 97.2032 43.4352 96.8731 43.61C96.5527 43.7847 96.1401 43.8721 95.6352 43.8721C94.8197 43.8721 94.1838 43.6294 93.7274 43.1439C93.2711 42.6585 93.043 42.0032 93.043 41.1779V36.1973H95.009V40.8429C95.009 41.7459 95.4216 42.1973 96.2469 42.1973C96.7032 42.1973 97.0673 42.042 97.3391 41.7313C97.611 41.4206 97.7469 41.0129 97.7469 40.508V36.1973H99.7275V43.6682Z" fill="white"/>
<path d="M89.2969 43.6686V33.2559H91.2775V43.6686H89.2969Z" fill="white"/>
<path d="M86.7332 42.7651C86.005 43.5127 85.0681 43.8865 83.9225 43.8865C82.7768 43.8865 81.8399 43.5127 81.1118 42.7651C80.3836 42.0078 80.0195 41.066 80.0195 39.9398C80.0195 38.8136 80.3836 37.8767 81.1118 37.1291C81.8399 36.3718 82.7768 35.9932 83.9225 35.9932C85.0681 35.9932 86.005 36.3718 86.7332 37.1291C87.4614 37.8767 87.8254 38.8136 87.8254 39.9398C87.8254 41.066 87.4614 42.0078 86.7332 42.7651ZM83.9225 42.3719C84.5147 42.3719 84.9759 42.1534 85.306 41.7165C85.6458 41.2699 85.8157 40.6777 85.8157 39.9398C85.8157 39.2019 85.6458 38.6097 85.306 38.1631C84.9759 37.7165 84.5147 37.4932 83.9225 37.4932C83.3205 37.4932 82.8545 37.7165 82.5244 38.1631C82.1943 38.6 82.0293 39.1922 82.0293 39.9398C82.0293 40.6777 82.1943 41.2699 82.5244 41.7165C82.8545 42.1534 83.3205 42.3719 83.9225 42.3719Z" fill="white"/>
<path d="M74.7149 43.901C73.3071 43.901 72.2149 43.6049 71.4382 43.0126C70.6615 42.4107 70.2537 41.5563 70.2148 40.4495H72.2828C72.3508 41.0709 72.5692 41.5175 72.9382 41.7893C73.3168 42.0612 73.8799 42.1971 74.6275 42.1971C75.2198 42.1971 75.7052 42.0903 76.0838 41.8767C76.4625 41.6534 76.6518 41.3136 76.6518 40.8573C76.6518 40.6922 76.6275 40.5466 76.579 40.4204C76.5402 40.2844 76.4528 40.1679 76.3169 40.0708C76.1809 39.964 76.0644 39.8815 75.9673 39.8233C75.8702 39.7553 75.6906 39.6873 75.4285 39.6194C75.1664 39.5417 74.9673 39.4883 74.8314 39.4592C74.6955 39.4204 74.443 39.3572 74.0741 39.2699C73.6275 39.1631 73.2586 39.0708 72.9673 38.9932C72.6857 38.9155 72.3702 38.7941 72.0207 38.6291C71.6809 38.464 71.409 38.2844 71.2051 38.0902C71.011 37.8864 70.8459 37.6242 70.71 37.3038C70.5741 36.9737 70.5061 36.5999 70.5061 36.1825C70.5061 35.1824 70.8702 34.4154 71.5984 33.8815C72.3362 33.3378 73.3023 33.0659 74.4964 33.0659C75.6809 33.0659 76.6275 33.3475 77.3363 33.9106C78.045 34.4737 78.4382 35.2747 78.5159 36.3135H76.4916C76.4334 35.8087 76.2198 35.4203 75.8508 35.1485C75.4916 34.8766 75.0353 34.7407 74.4819 34.7407C73.9091 34.7407 73.4527 34.8523 73.1129 35.0756C72.7731 35.299 72.6032 35.5951 72.6032 35.964C72.6032 36.3621 72.7683 36.6533 73.0984 36.8378C73.4382 37.0223 74.0304 37.2067 74.8751 37.3912C75.38 37.498 75.7926 37.5999 76.113 37.697C76.4334 37.7844 76.778 37.9155 77.147 38.0902C77.5256 38.2553 77.8169 38.4398 78.0208 38.6436C78.2344 38.8475 78.4091 39.1194 78.545 39.4592C78.6907 39.7893 78.7635 40.1728 78.7635 40.6097C78.7635 41.6388 78.3897 42.4447 77.6421 43.0272C76.8945 43.6097 75.9188 43.901 74.7149 43.901Z" fill="white"/>
<path d="M110.481 28.1511C109.277 28.1511 108.331 27.7822 107.641 27.0443C106.952 26.2967 106.607 25.3452 106.607 24.1899C106.607 23.0734 106.952 22.1413 107.641 21.3937C108.331 20.6365 109.214 20.2578 110.292 20.2578C111.467 20.2578 112.374 20.6656 113.015 21.4811C113.656 22.2967 113.976 23.3889 113.976 24.7579H108.559C108.637 25.3501 108.836 25.8113 109.156 26.1414C109.476 26.4618 109.913 26.622 110.467 26.622C111.195 26.622 111.675 26.3161 111.908 25.7045H113.86C113.714 26.4035 113.345 26.986 112.753 27.4521C112.161 27.9181 111.404 28.1511 110.481 28.1511ZM110.321 21.787C109.36 21.787 108.782 22.3209 108.588 23.3889H111.908C111.879 22.9132 111.719 22.5297 111.428 22.2384C111.137 21.9374 110.768 21.787 110.321 21.787Z" fill="white"/>
<path d="M101.595 30.4812C100.585 30.4812 99.7744 30.2773 99.1628 29.8696C98.5608 29.4618 98.2064 28.889 98.0996 28.1511H100.066C100.26 28.7045 100.76 28.9812 101.566 28.9812C102.673 28.9812 103.226 28.4618 103.226 27.4229V26.6074H103.182C102.668 27.1899 102.017 27.4812 101.231 27.4812C100.347 27.4812 99.5754 27.1559 98.9152 26.5055C98.2647 25.855 97.9395 24.9909 97.9395 23.9132C97.9395 22.8064 98.2404 21.9229 98.8424 21.2627C99.4443 20.5928 100.221 20.2578 101.172 20.2578C102.075 20.2578 102.765 20.5879 103.24 21.2481H103.27V20.4617H105.177V27.3647C105.177 28.3356 104.881 29.0929 104.289 29.6366C103.687 30.1997 102.789 30.4812 101.595 30.4812ZM101.566 25.8938C102.158 25.8938 102.6 25.7045 102.891 25.3258C103.182 24.9472 103.328 24.4617 103.328 23.8695C103.328 23.287 103.173 22.8064 102.862 22.4277C102.561 22.0394 102.124 21.8452 101.551 21.8452C101.046 21.8452 100.639 22.0297 100.328 22.3986C100.027 22.7675 99.8764 23.2627 99.8764 23.8841C99.8764 24.5151 100.027 25.0103 100.328 25.3695C100.639 25.719 101.051 25.8938 101.566 25.8938Z" fill="white"/>
<path d="M92.3302 28.1517C91.3884 28.1517 90.6262 27.7973 90.0437 27.0886C89.4612 26.3701 89.1699 25.4089 89.1699 24.205C89.1699 23.04 89.466 22.0934 90.0583 21.3652C90.6602 20.6273 91.4272 20.2584 92.3593 20.2584C93.2913 20.2584 93.9952 20.6273 94.4709 21.3652H94.5146V17.5205H96.4952V27.9332H94.5875V26.9575H94.5583C94.0729 27.7536 93.3302 28.1517 92.3302 28.1517ZM92.767 26.4915C93.3496 26.4915 93.7913 26.2924 94.0923 25.8944C94.403 25.4963 94.5583 24.9478 94.5583 24.2487C94.5583 22.6565 93.9807 21.8604 92.8253 21.8604C92.2913 21.8604 91.8835 22.074 91.602 22.5011C91.3204 22.9283 91.1797 23.4963 91.1797 24.205C91.1797 24.9332 91.3156 25.4963 91.5874 25.8944C91.869 26.2924 92.2622 26.4915 92.767 26.4915Z" fill="white"/>
<path d="M85.7578 27.9332V20.4623H87.7384V27.9332H85.7578ZM85.7578 19.2972V17.5205H87.7384V19.2972H85.7578Z" fill="white"/>
<path d="M82.0406 20.4619V21.6561H82.0843C82.3173 21.2192 82.5746 20.8988 82.8561 20.6949C83.1377 20.4813 83.4921 20.3745 83.9193 20.3745C84.1231 20.3745 84.2785 20.3939 84.3853 20.4328V22.1658H84.3416C83.6717 22.0978 83.1328 22.2435 82.7251 22.6027C82.3173 22.9619 82.1134 23.525 82.1134 24.292V27.9328H80.1328V20.4619H82.0406Z" fill="white"/>
<path d="M70.2148 27.9332V17.5205H74.8751C75.9916 17.5205 76.8314 17.7729 77.3945 18.2778C77.9479 18.7729 78.2246 19.4234 78.2246 20.2293C78.2246 21.2487 77.6809 21.9429 76.5936 22.3118V22.3555C77.1761 22.5303 77.6421 22.8458 77.9916 23.3021C78.3509 23.7584 78.5305 24.3021 78.5305 24.9332C78.5305 25.8555 78.2246 26.5789 77.613 27.1031C76.9819 27.6565 76.1081 27.9332 74.9916 27.9332H70.2148ZM72.3265 23.273V26.1856H74.7586C75.2634 26.1856 75.6615 26.0594 75.9528 25.807C76.244 25.5449 76.3897 25.2002 76.3897 24.773C76.3897 24.2973 76.2295 23.9283 75.9091 23.6662C75.5984 23.4041 75.1955 23.273 74.7003 23.273H72.3265ZM72.3265 21.7147H74.6129C75.079 21.7147 75.4528 21.6079 75.7343 21.3943C76.0159 21.171 76.1567 20.8603 76.1567 20.4623C76.1567 20.0739 76.0207 19.773 75.7489 19.5594C75.4867 19.3458 75.1227 19.239 74.6566 19.239H72.3265V21.7147Z" fill="white"/>
<path d="M101.33 5.41599V6.61018H101.373C101.606 6.17328 101.864 5.85289 102.145 5.64901C102.427 5.43541 102.781 5.32861 103.208 5.32861C103.412 5.32861 103.568 5.34803 103.674 5.38687V7.11989H103.631C102.961 7.05193 102.422 7.19757 102.014 7.55679C101.606 7.91602 101.402 8.47913 101.402 9.24613V12.8869H99.4219V5.41599H101.33Z" fill="white"/>
<path d="M95.9957 12.8868C95.8987 12.7606 95.821 12.4839 95.7627 12.0567H95.7336C95.52 12.3771 95.2482 12.6247 94.9181 12.7995C94.588 12.9742 94.1268 13.0616 93.5346 13.0616C92.7481 13.0616 92.1171 12.8626 91.6413 12.4645C91.1656 12.0664 90.9277 11.5033 90.9277 10.7752C90.9277 10.0179 91.1899 9.46447 91.7141 9.11495C92.2384 8.75573 92.9763 8.50815 93.9278 8.37223C94.6268 8.27514 95.1025 8.17805 95.355 8.08096C95.6074 7.97416 95.7336 7.7897 95.7336 7.52756C95.7336 7.25571 95.6268 7.04212 95.4132 6.88677C95.1996 6.72172 94.8889 6.6392 94.4812 6.6392C93.5782 6.6392 93.0977 6.98872 93.0394 7.68775H91.2773C91.3064 6.97901 91.5928 6.39162 92.1365 5.9256C92.6802 5.45957 93.4666 5.22656 94.4957 5.22656C96.5928 5.22656 97.6414 6.14405 97.6414 7.97902V11.78C97.6414 12.3431 97.7288 12.6878 97.9035 12.814V12.8868H95.9957ZM94.0151 11.6781C94.5588 11.6781 94.986 11.5373 95.2967 11.2558C95.6171 10.9742 95.7773 10.6392 95.7773 10.2509V9.12952C95.5637 9.25573 95.1025 9.40136 94.3938 9.56641C93.8307 9.69263 93.4326 9.83826 93.1996 10.0033C92.9666 10.1587 92.8501 10.4014 92.8501 10.7315C92.8501 11.3625 93.2384 11.6781 94.0151 11.6781Z" fill="white"/>
<path d="M87.4863 12.8869V2.47412H89.4669V12.8869H87.4863Z" fill="white"/>
<path d="M83.6523 12.8869V2.47412H85.6329V12.8869H83.6523Z" fill="white"/>
<path d="M79.8477 12.8869V5.4159H81.8283V12.8869H79.8477ZM79.8477 4.25084V2.47412H81.8283V4.25084H79.8477Z" fill="white"/>
<path d="M70.2148 12.8873V2.47461H74.7877C75.9722 2.47461 76.88 2.79986 77.511 3.45035C78.1324 4.09113 78.4431 4.8824 78.4431 5.82416C78.4431 6.81446 78.1324 7.61059 77.511 8.21254C76.8897 8.81448 76.0401 9.11546 74.9625 9.11546H72.3993V12.8873H70.2148ZM72.3993 4.30958V7.39699H74.5838C75.1275 7.39699 75.545 7.26107 75.8363 6.98922C76.1275 6.70767 76.2732 6.32417 76.2732 5.83872C76.2732 5.35328 76.1275 4.97949 75.8363 4.71735C75.545 4.4455 75.1372 4.30958 74.6129 4.30958H72.3993Z" fill="white"/>
<path d="M59.0188 5.52799C59.0188 5.52799 59.0188 5.52813 58.0869 2.39524C57.5903 0.72676 57.7919 -0.0518145 56.3579 0.803851L26.5376 17.8107L30.2652 10.2521C31.3408 7.07394 31.2542 7.64144 28.2667 6.17456C28.3871 6.23336 28.0822 6.08305 28.2667 6.17456C26.5337 5.31889 25.331 4.57813 24.6739 6.47282L22.8101 15.9211L19.0826 8.36247C17.529 4.87869 17.0167 3.29967 13.4913 4.58316C11.9975 5.13323 10.9702 6.89562 11.6275 8.36247L15.355 15.9211L7.89999 12.1418C4.79288 10.8583 3.86224 10.9755 2.30869 14.0314C2.36844 13.8481 2.24895 14.2148 2.30869 14.0314C1.65142 15.4372 2.73841 17.1996 4.17246 17.8107L11.6275 19.7004L4.03776 23.1815C0.310199 25.0712 -0.0928383 23.8363 0.444929 27.259C0.444929 27.1368 0.444929 27.3813 0.444929 27.259C0.743691 29.0316 0.575877 29.6377 2.30869 29.1487L11.6275 27.259L6.03622 34.8176C4.30342 37.5069 5.56965 38.2862 7.89999 40.4866C7.66098 40.3031 8.07923 40.6699 7.89999 40.4866C9.15478 41.5866 8.86747 41.8313 9.76375 40.4866L15.355 31.0383L17.2188 42.3763C17.5176 45.6155 17.7795 45.911 20.9463 46.1556C20.5877 46.1556 21.2451 46.1556 20.9463 46.1556C22.3804 46.2168 22.9893 45.7327 22.8101 44.2659V32.928L30.2652 42.3763C32.0578 44.5765 32.8024 45.9828 33.858 44.9125C34.7899 43.9676 34.7899 43.9677 35.7218 43.0228C36.9676 41.7596 36.8722 41.7091 35.8565 40.4866L28.4014 31.0383L43.3115 36.7073C45.5821 37.4407 45.673 36.4348 47.039 34.8176C47.8362 33.874 47.434 34.2855 47.8362 33.874C49.2044 32.4739 48.7121 31.5884 47.039 31.0383L33.9927 27.259L52.6303 23.4797C54.9606 23.1129 56.3579 23.0543 56.3579 21.5901C56.3579 20.6463 56.3579 20.7409 56.3579 19.5596C56.3579 18.7568 56.2269 17.5663 54.4941 17.8107L33.9927 21.5901L56.3579 8.36247C58.6883 6.95675 59.0188 6.47305 59.0188 5.52799ZM22.8101 27.259C21.4954 27.9924 19.7996 26.6529 19.0826 25.3694C18.3655 24.0246 17.8277 22.3235 19.0826 21.5901C20.3374 20.8566 22.0931 22.1962 22.8101 23.4797C23.587 24.763 24.1246 26.5254 22.8101 27.259Z" fill="#3B4BF5"/>
</svg>
