<svg width="135" height="46" viewBox="0 0 135 46" fill="none" xmlns="http://www.w3.org/2000/svg">
<g clipPath="url(#clip0_1864_3751)">
<path d="M43.4359 10.1689C43.4359 10.1689 43.4359 10.169 42.7471 7.88516C42.3801 6.66884 42.5291 6.10126 41.4692 6.72504L19.4283 19.123L22.1835 13.6128C22.9785 11.2959 22.9145 11.7096 20.7063 10.6403C20.57 10.5736 20.7953 10.6831 20.7063 10.6403C19.4255 10.0165 18.5365 9.47648 18.0508 10.8577L16.6732 17.7455L13.9181 12.2353C12.7699 9.69559 12.3912 8.54449 9.78549 9.48015C8.68139 9.88115 7.92213 11.1659 8.40794 12.2353L11.163 17.7455L5.65284 14.9904C3.3563 14.0547 2.66844 14.1401 1.52018 16.3679C1.47602 16.5016 1.56434 16.2343 1.52018 16.3679C1.03438 17.3927 1.8378 18.6775 2.89774 19.123L8.40794 20.5006L2.79818 23.0383C0.0430511 24.4159 -0.254843 23.5157 0.142633 26.0108C0.142633 25.9217 0.142633 26.0999 0.142633 26.0108C0.363455 27.303 0.23942 27.7449 1.52018 27.3884L8.40794 26.0108L4.27529 31.521C2.99453 33.4815 3.93043 34.0496 5.65284 35.6537C5.47618 35.5199 5.78532 35.7873 5.65284 35.6537C6.58028 36.4556 6.36792 36.634 7.03039 35.6537L11.163 28.7659L12.5406 37.0312C12.7614 39.3926 12.955 39.6081 15.2957 39.7864C15.0306 39.7864 15.5165 39.7864 15.2957 39.7864C16.3556 39.831 16.8057 39.4781 16.6732 38.4088V30.1435L22.1835 37.0312C23.5084 38.6352 24.0588 39.6604 24.839 38.8801C25.5278 38.1913 25.5278 38.1914 26.2166 37.5026C27.1374 36.5817 27.0669 36.5449 26.3161 35.6537L20.8059 28.7659L31.8263 32.8986C33.5045 33.4332 33.5717 32.6999 34.5814 31.521C35.1706 30.8331 34.8733 31.1331 35.1706 30.8331C36.1819 29.8125 35.818 29.1669 34.5814 28.7659L24.9386 26.0108L38.7141 23.2557C40.4364 22.9883 41.4692 22.9456 41.4692 21.8781C41.4692 21.1902 41.4692 21.2591 41.4692 20.3979C41.4692 19.8127 41.3723 18.9448 40.0916 19.123L24.9386 21.8781L41.4692 12.2353C43.1916 11.2105 43.4359 10.8579 43.4359 10.1689ZM16.6732 26.0108C15.7015 26.5455 14.4481 25.5689 13.9181 24.6333C13.3882 23.6529 12.9906 22.4128 13.9181 21.8781C14.8456 21.3435 16.1433 22.32 16.6732 23.2557C17.2474 24.1912 17.6448 25.476 16.6732 26.0108Z" fill="#8D8B86"/>
<path d="M66.243 25.1768H62.463V36.0153H64.893V36.6325H52.1259V36.0153H54.5945V10.5968H52.1259V9.97961H65.3173C68.9945 9.97961 71.7845 10.4939 73.6873 11.5225C75.6159 12.5253 76.5802 14.3382 76.5802 16.961C76.5802 19.9953 75.7059 22.1296 73.9573 23.3639C72.2345 24.5725 69.663 25.1768 66.243 25.1768ZM62.463 10.5968V24.521H64.2373C65.6516 24.521 66.6287 24.1225 67.1687 23.3253C67.4516 22.8882 67.683 22.4768 67.863 22.091C68.043 21.7053 68.1716 21.1653 68.2487 20.471C68.3516 19.571 68.403 18.4653 68.403 17.1539C68.403 14.6339 68.0045 12.911 67.2073 11.9853C66.4102 11.0596 65.253 10.5968 63.7359 10.5968H62.463ZM93.6482 21.821V22.0525C96.1939 22.1039 98.4182 22.631 100.321 23.6339C101.324 24.1482 102.108 24.8553 102.674 25.7553C103.265 26.6553 103.561 27.6839 103.561 28.841C103.561 34.0353 99.3953 36.6325 91.0639 36.6325H77.9496V36.0153H80.8039V10.5968H77.9496V9.97961H91.2182C95.1267 9.97961 97.981 10.4168 99.781 11.291C101.581 12.1396 102.481 13.6053 102.481 15.6882C102.481 17.7453 101.607 19.2882 99.8582 20.3168C98.1353 21.3196 96.2067 21.821 94.0724 21.821H93.6482ZM89.791 36.0153C91.951 36.0153 93.4296 35.411 94.2267 34.2025C95.0496 32.9682 95.461 31.181 95.461 28.841C95.461 26.4753 94.921 24.8296 93.841 23.9039C92.761 22.9525 91.3339 22.4768 89.5596 22.4768H88.6339V36.0153H89.791ZM89.4824 21.821C91.0253 21.821 92.221 21.2682 93.0696 20.1625C93.9182 19.0568 94.3424 17.7325 94.3424 16.1896C94.3424 14.621 93.9439 13.2968 93.1467 12.2168C92.3496 11.1368 91.0639 10.5968 89.2896 10.5968H88.6339V21.821H89.4824ZM129.415 28.6868C129.415 31.5153 128.361 33.6753 126.253 35.1668C124.17 36.6325 121.598 37.3653 118.538 37.3653C117.175 37.3653 115.671 37.121 114.025 36.6325C112.405 36.1439 111.351 35.8996 110.863 35.8996C110.374 35.8996 109.95 36.0282 109.59 36.2853C109.23 36.5168 108.973 36.7482 108.818 36.9796L108.587 37.3653H107.97V26.411H108.587C109.075 27.7225 109.487 28.7768 109.821 29.5739C110.181 30.371 110.657 31.271 111.248 32.2739C111.865 33.2768 112.483 34.061 113.1 34.6268C113.717 35.1925 114.488 35.681 115.414 36.0925C116.365 36.4782 117.42 36.671 118.577 36.671C119.734 36.671 120.737 36.3239 121.585 35.6296C122.434 34.9096 122.858 33.8296 122.858 32.3896C122.858 31.3096 122.395 30.3839 121.47 29.6125C120.775 29.021 120.004 28.5196 119.155 28.1082C118.307 27.671 117.587 27.3239 116.995 27.0668C116.43 26.7839 115.787 26.4753 115.067 26.141C114.373 25.8068 113.653 25.421 112.907 24.9839C112.187 24.521 111.428 23.9425 110.631 23.2482C109.011 21.8339 108.201 19.8925 108.201 17.4239C108.201 14.9553 109.153 12.9753 111.055 11.4839C112.984 9.99247 115.401 9.24676 118.307 9.24676C119.67 9.24676 121.11 9.47819 122.627 9.94104C124.17 10.3782 125.185 10.5968 125.674 10.5968C126.163 10.5968 126.548 10.4939 126.831 10.2882C127.14 10.0568 127.384 9.70961 127.564 9.24676H128.181V18.6968H127.564C126.895 16.4082 125.777 14.3768 124.208 12.6025C122.64 10.8282 120.814 9.94104 118.731 9.94104C115.98 9.94104 114.604 11.2396 114.604 13.8368C114.604 15.1482 115.08 16.2153 116.031 17.0382C117.111 17.9639 119.155 19.1082 122.164 20.471C124.838 21.6796 126.497 22.6439 127.14 23.3639C127.5 23.7496 127.885 24.1996 128.297 24.7139C129.043 25.691 129.415 27.0153 129.415 28.6868Z" fill="#8D8B86"/>
</g>
<defs>
<clipPath id="clip0_1864_3751">
<rect width="135" height="33.0612" fill="white" transform="translate(0 6.46936)"/>
</clipPath>
</defs>
</svg>
