<svg width="274" height="46" viewBox="0 0 274 46" fill="none" xmlns="http://www.w3.org/2000/svg">
<path d="M44.3655 33.9287V16.2614H49.1159V19.344H49.3C49.622 18.2474 50.1626 17.4193 50.9218 16.8595C51.6809 16.292 52.5551 16.0083 53.5443 16.0083C53.7896 16.0083 54.0542 16.0237 54.3379 16.0543C54.6216 16.085 54.8708 16.1272 55.0856 16.1809V20.5287C54.8555 20.4597 54.5373 20.3983 54.1309 20.3446C53.7245 20.291 53.3526 20.2641 53.0152 20.2641C52.2944 20.2641 51.6502 20.4213 51.0828 20.7357C50.523 21.0424 50.0783 21.4719 49.7485 22.024C49.4265 22.5761 49.2655 23.2125 49.2655 23.9333V33.9287H44.3655ZM65.4845 34.2738C63.6979 34.2738 62.1527 33.8942 60.8491 33.1351C59.5532 32.3682 58.5525 31.3024 57.8471 29.9375C57.1416 28.5649 56.7889 26.9737 56.7889 25.1641C56.7889 23.339 57.1416 21.7441 57.8471 20.3791C58.5525 19.0066 59.5532 17.9407 60.8491 17.1815C62.1527 16.4147 63.6979 16.0313 65.4845 16.0313C67.2712 16.0313 68.8125 16.4147 70.1084 17.1815C71.412 17.9407 72.4165 19.0066 73.122 20.3791C73.8274 21.7441 74.1802 23.339 74.1802 25.1641C74.1802 26.9737 73.8274 28.5649 73.122 29.9375C72.4165 31.3024 71.412 32.3682 70.1084 33.1351C68.8125 33.8942 67.2712 34.2738 65.4845 34.2738ZM65.5075 30.4781C66.3203 30.4781 66.999 30.248 67.5434 29.7879C68.0878 29.3202 68.4981 28.6837 68.7741 27.8786C69.0579 27.0734 69.1997 26.1571 69.1997 25.1295C69.1997 24.102 69.0579 23.1857 68.7741 22.3805C68.4981 21.5754 68.0878 20.9389 67.5434 20.4712C66.999 20.0034 66.3203 19.7695 65.5075 19.7695C64.687 19.7695 63.9969 20.0034 63.4371 20.4712C62.885 20.9389 62.4671 21.5754 62.1834 22.3805C61.9073 23.1857 61.7693 24.102 61.7693 25.1295C61.7693 26.1571 61.9073 27.0734 62.1834 27.8786C62.4671 28.6837 62.885 29.3202 63.4371 29.7879C63.9969 30.248 64.687 30.4781 65.5075 30.4781ZM86.0543 34.2738C84.2446 34.2738 82.688 33.8904 81.3844 33.1236C80.0885 32.3491 79.0916 31.2755 78.3938 29.9029C77.7037 28.5304 77.3586 26.9507 77.3586 25.1641C77.3586 23.3544 77.7075 21.7671 78.4053 20.4022C79.1108 19.0296 80.1115 17.9599 81.4074 17.193C82.7033 16.4186 84.2446 16.0313 86.0313 16.0313C87.5726 16.0313 88.9222 16.3112 90.0801 16.871C91.2379 17.4308 92.1543 18.2167 92.8291 19.2289C93.5039 20.2411 93.8758 21.4297 93.9448 22.7946H89.3209C89.1906 21.9128 88.8455 21.2035 88.2857 20.6667C87.7336 20.1223 87.009 19.85 86.1118 19.85C85.3527 19.85 84.6894 20.0571 84.1219 20.4712C83.5622 20.8776 83.1251 21.4719 82.8107 22.254C82.4963 23.0361 82.3391 23.9832 82.3391 25.095C82.3391 26.2223 82.4924 27.1808 82.7992 27.9706C83.1136 28.7604 83.5545 29.3623 84.1219 29.7764C84.6894 30.1905 85.3527 30.3975 86.1118 30.3975C86.6716 30.3975 87.1738 30.2825 87.6186 30.0525C88.071 29.8224 88.4429 29.4889 88.7343 29.0518C89.0334 28.607 89.2289 28.0741 89.3209 27.453H93.9448C93.8681 28.8026 93.5 29.9911 92.8406 31.0187C92.1888 32.0385 91.2878 32.836 90.1376 33.4111C88.9873 33.9862 87.6263 34.2738 86.0543 34.2738ZM102.227 28.8447L102.239 22.9671H102.952L108.611 16.2614H114.236L106.633 25.141H105.471L102.227 28.8447ZM97.7875 33.9287V10.3723H102.687V33.9287H97.7875ZM108.83 33.9287L103.631 26.2338L106.897 22.7716L114.569 33.9287H108.83ZM124.669 34.2738C122.852 34.2738 121.287 33.9057 119.976 33.1696C118.673 32.4258 117.668 31.3752 116.963 30.018C116.257 28.653 115.904 27.0389 115.904 25.1756C115.904 23.3582 116.257 21.7632 116.963 20.3906C117.668 19.0181 118.661 17.9484 119.942 17.1815C121.23 16.4147 122.741 16.0313 124.474 16.0313C125.639 16.0313 126.724 16.2192 127.729 16.5949C128.741 16.963 129.623 17.5189 130.374 18.2627C131.133 19.0066 131.724 19.9421 132.146 21.0693C132.567 22.1888 132.778 23.5001 132.778 25.003V26.3488H117.86V23.3122H128.166C128.166 22.6067 128.012 21.9818 127.706 21.4373C127.399 20.8929 126.973 20.4673 126.429 20.1606C125.892 19.8462 125.267 19.689 124.554 19.689C123.81 19.689 123.151 19.8615 122.576 20.2066C122.008 20.544 121.564 21.0003 121.241 21.5754C120.919 22.1428 120.755 22.7754 120.747 23.4732V26.3603C120.747 27.2344 120.908 27.9898 121.23 28.6262C121.56 29.2627 122.024 29.7534 122.622 30.0985C123.22 30.4436 123.929 30.6161 124.75 30.6161C125.294 30.6161 125.792 30.5394 126.245 30.386C126.697 30.2327 127.085 30.0026 127.407 29.6959C127.729 29.3892 127.974 29.0134 128.143 28.5687L132.675 28.8678C132.445 29.9566 131.973 30.9075 131.26 31.7203C130.554 32.5254 129.642 33.1542 128.522 33.6067C127.41 34.0514 126.126 34.2738 124.669 34.2738ZM146.079 16.2614V19.9421H135.439V16.2614H146.079ZM137.854 12.0286H142.754V28.4997C142.754 28.9521 142.823 29.3048 142.961 29.5579C143.099 29.8033 143.291 29.9758 143.537 30.0755C143.79 30.1752 144.081 30.225 144.411 30.225C144.641 30.225 144.871 30.2058 145.101 30.1675C145.331 30.1215 145.507 30.087 145.63 30.064L146.401 33.7102C146.155 33.7869 145.81 33.875 145.365 33.9747C144.921 34.0821 144.38 34.1473 143.744 34.1703C142.563 34.2163 141.527 34.0591 140.638 33.6987C139.756 33.3383 139.07 32.7785 138.579 32.0193C138.088 31.2602 137.847 30.3017 137.854 29.1438V12.0286ZM162.594 20.1376L160.719 20.6667C160.535 20.1376 160.274 19.6583 159.937 19.2289C159.599 18.7995 159.158 18.4583 158.614 18.2052C158.077 17.9522 157.41 17.8257 156.613 17.8257C155.416 17.8257 154.435 18.1094 153.668 18.6768C152.901 19.2443 152.518 19.9766 152.518 20.8737C152.518 21.6329 152.779 22.2502 153.3 22.7256C153.829 23.1933 154.642 23.5652 155.738 23.8413L158.407 24.4969C159.887 24.8573 160.995 25.4286 161.731 26.2108C162.475 26.9929 162.847 27.9744 162.847 29.1553C162.847 30.1522 162.571 31.0378 162.019 31.8123C161.467 32.5868 160.696 33.1964 159.707 33.6412C158.725 34.0782 157.586 34.2968 156.291 34.2968C154.565 34.2968 153.143 33.9095 152.023 33.1351C150.904 32.3529 150.187 31.2257 149.872 29.7534L151.839 29.2703C152.092 30.3209 152.587 31.1145 153.323 31.6513C154.067 32.188 155.045 32.4564 156.256 32.4564C157.613 32.4564 158.698 32.1535 159.511 31.5478C160.324 30.9343 160.73 30.1675 160.73 29.2473C160.73 28.5342 160.493 27.9361 160.017 27.453C159.542 26.9622 158.821 26.6018 157.855 26.3718L154.968 25.6816C153.434 25.3136 152.299 24.7308 151.563 23.9333C150.827 23.1358 150.459 22.1466 150.459 20.9658C150.459 19.9919 150.724 19.1369 151.253 18.4008C151.782 17.657 152.51 17.0742 153.438 16.6524C154.366 16.2307 155.424 16.0198 156.613 16.0198C158.231 16.0198 159.523 16.3879 160.489 17.124C161.463 17.8525 162.164 18.857 162.594 20.1376ZM174.396 34.2968C172.947 34.2968 171.678 33.9134 170.589 33.1466C169.5 32.3798 168.649 31.31 168.035 29.9375C167.43 28.5649 167.127 26.9661 167.127 25.141C167.127 23.3237 167.43 21.7326 168.035 20.3676C168.649 18.9951 169.504 17.9292 170.6 17.17C171.697 16.4032 172.974 16.0198 174.431 16.0198C175.504 16.0198 176.397 16.2115 177.111 16.5949C177.824 16.9707 178.395 17.4384 178.824 17.9982C179.254 18.558 179.587 19.1024 179.825 19.6315H180.009V10.3723H182.068V33.9287H180.067V30.6506H179.825C179.587 31.1874 179.25 31.7395 178.813 32.3069C178.376 32.8667 177.797 33.3383 177.076 33.7217C176.363 34.1051 175.47 34.2968 174.396 34.2968ZM174.638 32.4219C175.78 32.4219 176.754 32.1114 177.559 31.4902C178.364 30.8615 178.978 29.9988 179.399 28.9023C179.829 27.7981 180.044 26.5328 180.044 25.1065C180.044 23.6956 179.833 22.4495 179.411 21.3683C178.989 20.2795 178.376 19.4283 177.571 18.8149C176.765 18.1937 175.788 17.8832 174.638 17.8832C173.457 17.8832 172.46 18.2052 171.647 18.8494C170.842 19.4858 170.228 20.3485 169.807 21.4373C169.393 22.5262 169.186 23.7493 169.186 25.1065C169.186 26.4791 169.396 27.7175 169.818 28.8217C170.24 29.926 170.853 30.804 171.658 31.4557C172.471 32.0999 173.464 32.4219 174.638 32.4219ZM188.605 33.9287V16.2614H190.595V18.9759H190.744C191.097 18.0864 191.711 17.3694 192.585 16.825C193.467 16.2729 194.464 15.9968 195.575 15.9968C195.744 15.9968 195.932 16.0007 196.139 16.0083C196.346 16.016 196.519 16.0237 196.657 16.0313V18.1132C196.565 18.0979 196.404 18.0749 196.173 18.0442C195.943 18.0135 195.694 17.9982 195.426 17.9982C194.506 17.9982 193.685 18.1937 192.964 18.5848C192.251 18.9682 191.688 19.5011 191.274 20.1836C190.859 20.8661 190.652 21.6444 190.652 22.5186V33.9287H188.605Z" fill="white"/>
<rect y="4.58154" width="35.989" height="35.989" rx="5.64407" fill="url(#paint0_linear_2464_229)"/>
<path d="M10.2744 19.9915L12.792 18.5396L11.3867 16.1069H24.603L17.997 27.5528L16.5917 25.1159L14.0742 26.5721L17.997 33.365L29.6382 13.1987H6.35156L10.2744 19.9915Z" fill="white"/>
<defs>
<linearGradient id="paint0_linear_2464_229" x1="17.9945" y1="4.58154" x2="17.9945" y2="40.5706" gradientUnits="userSpaceOnUse">
<stop stop-color="#765DD8"/>
<stop offset="1" stop-color="#AD30E7"/>
</linearGradient>
</defs>
</svg>
