<svg width="201" height="46" viewBox="0 0 201 46" fill="none" xmlns="http://www.w3.org/2000/svg">
<path d="M148.889 29.006C148.963 29.9011 149.159 30.6656 149.476 31.2996C149.812 31.915 150.231 32.4185 150.735 32.8101C151.257 33.2017 151.854 33.4907 152.525 33.6772C153.196 33.845 153.914 33.9289 154.679 33.9289C155.574 33.9289 156.348 33.817 157 33.5932C157.653 33.3695 158.184 33.0711 158.595 32.6982C159.005 32.3066 159.303 31.859 159.49 31.3556C159.695 30.8521 159.797 30.3206 159.797 29.7612C159.797 28.978 159.62 28.344 159.266 27.8592C158.912 27.3743 158.446 26.9827 157.867 26.6844C157.308 26.3674 156.655 26.1156 155.909 25.9292C155.182 25.7427 154.427 25.5655 153.644 25.3977C152.879 25.2112 152.124 24.9968 151.378 24.7544C150.651 24.512 149.998 24.1856 149.42 23.7754C148.861 23.3651 148.404 22.843 148.05 22.209C147.695 21.5563 147.518 20.7358 147.518 19.7475C147.518 19.0576 147.658 18.3863 147.938 17.7336C148.236 17.081 148.665 16.5029 149.224 15.9994C149.802 15.4959 150.52 15.095 151.378 14.7966C152.236 14.4983 153.224 14.3491 154.343 14.3491C155.481 14.3491 156.469 14.5076 157.308 14.8246C158.166 15.1416 158.874 15.5798 159.434 16.1393C159.993 16.68 160.413 17.314 160.693 18.0413C160.972 18.7685 161.112 19.5424 161.112 20.3629H159.294C159.294 19.5984 159.154 18.9364 158.874 18.3769C158.613 17.8175 158.25 17.3607 157.784 17.0064C157.317 16.6521 156.786 16.391 156.189 16.2232C155.592 16.0553 154.977 15.9714 154.343 15.9714C153.373 15.9714 152.553 16.1113 151.882 16.391C151.229 16.6521 150.707 16.997 150.315 17.4259C149.924 17.8548 149.653 18.3303 149.504 18.8525C149.355 19.3746 149.327 19.8967 149.42 20.4188C149.532 21.0715 149.793 21.5936 150.203 21.9852C150.614 22.3768 151.117 22.7032 151.714 22.9642C152.311 23.2066 152.963 23.4118 153.672 23.5796C154.399 23.7288 155.136 23.8966 155.881 24.0831C156.627 24.2509 157.345 24.456 158.035 24.6984C158.744 24.9408 159.369 25.2672 159.909 25.6774C160.45 26.0877 160.879 26.6191 161.196 27.2718C161.532 27.9058 161.699 28.7076 161.699 29.6773C161.699 31.542 161.056 32.9872 159.769 34.0128C158.483 35.0384 156.674 35.5512 154.343 35.5512C153.299 35.5512 152.329 35.4114 151.434 35.1317C150.539 34.8706 149.765 34.4697 149.112 33.9289C148.46 33.3695 147.947 32.6888 147.574 31.887C147.22 31.0665 147.043 30.1062 147.043 29.006H148.889ZM164.506 35.0198V14.8806H171.387C171.946 14.8806 172.496 14.8992 173.037 14.9365C173.578 14.9551 174.109 15.0204 174.631 15.1323C175.153 15.2255 175.657 15.3747 176.142 15.5798C176.645 15.785 177.13 16.0553 177.596 16.391C178.268 16.8758 178.818 17.4725 179.247 18.1811C179.675 18.8711 180.011 19.6077 180.254 20.3909C180.515 21.1554 180.692 21.9386 180.785 22.7404C180.897 23.5236 180.953 24.2509 180.953 24.9222C180.953 25.5935 180.906 26.2741 180.813 26.9641C180.738 27.654 180.608 28.3347 180.421 29.006C180.235 29.6586 179.983 30.2927 179.666 30.908C179.368 31.5047 178.985 32.0548 178.519 32.5583C178.053 33.0804 177.54 33.5 176.981 33.817C176.44 34.134 175.862 34.3858 175.247 34.5722C174.65 34.7401 174.025 34.8613 173.373 34.9359C172.72 34.9918 172.058 35.0198 171.387 35.0198H164.506ZM166.408 33.3974H170.967C171.825 33.3974 172.627 33.3508 173.373 33.2576C174.137 33.1457 174.911 32.8846 175.694 32.4744C176.366 32.1387 176.916 31.6819 177.345 31.1038C177.773 30.5257 178.109 29.9011 178.351 29.2297C178.613 28.5398 178.79 27.8219 178.883 27.076C178.995 26.3301 179.051 25.6121 179.051 24.9222C179.051 24.1949 179.004 23.4584 178.911 22.7125C178.818 21.9479 178.641 21.23 178.379 20.5587C178.118 19.8687 177.764 19.2441 177.317 18.6846C176.869 18.1066 176.291 17.6311 175.582 17.2581C174.986 16.9411 174.277 16.736 173.457 16.6427C172.636 16.5495 171.806 16.5029 170.967 16.5029H166.408V33.3974ZM191.797 24.2509C192.505 24.2509 193.158 24.1763 193.755 24.0271C194.37 23.8779 194.901 23.6448 195.349 23.3278C195.797 22.9922 196.151 22.5726 196.412 22.0691C196.673 21.5657 196.803 20.9596 196.803 20.251C196.803 19.5051 196.664 18.8898 196.384 18.4049C196.123 17.9201 195.759 17.5378 195.293 17.2581C194.845 16.9784 194.323 16.7826 193.727 16.6707C193.149 16.5588 192.543 16.5029 191.909 16.5029H185.867V24.2509H191.797ZM185.867 25.8732V35.0198H183.965V14.8806H191.853C194.072 14.8806 195.769 15.3001 196.943 16.1393C198.118 16.9597 198.706 18.3024 198.706 20.1671C198.706 21.4351 198.444 22.4421 197.922 23.188C197.419 23.9339 196.589 24.5679 195.433 25.09C196.03 25.2951 196.496 25.5935 196.831 25.9851C197.167 26.3767 197.419 26.8242 197.587 27.3277C197.754 27.8312 197.857 28.3626 197.894 28.9221C197.95 29.4815 197.988 30.0223 198.006 30.5444C198.025 31.3089 198.053 31.943 198.09 32.4464C198.146 32.9499 198.202 33.3602 198.258 33.6772C198.333 33.9942 198.416 34.2459 198.51 34.4324C198.603 34.6002 198.715 34.7307 198.845 34.824V35.0198H196.748C196.542 34.6841 196.393 34.2179 196.3 33.6212C196.225 33.0245 196.16 32.3998 196.104 31.7472C196.067 31.0945 196.03 30.4605 195.992 29.8451C195.974 29.2297 195.927 28.7263 195.852 28.3347C195.741 27.7939 195.554 27.365 195.293 27.048C195.051 26.7123 194.752 26.4606 194.398 26.2928C194.044 26.125 193.643 26.0131 193.195 25.9571C192.766 25.9012 192.319 25.8732 191.853 25.8732H185.867Z" fill="#8D8B86"/>
<g clip-path="url(#clip0_1864_3764)">
<path d="M60.0783 33.9249H65.3717L60.7861 26.0156C63.1558 24.8153 64.7562 22.4148 64.7562 19.7681C64.7562 15.6749 61.4632 12.3819 57.37 12.3819H48.7528V33.9249H53.6769V26.8465H56.0159L60.0783 33.9249ZM53.6769 16.9983H57.37C58.7241 16.9983 59.8321 18.1985 59.8321 19.7681C59.8321 21.3376 58.7241 22.5379 57.37 22.5379H53.6769V16.9983ZM74.138 34.3558C78.662 34.3558 82.2936 30.8166 82.2936 26.231C82.2936 21.6454 78.662 18.1062 74.138 18.1062C69.6139 18.1062 65.9824 21.6454 65.9824 26.231C65.9824 30.8166 69.6139 34.3558 74.138 34.3558ZM74.138 29.8625C72.1376 29.8625 70.5988 28.4161 70.5988 26.231C70.5988 24.0459 72.1376 22.5995 74.138 22.5995C76.1384 22.5995 77.6772 24.0459 77.6772 26.231C77.6772 28.4161 76.1384 29.8625 74.138 29.8625ZM92.2909 34.3558C95.3069 34.3558 97.9228 32.7862 99.2462 30.3857L95.2146 28.0775C94.7221 29.1547 93.5834 29.801 92.2293 29.801C90.2289 29.801 88.7516 28.3545 88.7516 26.231C88.7516 24.1075 90.2289 22.661 92.2293 22.661C93.5834 22.661 94.6914 23.3073 95.2146 24.3844L99.2462 22.0455C97.9228 19.6758 95.2761 18.1062 92.2909 18.1062C87.6129 18.1062 84.1353 21.6454 84.1353 26.231C84.1353 30.8166 87.6129 34.3558 92.2909 34.3558ZM115.876 33.9249L110.121 26.231L115.723 18.5371H110.337L105.72 25.2769V12.3819H101.104V33.9249H105.72V27.1235L110.645 33.9249H115.876ZM120.766 28.0775H131.692C131.815 27.4928 131.876 26.8773 131.876 26.231C131.876 21.5839 128.552 18.1062 124.059 18.1062C119.197 18.1062 115.873 21.6454 115.873 26.231C115.873 30.8166 119.135 34.3558 124.398 34.3558C127.321 34.3558 129.599 33.2786 131.107 31.1859L127.414 29.0624C126.798 29.7394 125.721 30.2318 124.459 30.2318C122.767 30.2318 121.351 29.6779 120.766 28.0775ZM120.674 24.6307C121.105 23.0611 122.274 22.1994 124.028 22.1994C125.413 22.1994 126.798 22.8457 127.291 24.6307H120.674ZM143.061 22.9688V18.5371H139.891V14.2284L135.275 15.6134V18.5371H132.813V22.9688H135.275V28.4161C135.275 32.7247 137.029 34.5404 143.061 33.9249V29.7394C141.03 29.8625 139.891 29.7394 139.891 28.4161V22.9688H143.061ZM166.441 12.3819H164.379L156.685 25.1231L148.991 12.3819H146.96V33.9249H148.591V14.7824L156.562 28.016H156.839L164.81 14.7824V33.9249H166.441V12.3819ZM178.402 18.1985C173.693 18.1985 170.431 21.707 170.431 26.231C170.431 30.8781 173.786 34.2635 178.525 34.2635C181.572 34.2635 183.972 32.8786 185.234 30.7858L183.88 29.9856C182.987 31.6167 181.079 32.7862 178.556 32.7862C175.047 32.7862 172.401 30.5088 172.031 27.0312H185.973C185.973 26.785 186.003 26.5387 186.003 26.2925C186.003 22.0763 183.08 18.1985 178.402 18.1985ZM178.402 19.6758C181.418 19.6758 184.065 21.7685 184.403 25.5231H172.031C172.339 22.107 174.893 19.6758 178.402 19.6758ZM197.028 20.0451V18.5371H192.442V14.2284L190.873 14.6901V18.5371H187.487V20.0451H190.873V30.0472C190.873 33.5556 192.996 34.5404 197.028 33.9249V32.54C193.889 32.817 192.442 32.7554 192.442 30.0472V20.0451H197.028ZM213.33 18.5371V22.0147C212.037 19.7065 209.668 18.1985 206.713 18.1985C202.343 18.1985 198.742 21.6762 198.742 26.231C198.742 30.7858 202.343 34.2635 206.713 34.2635C209.668 34.2635 212.037 32.7554 213.33 30.4473V33.9249H214.9V18.5371H213.33ZM206.836 32.7862C203.174 32.7862 200.312 29.8933 200.312 26.231C200.312 22.5687 203.174 19.6758 206.836 19.6758C210.499 19.6758 213.33 22.5687 213.33 26.231C213.33 29.8933 210.499 32.7862 206.836 32.7862Z" fill="#8D8B86"/>
</g>
<path d="M6.4727 17.4251L10.539 15.08L8.26925 11.1509H29.6155L18.9458 29.6377L16.6761 25.7017L12.6098 28.0537L18.9458 39.0252L37.748 6.45374H0.136719L6.4727 17.4251Z" fill="#8D8B86"/>
<defs>
<clipPath id="clip0_1864_3764">
<rect width="98.9352" height="37.7516" fill="white" transform="translate(46.9062 4.92493)"/>
</clipPath>
</defs>
</svg>
