<svg width="132" height="45" viewBox="0 0 132 45" fill="none" xmlns="http://www.w3.org/2000/svg">
<path d="M8.94977 15.9564C7.86933 15.9564 7.11313 16.35 7.11313 17.1729C7.11313 19.7141 17.3397 18.4976 17.3038 25.2291C17.3038 29.2009 13.8112 31.4555 9.05747 31.4555C5.78024 31.4555 2.64776 30.5256 0.271484 28.6991L2.28762 24.5846C4.5203 26.1234 7.03555 26.982 9.20106 26.982C10.3892 26.982 11.2531 26.5884 11.2531 25.8011C11.2531 23.1541 1.20717 24.4765 1.20717 17.7852C1.20717 13.7409 4.628 11.522 9.19759 11.522C12.055 11.532 14.8563 12.3111 17.3038 13.7766L15.1429 17.9279C12.7307 16.6711 10.534 15.9564 8.94977 15.9564Z" fill="#FF7100"/>
<path d="M40.6721 18.9614V31.1609H34.3029V20.7878C34.3029 18.6011 33.0071 17.2442 30.9898 17.2442C28.8289 17.2799 27.4254 18.7473 27.1683 20.9271V31.162H20.7598V11.8051H27.1695V14.9539C28.5383 12.735 30.7698 11.5542 33.6151 11.5542C37.8639 11.5542 40.6721 14.4176 40.6721 18.9614Z" fill="#FF7100"/>
<path fill-rule="evenodd" clip-rule="evenodd" d="M64.6573 31.1646V11.8042H58.243V14.304C56.8742 12.5512 54.821 11.5487 52.337 11.5844C46.9719 11.5844 43.4434 15.486 43.4434 21.3901C43.4434 27.4023 47.0448 31.4109 52.5177 31.4109C54.9299 31.4109 56.9101 30.4488 58.243 28.7305V31.1646H64.6573ZM58.2468 20.9304V22.2194L58.2422 22.2183C57.9898 24.7238 56.4056 26.4053 54.1057 26.411C51.5847 26.411 49.8928 24.4418 49.8928 21.5772C49.8928 18.7127 51.5847 16.7435 54.1057 16.7435C56.4102 16.7435 57.9944 18.3893 58.2468 20.9304Z" fill="#FF7100"/>
<path d="M85.7175 11.8459V15.7106L76.356 26.2989H86.0834V31.166H68.3262V27.3002L77.6877 16.7119H68.6551V11.8091L85.7175 11.8459Z" fill="#FF7100"/>
<path d="M105.702 11.8459V15.7106L96.3403 26.2989H106.068V31.166H88.3105V27.3002L97.6721 16.7119H88.6313V11.8091L105.702 11.8459Z" fill="#FF7100"/>
<path d="M126.617 38.521L126.294 38.4301L120.345 36.7832C120.345 36.7832 122.453 28.2418 122.428 26.3382C121.102 28.4386 118.99 29.5607 116.214 29.5607C111.748 29.5607 108.939 26.703 108.939 22.1581V11.8081H115.353V20.3247C115.353 22.5114 116.613 23.8327 118.667 23.8327C120.597 23.8327 121.909 22.6818 122.33 20.7943V20.7862C122.322 20.5146 122.322 20.235 122.322 19.9622V11.8081H128.698V19.9518C128.698 21.1868 128.781 22.2807 128.756 23.7728C128.655 29.5918 126.617 38.521 126.617 38.521Z" fill="#FF7100"/>
</svg>
