<svg width="133" height="46" viewBox="0 0 133 46" fill="none" xmlns="http://www.w3.org/2000/svg">
<path d="M8.67829 16.4344C7.59784 16.4344 6.84165 16.828 6.84165 17.6509C6.84165 20.1921 17.0682 18.9756 17.0323 25.7072C17.0323 29.6789 13.5397 31.9335 8.78598 31.9335C5.50876 31.9335 2.37628 31.0036 0 29.1771L2.01613 25.0627C4.24882 26.6014 6.76406 27.46 8.92958 27.46C10.1177 27.46 10.9816 27.0664 10.9816 26.2792C10.9816 23.6321 0.935689 24.9545 0.935689 18.2632C0.935689 14.2189 4.35651 12 8.92611 12C11.7835 12.01 14.5848 12.7891 17.0323 14.2546L14.8714 18.4059C12.4593 17.1491 10.2625 16.4344 8.67829 16.4344Z" fill="#8D8B86"/>
<path d="M40.4006 19.4396V31.6391H34.0315V21.2661C34.0315 19.0794 32.7356 17.7225 30.7183 17.7225C28.5574 17.7582 27.1539 19.2256 26.8968 21.4054V31.6403H20.4883V12.2834H26.898V15.4322C28.2668 13.2133 30.4983 12.0325 33.3436 12.0325C37.5924 12.0325 40.4006 14.8959 40.4006 19.4396Z" fill="#8D8B86"/>
<path fillRule="evenodd" clipRule="evenodd" d="M64.3859 31.6429V12.2825H57.9715V14.7823C56.6027 13.0294 54.5495 12.027 52.0656 12.0627C46.7004 12.0627 43.1719 15.9642 43.1719 21.8683C43.1719 27.8806 46.7734 31.8892 52.2462 31.8892C54.6584 31.8892 56.6386 30.927 57.9715 29.2087V31.6429H64.3859ZM57.9754 21.4087V22.6977L57.9707 22.6966C57.7183 25.2021 56.1341 26.8835 53.8342 26.8893C51.3132 26.8893 49.6213 24.9201 49.6213 22.0555C49.6213 19.1909 51.3132 17.2218 53.8342 17.2218C56.1387 17.2218 57.7229 18.8675 57.9754 21.4087Z" fill="#8D8B86"/>
<path d="M85.446 12.3239V16.1886L76.0845 26.7769H85.8119V31.644H68.0547V27.7782L77.4162 17.1899H68.3836V12.2871L85.446 12.3239Z" fill="#8D8B86"/>
<path d="M105.43 12.3239V16.1886L96.0689 26.7769H105.796V31.644H88.0391V27.7782L97.4006 17.1899H88.3598V12.2871L105.43 12.3239Z" fill="#8D8B86"/>
<path d="M126.345 38.9993L126.022 38.9084L120.073 37.2615C120.073 37.2615 122.181 28.72 122.157 26.8164C120.831 28.9168 118.719 30.039 115.943 30.039C111.476 30.039 108.668 27.1813 108.668 22.6364V12.2864H115.081V20.803C115.081 22.9897 116.341 24.3109 118.395 24.3109C120.326 24.3109 121.638 23.16 122.058 21.2726V21.2645C122.05 20.9929 122.05 20.7132 122.05 20.4405V12.2864H128.426V20.4301C128.426 21.665 128.51 22.759 128.484 24.2511C128.384 30.07 126.345 38.9993 126.345 38.9993Z" fill="#8D8B86"/>
</svg>
