<svg width="92" height="46" viewBox="0 0 92 46" fill="none" xmlns="http://www.w3.org/2000/svg">
<path d="M11.2861 41.2876V11.7463H7.3034V7.26095H20.2761V11.7463H16.4481V41.2876H11.2861ZM28.567 41.6743C26.8012 41.6743 25.3576 41.3005 24.2363 40.5529C23.1278 39.8054 22.3094 38.6969 21.781 37.2276C21.2525 35.7583 20.9883 33.9409 20.9883 31.7756V16.2123C20.9883 14.2532 21.2461 12.5776 21.7616 11.1856C22.2772 9.79362 23.0956 8.72384 24.217 7.97629C25.3383 7.22873 26.8076 6.85496 28.625 6.85496C29.9912 6.85496 31.1447 7.06762 32.0856 7.49295C33.0265 7.91829 33.787 8.53695 34.367 9.34895C34.947 10.1481 35.3658 11.1276 35.6236 12.2876C35.8943 13.4347 36.0296 14.7429 36.0296 16.2123V31.7756C36.0296 33.9409 35.7718 35.7583 35.2563 37.2276C34.7536 38.6969 33.9545 39.8054 32.859 40.5529C31.7634 41.3005 30.3327 41.6743 28.567 41.6743ZM28.567 37.1889C29.2114 37.1889 29.6947 36.9956 30.017 36.6089C30.3392 36.2223 30.5518 35.6358 30.655 34.8496C30.771 34.0505 30.829 33.0452 30.829 31.8336V15.9803C30.829 14.4981 30.6872 13.3574 30.4036 12.5583C30.133 11.7463 29.5401 11.3403 28.625 11.3403C27.6841 11.3403 27.0461 11.7334 26.711 12.5196C26.3758 13.293 26.2083 14.4401 26.2083 15.9609V31.8336C26.2083 33.0709 26.2598 34.0892 26.363 34.8883C26.479 35.6745 26.7045 36.2545 27.0396 36.6283C27.3876 37.002 27.8967 37.1889 28.567 37.1889ZM39.0425 21.2196V16.0189H44.5139V21.2196H39.0425ZM39.0425 36.0676V30.8669H44.5139V36.0676H39.0425ZM47.9328 41.2876V7.26095H59.6101V11.7656H53.1141V20.8136H59.1461V25.3376H53.1141V41.2876H47.9328ZM59.0657 41.2876L63.9183 7.26095H70.7623L75.9243 41.2876H71.091L70.279 35.2169H64.7883L64.0537 41.2876H59.0657ZM65.291 31.0603H69.7376L67.4563 13.9696H67.379L65.291 31.0603ZM77.3132 21.2196V16.0189H82.7845V21.2196H77.3132ZM77.3132 36.0676V30.8669H82.7845V36.0676H77.3132Z" fill="#4B8069"/>
<rect x="0.206222" y="0.206222" width="91.5626" height="45.3689" stroke="#4B8069" stroke-width="0.412444"/>
</svg>
