<svg xmlns="http://www.w3.org/2000/svg" viewBox="0 0 32 32">
  <rect width="32" height="32" rx="7" fill="#18181b"/>
  <g transform="translate(2 2) scale(0.11667)"><path d="M34.746,87.816c-5.95,-1.534 -10.351,-6.94 -10.351,-13.365c0,-7.617 6.184,-13.801 13.801,-13.801c3.512,0 6.719,1.315 9.156,3.478l58.857,-33.756c-0.007,-0.18 -0.01,-0.361 -0.01,-0.542c0,-7.617 6.184,-13.801 13.801,-13.801c7.617,0 13.801,6.184 13.801,13.801l-0,0.049l59.42,33.766c2.357,-1.875 5.34,-2.996 8.583,-2.996c7.617,0 13.801,6.184 13.801,13.801c0,6.426 -4.401,11.832 -10.351,13.365l0,62.51c5.95,1.534 10.351,6.94 10.351,13.365c0,7.617 -6.184,13.801 -13.801,13.801c-3.094,0 -5.952,-1.021 -8.255,-2.743l-59.768,36.177c-0.393,7.266 -6.417,13.045 -13.781,13.045c-7.617,0 -13.801,-6.184 -13.801,-13.801c0,-0.428 0.02,-0.851 0.058,-1.269l-59.31,-34.541c-2.382,1.957 -5.43,3.132 -8.75,3.132c-7.617,0 -13.801,-6.184 -13.801,-13.801c0,-6.426 4.401,-11.832 10.351,-13.365l0,-62.51Zm154.29,-18.611l-57.099,-32.447c-0.289,0.497 -0.609,0.974 -0.956,1.43l32.399,53.449l24.97,-14.102c-0.227,-0.992 -0.346,-2.024 -0.346,-3.083c0,-1.857 0.367,-3.628 1.033,-5.246Zm3.665,84.116l-16.952,-27.967l-9.325,16.059l24.895,13.307c0.427,-0.499 0.889,-0.966 1.382,-1.4Zm-4.42,7.6l-25.325,-13.537l-31.769,54.708c0.39,0.539 0.742,1.107 1.052,1.701l56.959,-34.477c-0.769,-1.718 -1.196,-3.622 -1.196,-5.625c0,-0.949 0.096,-1.875 0.279,-2.77Zm3.249,-77.259l-24.572,13.878l8.663,14.292l16.185,-27.871c-0.093,-0.098 -0.185,-0.198 -0.276,-0.299Zm6.132,3.956l-17.965,30.937l18.657,30.778l0,-61.518c-0.233,-0.06 -0.463,-0.126 -0.691,-0.198Zm-146.626,81.139l57.619,33.556c0.4,-0.576 0.843,-1.121 1.324,-1.629l-31.89,-53.356l-26.181,14.788c0.059,0.517 0.089,1.042 0.089,1.575c0,1.788 -0.341,3.497 -0.961,5.066Zm-9.39,-80.941l0,62.51c0.133,0.034 0.266,0.071 0.397,0.109l18.849,-31.878l-18.502,-30.955c-0.245,0.078 -0.494,0.15 -0.745,0.215Zm7.74,67.799l25.162,-14.212l-9.625,-16.104l-16.946,28.659c0.512,0.514 0.983,1.068 1.409,1.658Zm-1.155,-71.694l16.66,27.874l8.813,-14.905l-24.467,-14.163c-0.313,0.417 -0.649,0.815 -1.007,1.194Zm-10.035,-16.371c-3.808,0 -6.9,3.092 -6.9,6.9c0,3.808 3.092,6.9 6.9,6.9c3.808,0 6.9,-3.092 6.9,-6.9c0,-3.808 -3.092,-6.9 -6.9,-6.9Zm81.804,-44.62c-3.808,0 -6.9,3.092 -6.9,6.9c0,3.808 3.092,6.9 6.9,6.9c3.808,0 6.9,-3.092 6.9,-6.9c0,-3.808 -3.092,-6.9 -6.9,-6.9Zm81.804,44.62c-3.808,0 -6.9,3.092 -6.9,6.9c0,3.808 3.092,6.9 6.9,6.9c3.808,0 6.9,-3.092 6.9,-6.9c0,-3.808 -3.092,-6.9 -6.9,-6.9Zm0,89.241c-3.808,0 -6.9,3.092 -6.9,6.9c0,3.808 3.092,6.9 6.9,6.9c3.808,0 6.9,-3.092 6.9,-6.9c0,-3.808 -3.092,-6.9 -6.9,-6.9Zm-81.804,46.479c-3.808,0 -6.9,3.092 -6.9,6.9c0,3.808 3.092,6.9 6.9,6.9c3.808,0 6.9,-3.092 6.9,-6.9c0,-3.808 -3.092,-6.9 -6.9,-6.9Zm-81.804,-46.479c-3.808,0 -6.9,3.092 -6.9,6.9c0,3.808 3.092,6.9 6.9,6.9c3.808,0 6.9,-3.092 6.9,-6.9c0,-3.808 -3.092,-6.9 -6.9,-6.9Zm13.02,-86.924c0.506,1.434 0.781,2.977 0.781,4.584c0,0.621 -0.041,1.232 -0.121,1.831l25.34,14.669l31.469,-53.22c-0.137,-0.195 -0.268,-0.394 -0.395,-0.597l-57.074,32.733Zm51.589,43.869l-23.129,-13.388l-10.756,18.19l11.637,19.471l22.542,-12.732c0.809,2.2 2.036,4.199 3.584,5.901l-22.584,12.756l31.725,53.08c0.239,-0.076 0.481,-0.145 0.725,-0.208l0,-60.065c1.117,0.217 2.27,0.331 3.45,0.331c1.18,0 2.333,-0.114 3.45,-0.331l0,60.065c0.812,0.209 1.595,0.491 2.342,0.837l31.075,-53.513l-23.776,-12.709c1.584,-1.678 2.848,-3.66 3.697,-5.848l23.546,12.586l11.339,-19.527l-10.727,-17.696l-23.598,13.327c-0.629,-2.271 -1.692,-4.361 -3.094,-6.177l23.113,-13.053l-31.852,-52.548c-0.663,0.29 -1.353,0.529 -2.066,0.713l0,58.206c-1.117,-0.217 -2.27,-0.331 -3.45,-0.331c-1.18,0 -2.333,0.114 -3.45,0.331l0,-58.206c-0.881,-0.227 -1.728,-0.539 -2.531,-0.927l-30.83,52.138l22.894,13.253c-1.457,1.774 -2.581,3.831 -3.278,6.076Z" fill="#ffffff"/><circle cx="120" cy="120" r="13.801" fill="#18eee5"/></g>
</svg>
