<svg width="846" height="846" viewBox="0 0 846 846" fill="none" xmlns="http://www.w3.org/2000/svg">
<g clip-path="url(#clip0_4_43)">
<path d="M668.063 685.999C652.301 717.778 604.265 775.595 524.878 810.774C632.88 722.178 475.836 620.682 543.832 568.491C526.061 564.543 506.298 577.064 502.283 594.817C499.72 606.155 502.927 617.902 503.456 629.51C504.201 645.887 499.167 662.847 487.958 674.806C476.75 686.764 459.065 692.948 443.25 688.635C427.44 684.317 414.914 668.67 415.991 652.316C416.899 638.507 426.257 626.99 433.128 614.979C448.851 587.484 452.164 553.195 441.999 523.2C431.83 493.2 408.35 467.995 379.148 455.728C399.113 501.509 393.752 557.422 365.459 598.577C344.946 628.419 313.557 650.682 298.439 683.586C287.033 708.407 286.317 737.931 296.511 763.271C303.002 779.408 313.85 793.704 327.439 804.547C279.402 788.198 231.698 755.746 203.482 714.663C174.16 671.964 159.956 619.436 163.832 568.058C167.226 523.114 183.892 479.881 187.056 434.917C190.225 389.959 175.151 338.614 134 318.76C166.043 308.398 204.771 330.026 212.142 362.387C215.171 375.702 213.488 389.574 214.618 403.172C215.753 416.766 220.691 431.374 232.645 438.298C248.773 447.65 271.141 437.706 279.753 421.362C288.37 405.019 286.052 385.044 279.821 367.686C273.589 350.327 263.77 334.392 257.375 317.096C243.68 280.057 246.892 237.324 265.977 202.67C282.061 173.464 308.109 150.854 327.246 123.48C345.307 97.649 356.799 63.2351 344.306 34.9999C375.244 37.6686 406.153 46.896 429.363 66.9328C455.122 89.1622 468.936 126.73 456.16 158.005C447.539 179.118 428.829 194.347 414.966 212.551C398.565 234.093 388.727 261.468 392.751 288.073C396.781 314.683 416.51 339.581 443.163 345.663C469.816 351.751 501.009 335.056 506.428 308.682C510.9 286.952 498.725 265.088 499.422 242.921C500.48 209.469 536.235 181.426 569.644 187.865C552.81 189.077 540.89 206.748 541.327 223.337C541.765 239.926 551.531 254.928 562.893 267.199C574.251 279.475 587.551 290.054 597.629 303.363C619.176 331.81 623.518 371.249 611.256 404.6C605.198 421.069 595.364 435.98 582.983 448.569C569.25 462.528 577.189 486.195 596.793 488.565C597.096 488.604 597.398 488.633 597.701 488.661C610.266 489.748 622.018 482.117 630.529 472.962C639.044 463.811 645.473 452.896 654.402 444.13C669.318 429.489 691.043 421.829 712.022 423.815C622.826 458.878 722.663 575.872 668.063 685.999Z" fill="url(#paint0_linear_4_43)"/>
</g>
<defs>
<linearGradient id="paint0_linear_4_43" x1="423.011" y1="77.9564" x2="423.011" y2="789.538" gradientUnits="userSpaceOnUse">
<stop stop-color="#FF7B08"/>
<stop offset="1" stop-color="#CF0606"/>
</linearGradient>
<clipPath id="clip0_4_43">
<rect width="846" height="846" fill="white"/>
</clipPath>
</defs>
</svg>
